<?xml version="1.0" standalone="no"?>
<!DOCTYPE svg PUBLIC "-//W3C//DTD SVG 20010904//EN"
 "http://www.w3.org/TR/2001/REC-SVG-20010904/DTD/svg10.dtd">
<svg version="1.0" xmlns="http://www.w3.org/2000/svg"
 width="421.000000pt" height="425.000000pt" viewBox="0 0 421.000000 425.000000"
 preserveAspectRatio="xMidYMid meet">
<metadata>
Created by potrace 1.16, written by Peter Selinger 2001-2019
</metadata>
<g transform="translate(0.000000,425.000000) scale(0.100000,-0.100000)"
fill="#ffffff" stroke="none">
<path d="M2950 3954 c-118 -32 -224 -122 -279 -238 -55 -115 -72 -196 -78
-371 -7 -194 8 -302 73 -538 24 -89 44 -167 44 -173 0 -7 -8 -22 -18 -34 -17
-21 -26 -22 -182 -25 -393 -8 -792 -140 -1228 -407 -121 -74 -288 -156 -492
-243 -113 -48 -209 -91 -214 -96 -10 -9 57 -29 101 -29 17 0 86 7 153 16 67 8
124 14 126 12 2 -3 -81 -46 -184 -97 -103 -51 -214 -109 -247 -128 -88 -53
-128 -93 -92 -93 32 -1 38 -16 20 -48 -30 -53 -15 -57 170 -55 89 2 192 6 228
11 l66 8 124 -61 c240 -119 479 -196 683 -220 55 -7 59 -9 72 -44 8 -20 21
-49 31 -66 43 -79 44 -83 44 -207 0 -79 -6 -144 -16 -182 -18 -69 -18 -70 75
-141 96 -74 106 -77 175 -53 33 12 97 23 143 26 69 4 82 7 82 22 0 20 40 40
80 40 17 0 30 4 30 8 0 31 -132 101 -240 127 -183 44 -181 42 -188 179 -6 120
2 158 40 202 38 42 84 67 166 88 34 9 68 19 75 22 10 4 17 -5 21 -31 4 -19 23
-76 42 -125 31 -80 34 -99 34 -189 0 -80 3 -103 17 -119 31 -36 232 -145 256
-139 12 3 54 15 92 27 39 11 94 21 123 21 28 1 52 5 52 10 0 5 -5 9 -11 9 -22
0 -2 24 29 34 17 6 32 16 33 21 0 6 -75 31 -168 56 -92 25 -193 53 -225 63
l-56 17 -12 83 c-11 71 -10 95 3 160 8 42 13 85 10 95 -4 15 5 22 49 36 77 25
299 138 398 202 343 224 506 471 487 736 -12 165 -61 285 -225 560 -186 309
-226 406 -227 547 0 133 28 170 151 195 36 8 96 31 133 51 64 36 70 37 181 41
183 5 320 32 320 62 0 26 -100 86 -251 151 -91 39 -112 52 -141 90 -86 114
-290 169 -458 124z"/>
</g>
</svg>
