<?xml version="1.0" encoding="UTF-8"?>
<!-- Generator: visioncortex VTracer 0.6.4 -->
<svg version="1.1" xmlns="http://www.w3.org/2000/svg" width="512" height="512">
<path d="M0 0 C0.87 -0.01 1.75 -0.02 2.64 -0.02 C8.8 -0.01 14.51 0.84 20.5 2.25 C20.5 2.91 20.5 3.57 20.5 4.25 C21.58 4.44 21.58 4.44 22.69 4.62 C25.48 5.25 27.91 6.03 30.5 7.25 C30.83 7.91 31.16 8.57 31.5 9.25 C33.21 10.24 34.92 11.22 36.65 12.17 C39.98 14.11 42.79 16.54 45.5 19.25 C45.5 20.24 45.5 21.23 45.5 22.25 C46.26 22.15 47.03 22.04 47.81 21.94 C48.7 22.04 49.59 22.14 50.5 22.25 C52.06 24.63 52.06 24.63 53.5 27.25 C55.57 28.58 55.57 28.58 57.5 29.25 C57.5 29.91 57.5 30.57 57.5 31.25 C58.09 31.43 58.68 31.61 59.29 31.8 C63.76 33.22 67.5 34.79 71.5 37.25 C74.14 38.34 76.81 39.29 79.5 40.25 C79.5 40.91 79.5 41.57 79.5 42.25 C80.22 42.37 80.94 42.5 81.69 42.62 C84.46 43.24 86.9 44.13 89.5 45.25 C89.5 45.91 89.5 46.57 89.5 47.25 C90.12 47.5 90.74 47.75 91.38 48 C93.94 49.51 94.54 50.46 95.5 53.25 C95.87 56.25 95.81 57.72 94.26 60.34 C92.13 62.65 91.08 62.92 88 63.38 C87.04 63.52 86.07 63.67 85.08 63.82 C79.83 64.45 74.58 65 69.31 65.47 C64.49 65.92 60.15 66.82 55.5 68.25 C53.11 68.81 50.71 69.36 48.31 69.88 C47.12 70.14 45.93 70.4 44.71 70.66 C41.5 71.25 41.5 71.25 37.5 71.25 C37.5 71.91 37.5 72.57 37.5 73.25 C36.9 73.36 36.3 73.47 35.68 73.59 C32.93 74.1 30.19 74.61 27.44 75.12 C26.49 75.3 25.55 75.47 24.58 75.65 C18.39 76.82 12.48 78.26 6.5 80.25 C6.83 80.91 7.16 81.57 7.5 82.25 C6.18 82.25 4.86 82.25 3.5 82.25 C2.35 86.81 2.35 91.2 2.38 95.88 C2.38 96.67 2.38 97.46 2.38 98.28 C2.42 104.31 2.76 110.26 3.5 116.25 C4.16 116.25 4.82 116.25 5.5 116.25 C5.74 117.17 5.98 118.09 6.23 119.03 C8.1 125.85 10.19 131.98 13.5 138.25 C14.25 141.25 14.25 141.25 14.5 143.25 C15.16 143.25 15.82 143.25 16.5 143.25 C17.82 145.83 19.13 148.41 20.44 151 C20.81 151.73 21.18 152.46 21.57 153.21 C22.1 154.27 22.1 154.27 22.65 155.36 C22.98 156.01 23.31 156.66 23.65 157.33 C24.51 159.28 25.04 161.17 25.5 163.25 C26.16 163.25 26.82 163.25 27.5 163.25 C28.49 166.22 29.48 169.19 30.5 172.25 C31.16 172.25 31.82 172.25 32.5 172.25 C32.76 173.32 32.76 173.32 33.02 174.4 C33.26 175.32 33.5 176.24 33.75 177.19 C33.98 178.1 34.21 179.02 34.45 179.96 C35.27 182.44 35.27 182.44 37.61 183.07 C38.23 183.13 38.86 183.19 39.5 183.25 C39.17 183.91 38.84 184.57 38.5 185.25 C39.05 187.38 39.05 187.38 39.94 189.69 C40.97 192.49 41.5 194.22 41.5 197.25 C42.16 197.25 42.82 197.25 43.5 197.25 C44.01 199.31 44.51 201.37 45 203.44 C45.42 205.16 45.42 205.16 45.84 206.92 C46.41 209.82 46.63 212.31 46.5 215.25 C47.82 215.58 49.14 215.91 50.5 216.25 C50.5 216.91 50.5 217.57 50.5 218.25 C49.84 218.25 49.18 218.25 48.5 218.25 C48.83 219.24 49.16 220.23 49.5 221.25 C49.6 223.38 49.63 225.51 49.63 227.64 C49.63 228.91 49.64 230.17 49.64 231.48 C49.63 232.14 49.63 232.8 49.63 233.48 C49.63 235.48 49.63 237.48 49.64 239.47 C49.63 241.38 49.63 241.38 49.63 243.33 C49.63 244.49 49.63 245.65 49.63 246.84 C49.5 250.37 49.06 253.76 48.5 257.25 C47.84 257.25 47.18 257.25 46.5 257.25 C46.46 257.81 46.43 258.36 46.39 258.94 C45.29 271.63 38.69 282.35 32.5 293.25 C31.84 293.25 31.18 293.25 30.5 293.25 C30.19 294.27 30.19 294.27 29.88 295.31 C26.26 303.04 19.06 309.03 12.5 314.25 C11.15 315.56 9.81 316.89 8.5 318.25 C5.49 321.26 2.43 322.76 -1.5 324.25 C-1.5 324.91 -1.5 325.57 -1.5 326.25 C-2.97 327.4 -2.97 327.4 -5 328.62 C-5.72 329.06 -6.45 329.5 -7.19 329.95 C-9.41 331.2 -11.65 332.33 -13.94 333.44 C-17.53 334.82 -17.53 334.82 -18.5 337.25 C-24.73 340.25 -24.73 340.25 -28.5 340.25 C-28.5 340.91 -28.5 341.57 -28.5 342.25 C-29.22 342.54 -29.93 342.83 -30.67 343.13 C-36.13 345.38 -41.5 347.72 -46.81 350.31 C-53.85 353.61 -60.96 355.46 -68.5 357.25 C-69.83 357.58 -71.17 357.91 -72.5 358.25 C-74.19 364.2 -74.86 369.7 -75.06 375.88 C-75.26 381.1 -75.62 386.09 -76.5 391.25 C-76.56 393.67 -76.56 393.67 -76.31 395.94 C-76.23 397.06 -76.23 397.06 -76.14 398.2 C-75.25 401.05 -74.07 401.78 -71.5 403.25 C-68.71 404.14 -68.71 404.14 -65.69 404.75 C-61 405.84 -56.92 407.35 -52.5 409.25 C-48.52 410.35 -44.52 411.32 -40.5 412.25 C-40.5 412.91 -40.5 413.57 -40.5 414.25 C-39.32 414.37 -38.15 414.5 -36.94 414.62 C-32.96 415.11 -29.32 416.06 -25.5 417.25 C-25.5 417.91 -25.5 418.57 -25.5 419.25 C-24.29 419.59 -24.29 419.59 -23.06 419.94 C-20.5 421.25 -20.5 421.25 -19.56 423.69 C-19.5 426.25 -19.5 426.25 -21.5 429.25 C-23.5 429.83 -23.5 429.83 -25.93 430.13 C-26.81 430.25 -27.69 430.36 -28.59 430.48 C-29.51 430.59 -30.43 430.7 -31.38 430.81 C-33.19 431.04 -35 431.27 -36.8 431.5 C-38.01 431.65 -38.01 431.65 -39.24 431.8 C-41.64 432.28 -43.41 432.98 -45.5 434.25 C-45.83 434.91 -46.16 435.57 -46.5 436.25 C-55.63 439.29 -65.47 436.47 -74.5 434.25 C-74.5 433.59 -74.5 432.93 -74.5 432.25 C-75.59 432.15 -76.69 432.04 -77.81 431.94 C-87.03 430.75 -100.81 428.26 -107.33 421.29 C-108.91 418.54 -108.71 416.36 -108.5 413.25 C-107.84 413.25 -107.18 413.25 -106.5 413.25 C-106.4 412.61 -106.29 411.97 -106.19 411.31 C-105.96 410.63 -105.73 409.95 -105.5 409.25 C-104.51 408.92 -103.52 408.59 -102.5 408.25 C-102.5 406.93 -102.5 405.61 -102.5 404.25 C-101.84 404.25 -101.18 404.25 -100.5 404.25 C-100.62 402.56 -100.74 400.87 -100.88 399.19 C-100.94 398.25 -101.01 397.31 -101.09 396.34 C-101.42 393.2 -101.42 393.2 -102.47 390.06 C-103.79 385.17 -104.2 380.36 -104.62 375.31 C-104.71 374.34 -104.8 373.37 -104.89 372.37 C-105.1 370 -105.3 367.62 -105.5 365.25 C-106.16 365.58 -106.82 365.91 -107.5 366.25 C-115.74 367.66 -124.17 367.35 -132.5 367.25 C-132.56 368.57 -132.62 369.88 -132.68 371.24 C-133.93 397.68 -133.93 397.68 -135.5 399.25 C-136.26 402.75 -136.41 405.77 -135.5 409.25 C-131.15 413.4 -125.26 415.73 -119.5 417.25 C-119.5 417.91 -119.5 418.57 -119.5 419.25 C-118.94 419.35 -118.39 419.45 -117.81 419.55 C-112.92 420.51 -108.88 421.88 -104.5 424.23 C-101.27 425.88 -97.91 427.03 -94.5 428.25 C-94.5 428.91 -94.5 429.57 -94.5 430.25 C-93.59 430.37 -92.69 430.5 -91.75 430.62 C-88.86 431.18 -86.94 431.68 -84.5 433.25 C-82.5 436.25 -82.5 436.25 -82.5 440.25 C-81.84 440.25 -81.18 440.25 -80.5 440.25 C-81.06 442.56 -81.06 442.56 -82.5 445.25 C-88.88 449.05 -95.18 448.6 -102.44 448.44 C-103.6 448.42 -104.76 448.41 -105.96 448.4 C-108.8 448.36 -111.65 448.31 -114.5 448.25 C-114.5 448.91 -114.5 449.57 -114.5 450.25 C-119.54 451.9 -124.11 452.61 -129.44 452.56 C-130.14 452.56 -130.85 452.55 -131.58 452.55 C-137 452.43 -140.67 451.62 -145.5 449.25 C-147.16 448.52 -148.83 447.79 -150.5 447.06 C-151.83 446.46 -153.17 445.86 -154.5 445.25 C-154.5 444.59 -154.5 443.93 -154.5 443.25 C-155.24 443 -155.99 442.75 -156.75 442.5 C-159.75 441.14 -161.38 439.75 -163.5 437.25 C-165.92 430 -165.14 421.36 -162.5 414.25 C-161.84 414.25 -161.18 414.25 -160.5 414.25 C-160.64 411.46 -160.79 408.67 -160.94 405.88 C-160.98 405.08 -161.02 404.29 -161.06 403.47 C-161.19 399.22 -161.19 399.22 -162.5 395.25 C-162.72 393.22 -162.89 391.19 -163.04 389.15 C-163.12 387.94 -163.21 386.73 -163.3 385.48 C-163.43 383.57 -163.43 383.57 -163.56 381.62 C-163.7 379.71 -163.7 379.71 -163.84 377.75 C-164.06 374.58 -164.28 371.42 -164.5 368.25 C-172.75 367.26 -181 366.27 -189.5 365.25 C-189.5 365.91 -189.5 366.57 -189.5 367.25 C-190.16 367.25 -190.82 367.25 -191.5 367.25 C-191.5 366.26 -191.5 365.27 -191.5 364.25 C-193.48 364.25 -195.46 364.25 -197.5 364.25 C-197.5 363.59 -197.5 362.93 -197.5 362.25 C-198.08 362.21 -198.67 362.18 -199.27 362.14 C-206.23 361.58 -212.76 360.09 -219.5 358.25 C-219.5 357.59 -219.5 356.93 -219.5 356.25 C-220.51 356.13 -221.52 356 -222.56 355.88 C-226.38 355.27 -229.82 354.38 -233.5 353.25 C-233.5 352.59 -233.5 351.93 -233.5 351.25 C-234.11 351.12 -234.73 350.98 -235.36 350.85 C-236.17 350.67 -236.98 350.49 -237.81 350.31 C-239.01 350.05 -239.01 350.05 -240.24 349.79 C-242.5 349.25 -242.5 349.25 -245.5 348.25 C-245.5 347.59 -245.5 346.93 -245.5 346.25 C-246.39 346.13 -247.27 346 -248.19 345.88 C-251.23 345.3 -253.65 344.39 -256.5 343.25 C-258.49 342.87 -260.49 342.53 -262.5 342.25 C-262.5 341.59 -262.5 340.93 -262.5 340.25 C-264.89 339.14 -264.89 339.14 -267.5 338.25 C-268.16 338.58 -268.82 338.91 -269.5 339.25 C-269.83 337.93 -270.16 336.61 -270.5 335.25 C-271.22 335.12 -271.93 334.98 -272.67 334.85 C-275.44 334.26 -278.1 333.52 -280.81 332.69 C-282.14 332.28 -282.14 332.28 -283.49 331.87 C-284.48 331.56 -284.48 331.56 -285.5 331.25 C-285.5 330.59 -285.5 329.93 -285.5 329.25 C-286.55 329.13 -287.6 329 -288.69 328.88 C-294.64 328.13 -300.57 327.18 -306.5 326.25 C-306.5 325.59 -306.5 324.93 -306.5 324.25 C-307.28 324.46 -307.28 324.46 -308.07 324.68 C-315.91 326.54 -323.7 326.59 -331.71 326.57 C-334.06 326.56 -336.41 326.59 -338.76 326.61 C-346.52 326.64 -353.25 326.36 -360.5 323.25 C-361.15 323.02 -361.8 322.8 -362.47 322.57 C-365.55 321.45 -367.38 320.4 -369.5 317.88 C-370.73 314.65 -370.75 313.46 -369.5 310.25 C-365.22 303.37 -356.41 297.49 -348.59 295.52 C-347.9 295.43 -347.21 295.34 -346.5 295.25 C-346.5 294.59 -346.5 293.93 -346.5 293.25 C-343.2 292.26 -339.9 291.27 -336.5 290.25 C-336.5 289.59 -336.5 288.93 -336.5 288.25 C-332.87 286.93 -329.24 285.61 -325.5 284.25 C-330.12 283.92 -334.74 283.59 -339.5 283.25 C-339.5 282.59 -339.5 281.93 -339.5 281.25 C-342.38 282.13 -342.38 282.13 -344.5 283.25 C-344.5 281.93 -344.5 280.61 -344.5 279.25 C-345.16 279.25 -345.82 279.25 -346.5 279.25 C-347.98 276.29 -347.56 273.51 -347.5 270.25 C-346.86 269.98 -346.22 269.71 -345.56 269.44 C-343.17 268.36 -343.17 268.36 -342.5 265.25 C-340.2 264.17 -337.87 263.17 -335.5 262.25 C-334.87 261.92 -334.24 261.6 -333.6 261.26 C-331.2 260.1 -328.81 259.37 -326.25 258.62 C-324.91 258.23 -324.91 258.23 -323.55 257.84 C-322.87 257.64 -322.2 257.45 -321.5 257.25 C-321.5 255.93 -321.5 254.61 -321.5 253.25 C-320.61 253.27 -319.73 253.29 -318.81 253.31 C-315.88 253.26 -313.35 252.92 -310.5 252.25 C-310.5 251.59 -310.5 250.93 -310.5 250.25 C-305.06 248.27 -305.06 248.27 -299.5 246.25 C-299.5 245.59 -299.5 244.93 -299.5 244.25 C-298.87 244.08 -298.24 243.91 -297.59 243.73 C-296.74 243.49 -295.88 243.25 -295 243 C-294.16 242.77 -293.33 242.54 -292.47 242.3 C-289.36 241.2 -286.54 239.83 -283.61 238.33 C-280.14 236.55 -276.6 234.91 -273.06 233.25 C-272.32 232.9 -271.58 232.56 -270.82 232.2 C-255.97 225.25 -255.97 225.25 -253.5 225.25 C-253.5 224.59 -253.5 223.93 -253.5 223.25 C-252.89 223.02 -252.29 222.79 -251.66 222.55 C-246.13 220.4 -240.87 217.99 -235.63 215.2 C-233.5 214.25 -233.5 214.25 -230.5 214.25 C-230.5 213.59 -230.5 212.93 -230.5 212.25 C-229.23 211.74 -227.96 211.25 -226.69 210.75 C-225.63 210.33 -225.63 210.33 -224.54 209.91 C-222.5 209.25 -222.5 209.25 -219.5 209.25 C-219.5 208.59 -219.5 207.93 -219.5 207.25 C-217.88 206.58 -216.25 205.91 -214.62 205.25 C-213.72 204.88 -212.82 204.51 -211.88 204.12 C-209.5 203.25 -209.5 203.25 -207.5 203.25 C-207.5 202.59 -207.5 201.93 -207.5 201.25 C-206.23 200.74 -204.96 200.25 -203.69 199.75 C-202.63 199.33 -202.63 199.33 -201.54 198.91 C-199.5 198.25 -199.5 198.25 -196.5 198.25 C-196.5 197.59 -196.5 196.93 -196.5 196.25 C-195.82 196.01 -195.14 195.77 -194.45 195.52 C-189.86 193.87 -185.31 192.19 -180.81 190.31 C-170.78 186.28 -160.4 182.54 -149.5 182.25 C-149.5 181.59 -149.5 180.93 -149.5 180.25 C-146.65 179.74 -143.79 179.24 -140.94 178.75 C-140.14 178.61 -139.34 178.46 -138.51 178.32 C-133.76 177.5 -129.32 177.09 -124.5 177.25 C-124.5 176.59 -124.5 175.93 -124.5 175.25 C-119.61 174.9 -114.71 174.57 -109.81 174.25 C-109.08 174.2 -108.34 174.15 -107.58 174.1 C-95.62 173.34 -83.74 173.08 -71.76 173.32 C-62.26 173.73 -62.26 173.73 -53.85 169.92 C-51.46 166.96 -52.02 163.2 -52.06 159.56 C-52.07 158.72 -52.07 157.87 -52.07 157 C-52.23 149.93 -53.6 143.58 -55.54 136.81 C-56.75 132.3 -57.28 127.9 -57.5 123.25 C-58.16 123.25 -58.82 123.25 -59.5 123.25 C-59.72 121.8 -59.72 121.8 -59.94 120.33 C-60.49 116.76 -61.03 113.2 -61.58 109.63 C-61.82 108.09 -62.05 106.54 -62.29 105 C-62.62 102.78 -62.97 100.56 -63.31 98.35 C-63.41 97.65 -63.52 96.96 -63.62 96.24 C-63.91 92.96 -63.91 92.96 -65.5 90.25 C-65.72 86.21 -65.69 82.16 -65.69 78.11 C-65.69 76.09 -65.71 74.06 -65.72 72.04 C-65.73 70.75 -65.73 69.47 -65.73 68.14 C-65.73 66.97 -65.74 65.79 -65.74 64.58 C-65.49 61.14 -64.7 58.47 -63.5 55.25 C-62.91 52.86 -62.33 50.46 -61.75 48.06 C-59.16 37.99 -54.48 30 -47.82 22.03 C-46.3 20.35 -46.3 20.35 -46.5 18.25 C-45.2 17.33 -43.88 16.44 -42.53 15.59 C-40.37 14.2 -40.37 14.2 -37.97 12.28 C-32.15 7.77 -27.84 5.21 -20.5 4.25 C-20.5 3.59 -20.5 2.93 -20.5 2.25 C-13.59 0.62 -7.09 -0.06 0 0 Z " fill="#D8D8D8" transform="translate(393.5,29.75)"/>
<path d="M0 0 C2.57 0.03 5.13 0.04 7.7 0.04 C11.77 0.05 15.83 0.08 19.9 0.14 C21.55 0.15 23.19 0.16 24.83 0.16 C37.54 0.14 46.18 1.95 55.77 10.97 C65.55 21.53 69.59 32.26 69.52 46.66 C69.52 47.41 69.52 48.16 69.53 48.94 C69.52 52.47 69.34 55.63 68.39 59.04 C67.73 59.04 67.07 59.04 66.39 59.04 C66.37 59.94 66.35 60.85 66.33 61.79 C64.79 72.2 56.41 80.79 49.39 88.04 C48.84 88.69 48.28 89.34 47.71 90.01 C36.48 102.61 16.94 113.23 0.39 116.04 C0.39 116.7 0.39 117.36 0.39 118.04 C-1.02 118.44 -1.02 118.44 -2.46 118.84 C-3.71 119.19 -4.95 119.55 -6.23 119.91 C-7.46 120.26 -8.69 120.61 -9.96 120.97 C-12.14 121.61 -14.32 122.28 -16.47 123.02 C-33.13 128.42 -50.65 130.5 -67.95 132.64 C-70.71 132.97 -70.71 132.97 -73.61 134.04 C-81.61 135.03 -89.64 135.21 -97.7 135.24 C-98.8 135.25 -99.91 135.25 -101.05 135.26 C-103.37 135.27 -105.69 135.27 -108.02 135.28 C-111.53 135.29 -115.05 135.32 -118.57 135.35 C-145.36 135.48 -145.36 135.48 -154.61 130.04 C-155.99 127.27 -155.8 125.1 -155.61 122.04 C-154.62 120.55 -154.62 120.55 -153.61 119.04 C-154.29 119.3 -154.96 119.57 -155.66 119.84 C-156.59 120.19 -157.52 120.55 -158.48 120.91 C-159.39 121.26 -160.29 121.61 -161.23 121.97 C-169.98 124.74 -178.33 125.38 -187.48 125.35 C-188.6 125.37 -189.71 125.38 -190.86 125.4 C-191.93 125.4 -193 125.4 -194.1 125.4 C-195.06 125.4 -196.03 125.41 -197.02 125.41 C-200.06 124.97 -201.42 124.16 -203.61 122.04 C-204.3 119.35 -204.3 119.35 -203.61 116.04 C-198.89 108.97 -191.64 102.72 -184.61 98.04 C-195.68 100.08 -195.68 100.08 -206.46 103.28 C-217.71 107.23 -229.66 109.52 -241.61 109.04 C-241.61 108.38 -241.61 107.72 -241.61 107.04 C-244.49 107.92 -244.49 107.92 -246.61 109.04 C-246.61 107.72 -246.61 106.4 -246.61 105.04 C-247.27 105.04 -247.93 105.04 -248.61 105.04 C-250.09 102.08 -249.67 99.29 -249.61 96.04 C-248.65 95.63 -248.65 95.63 -247.67 95.22 C-245.28 94.15 -245.28 94.15 -244.61 91.04 C-242.31 89.95 -239.97 88.96 -237.61 88.04 C-236.98 87.71 -236.35 87.38 -235.71 87.05 C-233.31 85.89 -230.92 85.15 -228.36 84.41 C-227.02 84.02 -227.02 84.02 -225.66 83.62 C-224.98 83.43 -224.3 83.24 -223.61 83.04 C-223.61 81.72 -223.61 80.4 -223.61 79.04 C-222.72 79.06 -221.83 79.08 -220.92 79.1 C-217.99 79.04 -215.45 78.71 -212.61 78.04 C-212.61 77.38 -212.61 76.72 -212.61 76.04 C-208.98 74.72 -205.35 73.4 -201.61 72.04 C-201.61 71.38 -201.61 70.72 -201.61 70.04 C-200.98 69.87 -200.35 69.7 -199.7 69.52 C-198.42 69.16 -198.42 69.16 -197.11 68.79 C-196.27 68.56 -195.44 68.32 -194.58 68.08 C-191.47 66.99 -188.65 65.62 -185.72 64.12 C-182.24 62.34 -178.71 60.7 -175.17 59.04 C-174.43 58.69 -173.69 58.34 -172.93 57.98 C-158.08 51.04 -158.08 51.04 -155.61 51.04 C-155.61 50.38 -155.61 49.72 -155.61 49.04 C-155 48.81 -154.4 48.58 -153.77 48.34 C-148.24 46.19 -142.98 43.78 -137.74 40.99 C-135.61 40.04 -135.61 40.04 -132.61 40.04 C-132.61 39.38 -132.61 38.72 -132.61 38.04 C-131.34 37.53 -130.07 37.03 -128.8 36.54 C-128.09 36.26 -127.38 35.98 -126.65 35.69 C-124.61 35.04 -124.61 35.04 -121.61 35.04 C-121.61 34.38 -121.61 33.72 -121.61 33.04 C-119.99 32.37 -118.36 31.7 -116.73 31.04 C-115.83 30.67 -114.92 30.29 -113.99 29.91 C-111.61 29.04 -111.61 29.04 -109.61 29.04 C-109.61 28.38 -109.61 27.72 -109.61 27.04 C-108.34 26.53 -107.07 26.03 -105.8 25.54 C-104.73 25.12 -104.73 25.12 -103.65 24.69 C-101.61 24.04 -101.61 24.04 -98.61 24.04 C-98.61 23.38 -98.61 22.72 -98.61 22.04 C-97.59 21.67 -97.59 21.67 -96.55 21.3 C-91.97 19.65 -87.42 17.98 -82.92 16.1 C-72.88 12.07 -62.51 8.33 -51.61 8.04 C-51.61 7.38 -51.61 6.72 -51.61 6.04 C-48.76 5.53 -45.9 5.03 -43.05 4.54 C-42.25 4.39 -41.45 4.25 -40.62 4.1 C-35.87 3.29 -31.43 2.88 -26.61 3.04 C-26.61 2.38 -26.61 1.72 -26.61 1.04 C-17.74 -0.08 -8.92 -0.13 0 0 Z " fill="#8D8D8D" transform="translate(295.6083984375,203.962890625)"/>
<path d="M0 0 C0.87 -0.01 1.75 -0.02 2.64 -0.02 C8.8 -0.01 14.51 0.84 20.5 2.25 C20.5 2.91 20.5 3.57 20.5 4.25 C21.22 4.37 21.94 4.5 22.69 4.62 C25.48 5.25 27.91 6.03 30.5 7.25 C31 8.24 31 8.24 31.5 9.25 C33.21 10.24 34.92 11.22 36.65 12.17 C39.98 14.11 42.79 16.54 45.5 19.25 C45.5 20.24 45.5 21.23 45.5 22.25 C46.26 22.15 47.03 22.04 47.81 21.94 C48.7 22.04 49.59 22.14 50.5 22.25 C52.06 24.62 52.06 24.62 53.5 27.25 C55.57 28.58 55.57 28.58 57.5 29.25 C57.5 29.91 57.5 30.57 57.5 31.25 C58.09 31.43 58.68 31.61 59.29 31.8 C63.76 33.22 67.5 34.79 71.5 37.25 C74.14 38.34 76.81 39.29 79.5 40.25 C79.5 40.91 79.5 41.57 79.5 42.25 C80.22 42.37 80.94 42.5 81.69 42.62 C84.46 43.24 86.9 44.13 89.5 45.25 C89.5 45.91 89.5 46.57 89.5 47.25 C90.43 47.62 90.43 47.62 91.38 48 C93.94 49.51 94.54 50.46 95.5 53.25 C95.87 56.25 95.81 57.72 94.26 60.34 C92.13 62.65 91.08 62.92 88 63.38 C87.04 63.52 86.07 63.67 85.08 63.82 C79.83 64.45 74.58 65 69.31 65.47 C64.49 65.92 60.15 66.82 55.5 68.25 C53.11 68.81 50.71 69.36 48.31 69.88 C47.12 70.14 45.93 70.4 44.71 70.66 C41.5 71.25 41.5 71.25 37.5 71.25 C37.5 71.91 37.5 72.57 37.5 73.25 C36.9 73.36 36.3 73.47 35.68 73.59 C32.93 74.1 30.19 74.61 27.44 75.12 C26.02 75.39 26.02 75.39 24.58 75.65 C18.39 76.82 12.48 78.26 6.5 80.25 C6.83 80.91 7.16 81.57 7.5 82.25 C6.18 82.25 4.86 82.25 3.5 82.25 C2.35 86.81 2.35 91.2 2.38 95.88 C2.38 96.67 2.38 97.46 2.38 98.28 C2.42 104.31 2.76 110.26 3.5 116.25 C4.16 116.25 4.82 116.25 5.5 116.25 C5.74 117.17 5.98 118.09 6.23 119.03 C8.1 125.85 10.19 131.98 13.5 138.25 C14.25 141.25 14.25 141.25 14.5 143.25 C15.16 143.25 15.82 143.25 16.5 143.25 C17.82 145.83 19.13 148.41 20.44 151 C20.81 151.73 21.18 152.46 21.57 153.21 C21.93 153.92 22.28 154.63 22.65 155.36 C22.98 156.01 23.31 156.66 23.65 157.33 C24.51 159.28 25.04 161.17 25.5 163.25 C26.16 163.25 26.82 163.25 27.5 163.25 C28.49 166.22 29.48 169.19 30.5 172.25 C31.16 172.25 31.82 172.25 32.5 172.25 C32.67 172.96 32.84 173.67 33.02 174.4 C33.26 175.32 33.5 176.24 33.75 177.19 C33.98 178.1 34.21 179.02 34.45 179.96 C35.27 182.44 35.27 182.44 37.61 183.07 C38.23 183.13 38.86 183.19 39.5 183.25 C39.17 183.91 38.84 184.57 38.5 185.25 C39.05 187.38 39.05 187.38 39.94 189.69 C40.97 192.49 41.5 194.22 41.5 197.25 C42.16 197.25 42.82 197.25 43.5 197.25 C44.01 199.31 44.51 201.37 45 203.44 C45.42 205.16 45.42 205.16 45.84 206.92 C46.41 209.82 46.63 212.31 46.5 215.25 C47.82 215.58 49.14 215.91 50.5 216.25 C50.5 216.91 50.5 217.57 50.5 218.25 C49.84 218.25 49.18 218.25 48.5 218.25 C48.83 219.24 49.16 220.23 49.5 221.25 C49.57 223.82 49.59 226.37 49.56 228.94 C49.56 229.64 49.55 230.34 49.55 231.06 C49.54 232.79 49.52 234.52 49.5 236.25 C33.36 240.74 12.12 236.95 -2.5 229.25 C-4.08 228.53 -5.66 227.82 -7.25 227.12 C-7.99 226.8 -8.72 226.47 -9.48 226.13 C-11.8 225.12 -14.14 224.16 -16.5 223.25 C-16.5 222.59 -16.5 221.93 -16.5 221.25 C-17.27 221.1 -17.27 221.1 -18.06 220.94 C-21.36 220.01 -24.37 218.64 -27.5 217.25 C-27.83 218.57 -28.16 219.89 -28.5 221.25 C-28.59 220.29 -28.67 219.34 -28.76 218.36 C-30.32 204.03 -35.08 192.83 -45.94 182.94 C-52.42 177.83 -58.14 175.65 -66.38 175.64 C-67.18 175.62 -67.99 175.61 -68.83 175.59 C-71.39 175.54 -73.94 175.52 -76.5 175.5 C-78.25 175.47 -79.99 175.44 -81.74 175.41 C-85.99 175.34 -90.25 175.29 -94.5 175.25 C-90.9 172.85 -89.37 173.04 -85.11 173.12 C-83.84 173.14 -82.58 173.16 -81.27 173.17 C-79.93 173.2 -78.59 173.22 -77.25 173.25 C-74.64 173.3 -72.03 173.34 -69.42 173.38 C-68.26 173.4 -67.1 173.42 -65.91 173.45 C-61.4 173.19 -57.31 172.56 -53.59 169.87 C-51.55 166.84 -52.02 163.1 -52.06 159.56 C-52.07 158.72 -52.07 157.87 -52.07 157 C-52.23 149.93 -53.6 143.58 -55.54 136.81 C-56.75 132.3 -57.28 127.9 -57.5 123.25 C-58.16 123.25 -58.82 123.25 -59.5 123.25 C-59.65 122.29 -59.79 121.32 -59.94 120.33 C-60.49 116.76 -61.03 113.2 -61.58 109.63 C-61.82 108.09 -62.05 106.54 -62.29 105 C-62.62 102.78 -62.97 100.56 -63.31 98.35 C-63.41 97.65 -63.52 96.96 -63.62 96.24 C-63.91 92.96 -63.91 92.96 -65.5 90.25 C-65.72 86.21 -65.69 82.16 -65.69 78.11 C-65.69 76.09 -65.71 74.06 -65.72 72.04 C-65.73 70.75 -65.73 69.47 -65.73 68.14 C-65.73 66.97 -65.74 65.79 -65.74 64.58 C-65.49 61.14 -64.7 58.47 -63.5 55.25 C-62.91 52.86 -62.33 50.46 -61.75 48.06 C-59.16 37.99 -54.48 30 -47.82 22.03 C-46.3 20.35 -46.3 20.35 -46.5 18.25 C-45.2 17.33 -43.88 16.44 -42.53 15.59 C-40.37 14.2 -40.37 14.2 -37.97 12.28 C-32.15 7.77 -27.84 5.21 -20.5 4.25 C-20.5 3.59 -20.5 2.93 -20.5 2.25 C-13.59 0.62 -7.09 -0.06 0 0 Z " fill="#B2B2B2" transform="translate(393.5,29.75)"/>
<path d="M0 0 C0.06 1.21 0.06 1.21 0.11 2.45 C0.18 3.52 0.24 4.59 0.31 5.69 C0.37 6.74 0.43 7.8 0.49 8.89 C1.28 13.71 3.07 16.24 6.81 19.31 C12.31 22.22 18.98 21.61 25 21 C26.68 20.37 28.35 19.71 30 19 C30.99 19 31.98 19 33 19 C33 19.66 33 20.32 33 21 C31.39 22.15 31.39 22.15 29.25 23.38 C24.56 26.07 24.56 26.07 21 30 C20.68 33.36 20.77 36.64 21 40 C21.66 40 22.32 40 23 40 C23 40.66 23 41.32 23 42 C30 44.9 36.23 45.43 43.75 45.31 C44.76 45.32 45.78 45.32 46.82 45.32 C51.82 45.29 55.36 44.92 60 43 C62.31 43.38 62.31 43.38 64 44 C63.35 44.57 62.7 45.14 62.02 45.72 C52.22 53.36 52.22 53.36 47.06 64.06 C47.29 66.8 47.78 67.78 49.71 69.77 C59.23 76.63 69.88 76.35 81.13 76.32 C83.47 76.31 85.81 76.34 88.15 76.36 C119.63 76.49 155.76 65.61 178.85 43.24 C180.97 40.87 182.99 38.46 185 36 C185.99 34.99 186.98 33.98 188 33 C186.69 38.08 184.4 41.25 180.81 44.94 C180.36 45.42 179.9 45.91 179.43 46.41 C178.47 47.42 177.51 48.42 176.54 49.42 C175.48 50.51 174.43 51.61 173.4 52.72 C169.01 57.34 164.28 60.74 158.88 64.06 C158.04 64.58 157.21 65.1 156.35 65.63 C147.03 71.33 137.88 76.16 127 78 C127 78.66 127 79.32 127 80 C125.59 80.4 125.59 80.4 124.15 80.8 C122.9 81.16 121.66 81.51 120.38 81.88 C119.15 82.22 117.92 82.57 116.65 82.93 C114.46 83.57 112.29 84.24 110.14 84.98 C93.48 90.38 75.96 92.47 58.65 94.6 C55.9 94.94 55.9 94.94 53 96 C45 96.99 36.96 97.17 28.91 97.2 C27.25 97.21 27.25 97.21 25.56 97.22 C23.24 97.23 20.91 97.24 18.59 97.24 C15.07 97.25 11.56 97.28 8.04 97.31 C-18.75 97.44 -18.75 97.44 -28 92 C-29.39 89.23 -29.19 87.07 -29 84 C-28.01 82.51 -28.01 82.51 -27 81 C-27.68 81.27 -28.36 81.53 -29.05 81.8 C-29.99 82.16 -30.92 82.51 -31.88 82.88 C-32.78 83.22 -33.68 83.57 -34.62 83.93 C-43.37 86.7 -51.72 87.34 -60.88 87.31 C-61.99 87.33 -63.1 87.34 -64.25 87.36 C-65.32 87.36 -66.39 87.36 -67.49 87.36 C-68.45 87.37 -69.42 87.37 -70.41 87.37 C-73.45 86.94 -74.81 86.12 -77 84 C-77.69 81.31 -77.69 81.31 -77 78 C-72.29 70.93 -65.03 64.69 -58 60 C-69.07 62.05 -69.07 62.05 -79.85 65.25 C-91.11 69.19 -103.05 71.48 -115 71 C-115 70.34 -115 69.68 -115 69 C-117.88 69.88 -117.88 69.88 -120 71 C-120 69.68 -120 68.36 -120 67 C-120.66 67 -121.32 67 -122 67 C-123.48 64.04 -123.06 61.26 -123 58 C-122.36 57.73 -121.72 57.46 -121.06 57.19 C-118.67 56.11 -118.67 56.11 -118 53 C-115.7 51.92 -113.37 50.92 -111 50 C-110.06 49.51 -110.06 49.51 -109.1 49.01 C-106.7 47.85 -104.31 47.12 -101.75 46.38 C-100.41 45.98 -100.41 45.98 -99.05 45.59 C-98.37 45.39 -97.7 45.2 -97 45 C-97 43.68 -97 42.36 -97 41 C-96.11 41.02 -95.23 41.04 -94.31 41.06 C-91.38 41.01 -88.85 40.67 -86 40 C-86 39.34 -86 38.68 -86 38 C-82.37 36.68 -78.74 35.36 -75 34 C-75 33.34 -75 32.68 -75 32 C-74.37 31.83 -73.74 31.66 -73.09 31.48 C-72.24 31.24 -71.38 31 -70.5 30.75 C-69.66 30.52 -68.83 30.29 -67.97 30.05 C-64.86 28.95 -62.04 27.58 -59.11 26.08 C-55.64 24.3 -52.1 22.66 -48.56 21 C-47.82 20.65 -47.08 20.31 -46.32 19.95 C-31.47 13 -31.47 13 -29 13 C-29 12.34 -29 11.68 -29 11 C-28.39 10.77 -27.79 10.54 -27.16 10.3 C-21.63 8.15 -16.37 5.74 -11.13 2.95 C-9 2 -9 2 -6 2 C-6 1.34 -6 0.68 -6 0 C-3 -1 -3 -1 0 0 Z " fill="#626262" transform="translate(169,242)"/>
<path d="M0 0 C3.32 4.39 2.65 7.84 2.16 13.14 C2.09 14.08 2.02 15.02 1.95 15.98 C1.75 18.66 1.52 21.34 1.28 24.02 C1.19 25.27 1.1 26.52 1.01 27.81 C0.47 34.83 0.47 34.83 -0.72 36.02 C-1.48 39.52 -1.63 42.54 -0.72 46.02 C3.63 50.17 9.52 52.5 15.28 54.02 C15.28 54.68 15.28 55.34 15.28 56.02 C15.84 56.12 16.39 56.22 16.97 56.32 C21.86 57.27 25.9 58.65 30.29 61 C33.51 62.65 36.87 63.8 40.28 65.02 C40.28 65.68 40.28 66.34 40.28 67.02 C41.64 67.21 41.64 67.21 43.03 67.39 C45.92 67.95 47.84 68.45 50.28 70.02 C52.28 73.02 52.28 73.02 52.28 77.02 C52.94 77.02 53.6 77.02 54.28 77.02 C53.72 79.33 53.72 79.33 52.28 82.02 C45.9 85.82 39.6 85.37 32.34 85.21 C30.6 85.19 30.6 85.19 28.83 85.17 C25.98 85.13 23.13 85.08 20.28 85.02 C20.28 85.68 20.28 86.34 20.28 87.02 C15.24 88.67 10.67 89.38 5.34 89.33 C4.64 89.33 3.93 89.32 3.2 89.32 C-2.22 89.2 -5.89 88.39 -10.72 86.02 C-12.38 85.29 -14.05 84.56 -15.72 83.83 C-17.05 83.23 -18.39 82.63 -19.72 82.02 C-19.72 81.36 -19.72 80.7 -19.72 80.02 C-20.83 79.65 -20.83 79.65 -21.97 79.27 C-24.97 77.91 -26.6 76.52 -28.72 74.02 C-31.14 66.77 -30.36 58.13 -27.72 51.02 C-27.06 51.02 -26.4 51.02 -25.72 51.02 C-25.86 48.23 -26.01 45.44 -26.16 42.64 C-26.2 41.85 -26.23 41.06 -26.28 40.24 C-26.41 35.99 -26.41 35.99 -27.72 32.02 C-29.28 21.24 -29.53 10.57 -26.72 0.02 C-26.06 0.02 -25.4 0.02 -24.72 0.02 C-24.72 -0.64 -24.72 -1.3 -24.72 -1.98 C-16.64 -7.37 -7.53 -5.49 0 0 Z " fill="#F67F1C" transform="translate(258.71875,392.98046875)"/>
<path d="M0 0 C-0.14 4.21 -0.29 8.42 -0.44 12.62 C-0.48 13.81 -0.52 15 -0.56 16.23 C-0.62 17.96 -0.62 17.96 -0.68 19.73 C-0.74 21.31 -0.74 21.31 -0.79 22.93 C-1 26.01 -1.47 28.96 -2 32 C-2.06 34.42 -2.06 34.42 -1.81 36.69 C-1.76 37.43 -1.7 38.18 -1.64 38.95 C-0.75 41.8 0.43 42.53 3 44 C5.79 44.89 5.79 44.89 8.81 45.5 C13.5 46.59 17.58 48.1 22 50 C25.98 51.1 29.98 52.07 34 53 C34 53.66 34 54.32 34 55 C35.76 55.19 35.76 55.19 37.56 55.38 C41.54 55.86 45.18 56.81 49 58 C49 58.66 49 59.32 49 60 C49.8 60.23 50.61 60.45 51.44 60.69 C54 62 54 62 54.94 64.44 C55 67 55 67 53 70 C51 70.58 51 70.58 48.57 70.88 C47.69 71 46.81 71.11 45.91 71.23 C44.99 71.34 44.07 71.45 43.12 71.56 C41.31 71.79 39.5 72.02 37.7 72.25 C36.89 72.35 36.09 72.45 35.26 72.55 C32.86 73.03 31.09 73.73 29 75 C28.67 75.66 28.34 76.32 28 77 C18.87 80.04 9.03 77.22 0 75 C0 74.34 0 73.68 0 73 C-1.09 72.9 -2.19 72.79 -3.31 72.69 C-12.53 71.5 -26.31 69.01 -32.83 62.04 C-34.41 59.29 -34.21 57.11 -34 54 C-33.34 54 -32.68 54 -32 54 C-31.9 53.36 -31.79 52.72 -31.69 52.06 C-31.46 51.38 -31.23 50.7 -31 50 C-29.51 49.5 -29.51 49.5 -28 49 C-28 47.68 -28 46.36 -28 45 C-27.34 45 -26.68 45 -26 45 C-26.43 38.71 -27.2 33.06 -29 27 C-30.38 19.41 -30.1 11.69 -30 4 C-28.95 3.81 -27.9 3.61 -26.82 3.41 C-25.4 3.15 -23.98 2.89 -22.56 2.62 C-21.83 2.49 -21.1 2.35 -20.34 2.22 C-16.47 1.49 -12.64 0.7 -8.81 -0.25 C-5.2 -0.96 -3.47 -0.84 0 0 Z " fill="#D25B16" transform="translate(319,389)"/>
<path d="M0 0 C1.32 0 2.64 0 4 0 C4 0.66 4 1.32 4 2 C4.87 1.92 5.73 1.84 6.62 1.75 C10.79 2.06 12.79 3.4 16 6 C16 6.66 16 7.32 16 8 C16.59 8.18 17.18 8.36 17.79 8.55 C22.26 9.97 26 11.54 30 14 C32.64 15.09 35.31 16.04 38 17 C38 17.66 38 18.32 38 19 C38.72 19.12 39.44 19.25 40.19 19.38 C42.96 19.99 45.4 20.88 48 22 C48 22.66 48 23.32 48 24 C48.62 24.25 49.24 24.5 49.88 24.75 C52.44 26.26 53.04 27.21 54 30 C54.37 33 54.31 34.47 52.76 37.09 C50.63 39.4 49.58 39.67 46.5 40.12 C45.54 40.27 44.57 40.42 43.58 40.57 C38.33 41.2 33.08 41.75 27.81 42.22 C22.97 42.67 18.64 43.54 14 45 C8.66 46.19 3.44 46.1 -2 46 C-4.16 40.95 -5.13 36.43 -5.13 30.95 C-5.13 30 -5.14 29.06 -5.14 28.08 C-5.13 27.11 -5.13 26.13 -5.12 25.12 C-5.13 24.16 -5.13 23.19 -5.14 22.19 C-5.13 17.04 -5.09 12.05 -4 7 C-3.34 6.67 -2.68 6.34 -2 6 C-1.27 4.02 -0.6 2.02 0 0 Z " fill="#F57D1B" transform="translate(435,53)"/>
<path d="M0 0 C1 3 1 3 0.88 6.06 C0.92 7.03 0.96 8 1 9 C4.59 11.4 7.15 11.26 11.29 11.2 C12 11.19 12.71 11.19 13.43 11.19 C15.68 11.18 17.94 11.15 20.19 11.12 C21.72 11.11 23.24 11.11 24.77 11.1 C28.51 11.08 32.26 11.04 36 11 C33 13 33 13 31 13.94 C28.98 14.86 28.98 14.86 27.81 16.38 C25.23 18.69 22.27 19.75 19.06 20.94 C18.37 21.2 17.68 21.45 16.96 21.72 C0.36 27.62 -24.65 33.36 -42 27.81 C-45 26 -45 26 -46.31 23.69 C-45.83 19.57 -43.91 17.91 -41 15 C-40.34 15 -39.68 15 -39 15 C-39 14.34 -39 13.68 -39 13 C-27.44 7.57 -15.6 4.8 -3 3 C-2.01 2.67 -1.02 2.34 0 2 C0 1.34 0 0.68 0 0 Z " fill="#E9EAEA" transform="translate(92,317)"/>
<path d="M0 0 C3 0 3 0 5.06 1.94 C5.7 2.62 6.34 3.3 7 4 C11.45 6.23 17.29 5.76 22.19 6.12 C24.02 6.27 24.02 6.27 25.88 6.43 C34.26 7.05 41.3 6.54 49.44 4.44 C51.01 4.03 51.01 4.03 52.62 3.62 C53.41 3.42 54.19 3.21 55 3 C55 3.99 55 4.98 55 6 C52.58 6.65 50.17 7.29 47.75 7.94 C47.07 8.12 46.39 8.3 45.68 8.49 C40.13 9.97 40.13 9.97 37.58 10.5 C37.06 10.67 36.54 10.83 36 11 C35.67 11.66 35.34 12.32 35 13 C34.19 12.8 33.39 12.59 32.56 12.38 C28.03 11.9 24.43 12.82 20.06 13.94 C14.56 15.33 9.69 16.25 4 16 C4 17.65 4 19.3 4 21 C3.67 20.01 3.34 19.02 3 18 C2.34 18.33 1.68 18.66 1 19 C-4.91 20.01 -10.96 20.17 -16.94 20.31 C-18.84 20.37 -18.84 20.37 -20.78 20.43 C-24 20 -24 20 -25.94 17.98 C-26.29 17.33 -26.64 16.67 -27 16 C-26.43 15.88 -25.86 15.76 -25.28 15.63 C-23.66 15.28 -22.05 14.92 -20.43 14.55 C-18.47 14.1 -16.48 13.73 -14.5 13.38 C-8.92 11.18 -3.7 7.04 -0.74 1.74 C-0.49 1.17 -0.25 0.59 0 0 Z " fill="#C7C5C2" transform="translate(285,377)"/>
<path d="M0 0 C12.03 1.16 24.02 2.43 36 4 C28.86 11.14 15.82 12.1 6.25 12.12 C4.83 12.09 3.42 12.06 2 12 C-0.01 7.86 -0.09 4.56 0 0 Z " fill="#D5601B" transform="translate(431,87)"/>
<path d="M0 0 C0.66 0 1.32 0 2 0 C0.12 5.75 0.12 5.75 -1 8 C-1.66 8 -2.32 8 -3 8 C-3.21 8.68 -3.41 9.36 -3.62 10.06 C-7.24 17.79 -14.44 23.78 -21 29 C-22.35 30.31 -23.69 31.64 -25 33 C-28.01 36.01 -31.07 37.51 -35 39 C-35 39.66 -35 40.32 -35 41 C-36.47 42.15 -36.47 42.15 -38.5 43.38 C-39.22 43.81 -39.95 44.25 -40.69 44.7 C-42.91 45.95 -45.15 47.08 -47.44 48.19 C-51.03 49.57 -51.03 49.57 -52 52 C-58.23 55 -58.23 55 -62 55 C-62 55.66 -62 56.32 -62 57 C-62.8 57.33 -63.59 57.65 -64.41 57.99 C-71.06 60.71 -71.06 60.71 -77.5 63.88 C-80 65 -80 65 -82.38 64.69 C-82.91 64.46 -83.45 64.23 -84 64 C-79.91 61.39 -75.7 59.5 -71.25 57.62 C-65.29 55.06 -59.58 52.32 -54 49 C-53 48.42 -52 47.84 -50.97 47.24 C-47.97 45.5 -44.98 43.76 -42 42 C-40.65 41.21 -40.65 41.21 -39.27 40.41 C-36.91 39.07 -36.91 39.07 -35 37 C-32.83 34.83 -30.64 33.55 -28 32 C-17.37 24.03 -7.98 13.47 -1.34 1.98 C-0.9 1.33 -0.46 0.67 0 0 Z " fill="#CDCDCC" transform="translate(427,315)"/>
<path d="M0 0 C0.5 0.99 0.5 0.99 1 2 C-8.46 19.03 -28.13 35.55 -47 41 C-48.32 40.67 -49.64 40.34 -51 40 C-47.04 38.02 -43.08 36.04 -39 34 C-40.32 33.67 -41.64 33.34 -43 33 C-39.28 30.17 -35.73 27.79 -31.5 25.81 C-18.82 19.62 -7.9 11.86 0 0 Z " fill="#5F5F5F" transform="translate(356,275)"/>
<path d="M0 0 C3.44 1 3.44 1 5.44 2.62 C6.91 6.12 6.42 8.39 5.44 12 C3.75 14 3.75 14 1.44 15 C-1.67 14.87 -3.76 14.48 -6.44 12.88 C-8.26 9.83 -7.99 7.46 -7.56 4 C-5.3 0.38 -4.29 0 0 0 Z " fill="#383A39" transform="translate(409.5625,54)"/>
<path d="M0 0 C1.32 0 2.64 0 4 0 C4.18 14.78 4.18 14.78 3 21 C2.34 21 1.68 21 1 21 C0.96 21.56 0.93 22.11 0.89 22.69 C0.09 31.92 -3.29 40.03 -8 48 C-8.99 48.5 -8.99 48.5 -10 49 C-9.4 45.27 -8.31 42.32 -6.62 38.94 C-4.23 33.84 -2.79 28.83 -1.58 23.34 C-1 21 -1 21 0 20 C0.23 18.59 0.39 17.17 0.54 15.75 C0.67 14.47 0.67 14.47 0.8 13.16 C0.93 11.81 0.93 11.81 1.06 10.44 C1.15 9.54 1.24 8.63 1.34 7.71 C1.56 5.47 1.78 3.24 2 1 C1.34 0.67 0.68 0.34 0 0 Z " fill="#CDCECE" transform="translate(439,266)"/>
<path d="M0 0 C-4.78 3.9 -6.8 5.13 -13 5 C-13 5.66 -13 6.32 -13 7 C-14.96 8.39 -16.96 9.73 -19 11 C-18.3 14.61 -18.3 14.61 -17.25 18.12 C-17.13 19.05 -17.13 19.05 -17 20 C-18.44 21.75 -18.44 21.75 -20 23 C-20 21.68 -20 20.36 -20 19 C-20.66 19 -21.32 19 -22 19 C-23.48 16.04 -23.06 13.26 -23 10 C-22.04 9.6 -22.04 9.6 -21.06 9.19 C-18.67 8.11 -18.67 8.11 -18 5 C-15.7 3.92 -13.37 2.92 -11 2 C-9.66 1.35 -8.32 0.69 -7 0 C-4.33 -1.33 -2.83 -0.67 0 0 Z " fill="#6E6F6F" transform="translate(69,290)"/>
<path d="M0 0 C0.66 0 1.32 0 2 0 C1.86 1.94 1.71 3.88 1.56 5.81 C1.48 6.89 1.4 7.97 1.32 9.08 C1 12 1 12 0 15 C-0.1 17.51 -0.14 19.99 -0.12 22.5 C-0.12 23.21 -0.12 23.92 -0.12 24.65 C-0.07 30.47 0.31 36.22 1 42 C0.01 42.5 0.01 42.5 -1 43 C-3.92 36.78 -3.33 30.49 -3.31 23.75 C-3.34 21.82 -3.34 21.82 -3.36 19.86 C-3.37 12.56 -2.79 6.75 0 0 Z " fill="#A8A8A7" transform="translate(331,82)"/>
<path d="M0 0 C0.82 0 1.64 0 2.49 0.01 C11.47 0.07 20.42 0.56 29.38 1.12 C29.38 1.46 29.38 1.78 29.38 2.12 C28.54 2.15 27.7 2.18 26.84 2.2 C23.73 2.3 20.63 2.4 17.52 2.5 C15.52 2.56 13.51 2.62 11.5 2.68 C9.62 2.74 9.62 2.74 7.7 2.81 C6.53 2.85 5.37 2.88 4.17 2.92 C1.42 2.94 1.42 2.94 -0.62 4.12 C-3 4.2 -5.38 4.21 -7.75 4.19 C-9.03 4.18 -10.31 4.17 -11.63 4.16 C-13.11 4.14 -13.11 4.14 -14.62 4.12 C-14.3 3.13 -13.96 2.15 -13.62 1.12 C-9.09 -0.01 -4.64 -0.03 0 0 Z " fill="#8B8B8B" transform="translate(288.625,203.875)"/>
<path d="M0 0 C0.66 0.33 1.32 0.66 2 1 C-3.53 5.19 -9.21 8.83 -15.38 12 C-17.12 12.9 -17.12 12.9 -18.9 13.81 C-22 15 -22 15 -26 14 C-22.04 12.02 -18.08 10.04 -14 8 C-15.32 7.67 -16.64 7.34 -18 7 C-14.67 3.67 -11.64 3.66 -7.19 3.32 C-4.32 2.9 -2.38 1.59 0 0 Z " fill="#555555" transform="translate(331,301)"/>
<path d="M0 0 C2.28 2.13 3.9 4.26 5.5 6.94 C6.86 9.21 8.09 11.09 9.88 13.06 C11.65 16.12 10.7 18.67 10 22 C9.01 22 8.02 22 7 22 C6.02 19.27 5.04 16.54 4.06 13.81 C3.78 13.04 3.51 12.27 3.22 11.48 C1.86 7.68 0.63 4.01 0 0 Z " fill="#BDBEBD" transform="translate(223,370)"/>
<path d="M0 0 C0 0.66 0 1.32 0 2 C-1.69 3.26 -1.69 3.26 -4 4.69 C-8.16 7.35 -11.76 10.31 -15.37 13.68 C-17 15 -17 15 -19 15 C-20.6 18.51 -21.22 21.14 -21 25 C-21.99 25 -22.98 25 -24 25 C-24.54 21.89 -24.51 19.79 -22.76 17.1 C-8.09 0 -8.09 0 0 0 Z " fill="#525252" transform="translate(116,301)"/>
<path d="M0 0 C12.03 1.16 24.02 2.43 36 4 C34 6 34 6 31.87 6.23 C31.07 6.22 30.26 6.2 29.44 6.19 C28.63 6.18 27.83 6.17 27 6.17 C25 6 25 6 24 5 C20.91 4.59 17.8 4.48 14.69 4.31 C13.82 4.25 12.95 4.19 12.06 4.13 C11.22 4.08 10.38 4.04 9.51 3.99 C8.74 3.94 7.97 3.9 7.18 3.85 C4.69 4.02 3.14 4.76 1 6 C0.67 4.02 0.34 2.04 0 0 Z " fill="#D55708" transform="translate(431,87)"/>
<path d="M0 0 C1.91 1.89 3.4 3.82 5 6 C2.79 4.93 0.78 3.85 -1.24 2.45 C-4.55 0.71 -6.78 0.6 -10.5 0.62 C-12.16 0.61 -12.16 0.61 -13.84 0.6 C-17.31 1.04 -19.21 1.93 -22 4 C-22.33 4.66 -22.66 5.32 -23 6 C-23.66 6 -24.32 6 -25 6 C-24.67 4.68 -24.34 3.36 -24 2 C-23.34 2 -22.68 2 -22 2 C-22 1.34 -22 0.68 -22 0 C-15.09 -4.61 -7.11 -3.95 0 0 Z " fill="#D97F3C" transform="translate(256,391)"/>
<path d="M0 0 C0 0.99 0 1.98 0 3 C-1.65 3 -3.3 3 -5 3 C-5 2.34 -5 1.68 -5 1 C-6.97 1.03 -6.97 1.03 -9 2 C-10.3 5 -10.3 5 -11 8 C-11.66 8 -12.32 8 -13 8 C-13.33 16.91 -13.66 25.82 -14 35 C-14.33 35 -14.66 35 -15 35 C-15.2 31.69 -15.38 28.38 -15.56 25.06 C-15.62 24.12 -15.67 23.17 -15.73 22.2 C-15.78 21.3 -15.83 20.4 -15.88 19.47 C-15.93 18.64 -15.97 17.81 -16.02 16.95 C-16 15 -16 15 -15 14 C-14.72 11.68 -14.55 9.36 -14.38 7.03 C-14.19 6.03 -14.19 6.03 -14 5 C-13.34 4.67 -12.68 4.34 -12 4 C-11.67 3.34 -11.34 2.68 -11 2 C-8.71 -2.58 -4.28 -0.62 0 0 Z " fill="#CDA27B" transform="translate(444,52)"/>
<path d="M0 0 C5.28 0.33 10.56 0.66 16 1 C16 1.66 16 2.32 16 3 C19.63 2.67 23.26 2.34 27 2 C27 4.31 27 6.62 27 9 C26.34 8.67 25.68 8.34 25 8 C25 7.01 25 6.02 25 5 C12.62 3.51 12.62 3.51 0 2 C0 2.66 0 3.32 0 4 C-0.66 4 -1.32 4 -2 4 C-1.34 2.68 -0.68 1.36 0 0 Z " fill="#D3C7BA" transform="translate(204,393)"/>
<path d="M0 0 C0 0.66 0 1.32 0 2 C-2.62 3.34 -5.25 4.67 -7.88 6 C-8.99 6.57 -8.99 6.57 -10.14 7.16 C-10.85 7.52 -11.57 7.88 -12.3 8.25 C-12.96 8.59 -13.62 8.92 -14.3 9.27 C-16 10 -16 10 -18 10 C-18.33 10.99 -18.66 11.98 -19 13 C-19.33 11.02 -19.66 9.04 -20 7 C-18.02 6.67 -16.04 6.34 -14 6 C-14 5.34 -14 4.68 -14 4 C-12.42 3.32 -10.84 2.66 -9.25 2 C-8.37 1.63 -7.49 1.26 -6.58 0.88 C-4 0 -4 0 0 0 Z " fill="#7D7D7D" transform="translate(188,233)"/>
<path d="M0 0 C0.66 0 1.32 0 2 0 C2.97 2.62 3.14 3.68 2.04 6.3 C0.91 9.24 0.76 11.36 0.81 14.5 C0.82 15.42 0.83 16.34 0.83 17.28 C1 19.94 1.41 22.41 2 25 C-1 23 -1 23 -2 20 C-2.4 13.05 -2.44 6.57 0 0 Z " fill="#ED8B24" transform="translate(231,444)"/>
<path d="M0 0 C0.33 0 0.66 0 1 0 C1.04 1.17 1.07 2.34 1.11 3.55 C1.46 12.39 2.05 20.57 5 29 C6.98 29.33 8.96 29.66 11 30 C8.24 31.8 7.11 32.01 3.75 31.62 C2.84 31.42 1.94 31.21 1 31 C1.33 30.34 1.66 29.68 2 29 C1.68 27.13 1.68 27.13 1.07 25.04 C-0.18 19.79 -0.23 14.81 -0.12 9.44 C-0.12 8.52 -0.11 7.61 -0.1 6.67 C-0.07 4.45 -0.04 2.22 0 0 Z " fill="#C9AC98" transform="translate(428,69)"/>
<path d="M0 0 C0.79 0.01 1.58 0.02 2.39 0.03 C3.28 0.04 3.28 0.04 4.19 0.06 C-4.92 6.14 -19.28 4.28 -29.81 4.06 C-29.81 3.73 -29.81 3.4 -29.81 3.06 C-29.23 3.01 -28.65 2.95 -28.06 2.89 C-25.41 2.64 -22.77 2.38 -20.12 2.12 C-19.21 2.04 -18.3 1.95 -17.36 1.86 C-16.03 1.73 -16.03 1.73 -14.68 1.6 C-13.86 1.52 -13.05 1.44 -12.22 1.36 C-1.09 -0.02 -1.09 -0.02 0 0 Z " fill="#5B5B5B" transform="translate(275.8125,317.9375)"/>
<path d="M0 0 C1.32 0 2.64 0 4 0 C4.18 14.78 4.18 14.78 3 21 C2.34 21 1.68 21 1 21 C0.67 22.32 0.34 23.64 0 25 C0.67 17 1.33 9 2 1 C1.34 0.67 0.68 0.34 0 0 Z " fill="#C4C5C3" transform="translate(439,266)"/>
<path d="M0 0 C0.99 0 1.98 0 3 0 C2.79 1.07 2.59 2.14 2.38 3.25 C1.99 7.13 2.33 7.77 4 11 C3.12 13.25 3.12 13.25 2 15 C1.67 13.68 1.34 12.36 1 11 C0.34 11 -0.32 11 -1 11 C-2.51 7.99 -2.18 5.32 -2 2 C-1.34 1.34 -0.68 0.68 0 0 Z " fill="#757575" transform="translate(48,298)"/>
<path d="M0 0 C0.33 0.66 0.66 1.32 1 2 C-3.38 9.37 -8.79 15.12 -15 21 C-15.66 20.67 -16.32 20.34 -17 20 C-16.19 19.14 -15.38 18.29 -14.55 17.4 C-13.47 16.25 -12.39 15.09 -11.31 13.94 C-10.78 13.38 -10.25 12.81 -9.71 12.24 C-6.1 8.37 -2.99 4.36 0 0 Z " fill="#4F4F4F" transform="translate(356,275)"/>
<path d="M0 0 C-0.74 0.53 -1.47 1.06 -2.23 1.61 C-3.21 2.32 -4.18 3.02 -5.19 3.75 C-6.63 4.79 -6.63 4.79 -8.11 5.86 C-10.79 7.85 -13.41 9.89 -16 12 C-16 9 -16 9 -14.69 7.61 C-13.12 6.41 -11.56 5.2 -10 4 C-10.66 3.34 -11.32 2.68 -12 2 C-11.01 2 -10.02 2 -9 2 C-9 1.34 -9 0.68 -9 0 C-5.57 -0.86 -3.38 -0.98 0 0 Z " fill="#E3E3E3" transform="translate(113,302)"/>
<path d="M0 0 C0.66 0 1.32 0 2 0 C0.45 4.66 -3.35 6.18 -7.38 8.75 C-8.55 9.53 -8.55 9.53 -9.74 10.32 C-10.87 11.05 -10.87 11.05 -12.02 11.8 C-12.71 12.24 -13.4 12.69 -14.11 13.15 C-16 14 -16 14 -19 13 C-14.55 10 -10.08 7.02 -5.56 4.12 C-4.92 3.72 -4.29 3.31 -3.63 2.88 C-2 2 -2 2 0 2 C0 1.34 0 0.68 0 0 Z " fill="#939393" transform="translate(341,288)"/>
<path d="M0 0 C5.94 0 11.88 0 18 0 C17.67 0.99 17.34 1.98 17 3 C16.05 2.96 15.1 2.92 14.12 2.88 C10.9 2.65 10.9 2.65 9 5 C6.88 4.62 6.88 4.62 5 4 C5.66 3.67 6.32 3.34 7 3 C4.69 2.34 2.38 1.68 0 1 C0 0.67 0 0.34 0 0 Z " fill="#CBCBCA" transform="translate(303,384)"/>
<path d="M0 0 C0.66 0.33 1.32 0.66 2 1 C2 3.31 2 5.62 2 8 C4.97 8 7.94 8 11 8 C10.67 8.99 10.34 9.98 10 11 C6.27 12.04 4.62 12.32 1.12 10.5 C-1 8 -1 8 -1.38 4.31 C-1 1 -1 1 0 0 Z " fill="#222423" transform="translate(403,57)"/>
<path d="M0 0 C-2 2 -2 2 -3.97 2.23 C-4.76 2.22 -5.54 2.21 -6.35 2.2 C-7.2 2.19 -8.05 2.18 -8.93 2.18 C-10.26 2.15 -10.26 2.15 -11.62 2.12 C-12.97 2.11 -12.97 2.11 -14.34 2.1 C-16.56 2.07 -18.78 2.04 -21 2 C-18.2 -0.8 -15.39 -0.49 -11.62 -0.69 C-10.62 -0.76 -10.62 -0.76 -9.59 -0.83 C-6.2 -1.03 -3.23 -1.1 0 0 Z " fill="#474747" transform="translate(121,327)"/>
<path d="M0 0 C0.66 0 1.32 0 2 0 C2.34 2.04 2.67 4.08 3 6.12 C3.19 7.26 3.37 8.4 3.56 9.57 C3.97 12.76 4.08 15.79 4 19 C3.34 19.33 2.68 19.66 2 20 C2 18.02 2 16.04 2 14 C1.34 14 0.68 14 0 14 C0 9.38 0 4.76 0 0 Z " fill="#CC5409" transform="translate(290,397)"/>
<path d="M0 0 C2.08 0.31 4.17 0.62 6.25 0.94 C7.41 1.11 8.57 1.29 9.77 1.46 C12.23 1.87 14.59 2.34 17 3 C16.67 3.99 16.34 4.98 16 6 C10.72 4.68 5.44 3.36 0 2 C0 1.34 0 0.68 0 0 Z " fill="#CBCCCA" transform="translate(180,387)"/>
<path d="M0 0 C0 3.96 0 7.92 0 12 C-0.33 12 -0.66 12 -1 12 C-1.66 9.03 -2.32 6.06 -3 3 C-4.98 3.99 -4.98 3.99 -7 5 C-7.66 4.01 -8.32 3.02 -9 2 C-8.01 2 -7.02 2 -6 2 C-6 1.34 -6 0.68 -6 0 C-3 -1 -3 -1 0 0 Z " fill="#646464" transform="translate(169,242)"/>
<path d="M0 0 C0.99 0.5 0.99 0.5 2 1 C2 1.66 2 2.32 2 3 C2.99 3 3.98 3 5 3 C5.33 2.34 5.66 1.68 6 1 C7.12 7.75 7.12 7.75 6 10 C5.01 10 4.02 10 3 10 C2.01 6.7 1.02 3.4 0 0 Z " fill="#C2CACA" transform="translate(227,382)"/>
<path d="M0 0 C0 0.66 0 1.32 0 2 C-1.9 3.44 -1.9 3.44 -4.38 5 C-6.85 6.57 -8.92 7.92 -11 10 C-13.12 9.62 -13.12 9.62 -15 9 C-13.4 7.68 -11.79 6.37 -10.19 5.06 C-9.29 4.33 -8.4 3.6 -7.48 2.85 C-4.95 0.96 -3.19 0 0 0 Z " fill="#585858" transform="translate(116,301)"/>
<path d="M0 0 C0.99 0.33 1.98 0.66 3 1 C3.95 3.07 3.95 3.07 4.69 5.56 C5.06 6.8 5.06 6.8 5.45 8.07 C5.63 8.7 5.81 9.34 6 10 C6.66 10 7.32 10 8 10 C8.33 11.65 8.66 13.3 9 15 C8.01 15.5 8.01 15.5 7 16 C6.67 14.35 6.34 12.7 6 11 C5.34 11 4.68 11 4 11 C3.33 9.73 2.66 8.46 2 7.19 C1.63 6.48 1.26 5.77 0.88 5.04 C0 3 0 3 0 0 Z " fill="#A9A9A7" transform="translate(418,192)"/>
<path d="M0 0 C0.33 0 0.66 0 1 0 C1.33 7.92 1.66 15.84 2 24 C1.34 24 0.68 24 0 24 C-1.15 18.75 -0.93 13.93 -0.56 8.62 C-0.51 7.79 -0.46 6.96 -0.4 6.11 C-0.28 4.07 -0.14 2.03 0 0 Z " fill="#CC5208" transform="translate(314,398)"/>
<path d="M0 0 C-0.33 0.99 -0.66 1.98 -1 3 C-2.98 3 -4.96 3 -7 3 C-7 2.34 -7 1.68 -7 1 C-7.91 1.35 -8.81 1.7 -9.75 2.06 C-13.01 3 -13.93 2.96 -17 2 C-15.11 1.47 -13.21 0.95 -11.31 0.44 C-10.26 0.15 -9.2 -0.14 -8.11 -0.44 C-4.99 -1 -3.02 -0.85 0 0 Z " fill="#D36C3C" transform="translate(319,389)"/>
<path d="M0 0 C-6.18 3.48 -12.86 5.46 -20 5 C-16.69 2.11 -13.69 1.2 -9.44 0.25 C-7.73 -0.14 -7.73 -0.14 -6 -0.55 C-3 -1 -3 -1 0 0 Z " fill="#4D4D4D" transform="translate(287,324)"/>
<path d="M0 0 C0.53 0.18 1.07 0.36 1.62 0.55 C7.38 2.49 13.17 4.28 19 6 C19 6.33 19 6.66 19 7 C12.52 7.47 7.58 6.46 2 3 C1.34 2.01 0.68 1.02 0 0 Z " fill="#5A5C5B" transform="translate(190,283)"/>
<path d="M0 0 C0 0.66 0 1.32 0 2 C-1.65 2.33 -3.3 2.66 -5 3 C-5 3.66 -5 4.32 -5 5 C-5.99 5 -6.98 5 -8 5 C-7.67 5.99 -7.34 6.98 -7 8 C-8.65 8.33 -10.3 8.66 -12 9 C-12 7.68 -12 6.36 -12 5 C-10.38 4.16 -8.75 3.33 -7.12 2.5 C-6.22 2.04 -5.32 1.57 -4.38 1.09 C-2 0 -2 0 0 0 Z " fill="#717171" transform="translate(160,245)"/>
<path d="M0 0 C3.63 0 7.26 0 11 0 C11 0.66 11 1.32 11 2 C6.73 3.14 3.44 4 -1 4 C-0.67 2.68 -0.34 1.36 0 0 Z " fill="#C9C9C9" transform="translate(74,352)"/>
<path d="M0 0 C0 0.66 0 1.32 0 2 C-1.11 2.43 -2.23 2.87 -3.38 3.31 C-7.18 4.7 -7.18 4.7 -9 8 C-12.12 8.19 -12.12 8.19 -15 8 C-15 7.34 -15 6.68 -15 6 C-12.88 5 -10.75 4 -8.62 3 C-7.44 2.44 -6.26 1.89 -5.04 1.31 C-2 0 -2 0 0 0 Z " fill="#747474" transform="translate(114,267)"/>
<path d="M0 0 C4.62 0 9.24 0 14 0 C13.67 1.65 13.34 3.3 13 5 C10.94 6.31 10.94 6.31 9 7 C9 5.02 9 3.04 9 1 C6.03 1 3.06 1 0 1 C0 0.67 0 0.34 0 0 Z " fill="#A9A9A8" transform="translate(388,104)"/>
<path d="M0 0 C0 0.99 0 1.98 0 3 C-1.65 3 -3.3 3 -5 3 C-5 2.34 -5 1.68 -5 1 C-6.97 1.03 -6.97 1.03 -9 2 C-10.3 5 -10.3 5 -11 8 C-11.9 5.49 -12.13 4.35 -11.19 1.81 C-8.42 -2.42 -4.39 -0.64 0 0 Z " fill="#CF8D4D" transform="translate(444,52)"/>
<path d="M0 0 C0.66 0 1.32 0 2 0 C0.52 3.23 -1.32 5.89 -3.5 8.69 C-4.11 9.48 -4.72 10.26 -5.34 11.07 C-7 13 -7 13 -9 14 C-8.41 10.09 -6.51 7.78 -4.06 4.75 C-3.35 3.86 -2.64 2.97 -1.91 2.05 C-1.28 1.37 -0.65 0.7 0 0 Z " fill="#E5E5E5" transform="translate(356,278)"/>
<path d="M0 0 C0 0.66 0 1.32 0 2 C-1.43 2.56 -2.87 3.1 -4.31 3.62 C-5.11 3.93 -5.91 4.23 -6.74 4.54 C-7.48 4.69 -8.23 4.84 -9 5 C-9.99 4.34 -10.98 3.68 -12 3 C-11.34 3 -10.68 3 -10 3 C-10 2.34 -10 1.68 -10 1 C-6.62 -0.04 -3.52 -0.08 0 0 Z " fill="#AAAAA8" transform="translate(383,31)"/>
<path d="M0 0 C6.6 0.33 13.2 0.66 20 1 C20 1.33 20 1.66 20 2 C10.59 2.5 10.59 2.5 1 3 C0.67 2.01 0.34 1.02 0 0 Z " fill="#6C6C6C" transform="translate(202,336)"/>
<path d="M0 0 C-3.08 3.67 -5.25 4.57 -10 5 C-9.67 4.34 -9.34 3.68 -9 3 C-9.66 2.34 -10.32 1.68 -11 1 C-6.93 -1.04 -4.41 -1.03 0 0 Z " fill="#656565" transform="translate(318,308)"/>
<path d="M0 0 C0.87 0.18 1.73 0.36 2.62 0.55 C3.49 0.72 4.36 0.89 5.25 1.06 C7.79 1.92 8.92 2.83 10.62 4.86 C10.3 5.52 9.96 6.18 9.62 6.86 C9.08 6.39 8.54 5.92 7.98 5.44 C5.23 3.6 3.13 3.18 -0.12 2.68 C-1.6 2.44 -1.6 2.44 -3.11 2.2 C-3.86 2.09 -4.6 1.98 -5.38 1.86 C-2.38 -0.14 -2.38 -0.14 0 0 Z " fill="#E8D6C0" transform="translate(247.375,386.13671875)"/>
<path d="M0 0 C0 0.66 0 1.32 0 2 C3.3 2 6.6 2 10 2 C10 2.66 10 3.32 10 4 C8.25 4.08 6.5 4.14 4.75 4.19 C3.78 4.22 2.8 4.26 1.8 4.29 C-1.37 3.96 -2.67 3.11 -5 1 C-2 0 -2 0 0 0 Z " fill="#C3C4C2" transform="translate(43,352)"/>
<path d="M0 0 C1.32 0 2.64 0 4 0 C4 1.32 4 2.64 4 4 C3.34 4 2.68 4 2 4 C2.96 6.33 2.96 6.33 6 8 C3.03 7.5 3.03 7.5 0 7 C-0.38 5.01 -0.71 3.01 -1 1 C-0.67 0.67 -0.34 0.34 0 0 Z " fill="#535353" transform="translate(141,327)"/>
<path d="M0 0 C0.66 0.33 1.32 0.66 2 1 C2 1.99 2 2.98 2 4 C2.66 4 3.32 4 4 4 C3.67 5.65 3.34 7.3 3 9 C2.01 9 1.02 9 0 9 C-0.88 2.85 -0.88 2.85 -1 1 C-0.67 0.67 -0.34 0.34 0 0 Z " fill="#A6A6A6" transform="translate(395,142)"/>
<path d="M0 0 C0.33 0.99 0.66 1.98 1 3 C-1 6 -1 6 -2.69 6.69 C-5.8 7.11 -8.86 7.06 -12 7 C-12 6.34 -12 5.68 -12 5 C-10.95 4.84 -10.95 4.84 -9.88 4.67 C-8.52 4.43 -8.52 4.43 -7.12 4.19 C-5.77 3.96 -5.77 3.96 -4.38 3.73 C-1.66 3.17 -1.66 3.17 0 0 Z " fill="#D3793D" transform="translate(373,453)"/>
<path d="M0 0 C2 0 2 0 3.69 1.44 C5.68 5.32 4.74 8.81 4 13 C3.01 13.33 2.02 13.66 1 14 C1.1 13.41 1.19 12.82 1.29 12.21 C1.94 7.56 2.35 4.28 0 0 Z " fill="#C5C7C6" transform="translate(413,54)"/>
<path d="M0 0 C2.88 -0.19 2.88 -0.19 6 0 C8.57 3.85 7.83 5.59 7 10 C6.34 9.67 5.68 9.34 5 9 C4.88 7.87 4.75 6.73 4.62 5.56 C4.42 4.39 4.21 3.21 4 2 C2.06 0.49 2.06 0.49 0 0 Z " fill="#323333" transform="translate(408,56)"/>
<path d="M0 0 C-5.37 2.63 -10.04 3.61 -16 4 C-13.42 2.28 -11.45 1.31 -8.56 0.31 C-7.42 -0.1 -7.42 -0.1 -6.25 -0.51 C-3.78 -1.05 -2.37 -0.8 0 0 Z " fill="#4A4C4B" transform="translate(98,304)"/>
<path d="M0 0 C0.99 0.33 1.98 0.66 3 1 C-0.3 3.64 -3.6 6.28 -7 9 C-7.66 8.67 -8.32 8.34 -9 8 C-2.92 1.75 -2.92 1.75 0 0 Z " fill="#E2E2E2" transform="translate(339,297)"/>
<path d="M0 0 C0.99 0.33 1.98 0.66 3 1 C2.67 1.66 2.34 2.32 2 3 C-0.94 3.63 -0.94 3.63 -4.56 4.12 C-5.76 4.29 -6.96 4.46 -8.19 4.63 C-9.12 4.75 -10.05 4.88 -11 5 C-11 4.34 -11 3.68 -11 3 C-10.29 2.87 -9.58 2.73 -8.85 2.6 C-7.93 2.42 -7.01 2.24 -6.06 2.06 C-4.69 1.8 -4.69 1.8 -3.29 1.54 C-1.05 1.22 -1.05 1.22 0 0 Z " fill="#EA8C3A" transform="translate(484,89)"/>
<path d="M0 0 C0.99 0.33 1.98 0.66 3 1 C2.01 1.5 2.01 1.5 1 2 C1 2.66 1 3.32 1 4 C0.2 4.27 -0.61 4.54 -1.44 4.81 C-2.28 5.2 -3.13 5.6 -4 6 C-4.33 6.99 -4.66 7.98 -5 9 C-5.33 7.02 -5.66 5.04 -6 3 C-4.02 2.67 -2.04 2.34 0 2 C0 1.34 0 0.68 0 0 Z " fill="#777777" transform="translate(174,237)"/>
<path d="M0 0 C2.73 0.03 5.3 0.56 8 1 C6 3 4.59 3.93 2 5 C0.68 5 -0.64 5 -2 5 C-2 2 -2 2 0 0 Z " fill="#DE7022" transform="translate(453,92)"/>
<path d="M0 0 C0.66 0 1.32 0 2 0 C3.03 2.79 3.05 3.87 2.06 6.75 C1.71 7.49 1.36 8.24 1 9 C0.01 9 -0.98 9 -2 9 C-1.34 6.03 -0.68 3.06 0 0 Z " fill="#EF8B33" transform="translate(231,444)"/>
<path d="M0 0 C0.66 0 1.32 0 2 0 C1.39 4.13 0.06 7.37 -2 11 C-2.99 11.5 -2.99 11.5 -4 12 C-3.34 7.61 -1.81 4.02 0 0 Z " fill="#C8C8C8" transform="translate(433,303)"/>
<path d="M0 0 C1.65 0.42 3.29 0.86 4.94 1.31 C6.31 1.68 6.31 1.68 7.71 2.05 C8.47 2.36 9.22 2.68 10 3 C10.33 3.99 10.66 4.98 11 6 C9.35 5.58 7.71 5.14 6.06 4.69 C5.15 4.44 4.23 4.2 3.29 3.95 C2.53 3.64 1.78 3.32 1 3 C0.67 2.01 0.34 1.02 0 0 Z " fill="#DE7A1F" transform="translate(287,450)"/>
<path d="M0 0 C2.68 4.02 2.16 6.24 2 11 C1.34 11 0.68 11 0 11 C-0.19 9.35 -0.38 7.71 -0.56 6.06 C-0.67 5.15 -0.77 4.23 -0.88 3.29 C-0.92 2.53 -0.96 1.78 -1 1 C-0.67 0.67 -0.34 0.34 0 0 Z " fill="#A2A2A2" transform="translate(334,140)"/>
<path d="M0 0 C-0.99 0.5 -0.99 0.5 -2 1 C-2.33 1.99 -2.66 2.98 -3 4 C-4.65 4 -6.3 4 -8 4 C-8 2.68 -8 1.36 -8 0 C-4.95 -0.98 -3.05 -0.98 0 0 Z " fill="#CCD0CF" transform="translate(271,392)"/>
<path d="M0 0 C0 0.66 0 1.32 0 2 C-5.62 5 -5.62 5 -9 5 C-9 5.66 -9 6.32 -9 7 C-9.66 6.67 -10.32 6.34 -11 6 C-7.88 2.53 -4.85 0 0 0 Z " fill="#CCCBC1" transform="translate(374,365)"/>
<path d="M0 0 C-1.97 2.52 -2.97 2.99 -6.19 3.69 C-7.58 3.84 -7.58 3.84 -9 4 C-9 3.01 -9 2.02 -9 1 C-5.93 0.09 -3.2 -0.09 0 0 Z " fill="#858585" transform="translate(227,217)"/>
<path d="M0 0 C-1.62 2.06 -1.62 2.06 -4 4 C-7.25 3.75 -7.25 3.75 -10 3 C-10 2.34 -10 1.68 -10 1 C-3.38 -1.12 -3.38 -1.12 0 0 Z " fill="#ABABAA" transform="translate(341,202)"/>
<path d="M0 0 C-1.79 0.7 -3.58 1.38 -5.38 2.06 C-6.37 2.45 -7.37 2.83 -8.4 3.22 C-11 4 -11 4 -13 3 C-8.99 -0.55 -5.15 -1.72 0 0 Z " fill="#E7E9E8" transform="translate(100,306)"/>
<path d="M0 0 C0.6 0.35 1.2 0.7 1.81 1.06 C-2.81 4.06 -2.81 4.06 -6.19 4.06 C-5.88 2.12 -5.88 2.12 -5.19 0.06 C-2.19 -0.94 -2.19 -0.94 0 0 Z " fill="#818181" transform="translate(202.1875,225.9375)"/>
<path d="M0 0 C2 2 2 2 2 5 C2.66 5 3.32 5 4 5 C3.67 6.65 3.34 8.3 3 10 C2.67 9.01 2.34 8.02 2 7 C1.34 7 0.68 7 0 7 C-0.38 5.01 -0.71 3.01 -1 1 C-0.67 0.67 -0.34 0.34 0 0 Z " fill="#A9A9A9" transform="translate(433,222)"/>
<path d="M0 0 C2.97 0.33 5.94 0.66 9 1 C8.67 1.66 8.34 2.32 8 3 C5.03 3 2.06 3 -1 3 C-0.67 2.01 -0.34 1.02 0 0 Z " fill="#7B7C79" transform="translate(275,205)"/>
<path d="M0 0 C0.66 0.33 1.32 0.66 2 1 C1.72 2.48 1.42 3.96 1.12 5.44 C0.96 6.26 0.8 7.08 0.63 7.93 C0.42 8.62 0.22 9.3 0 10 C-0.99 10.5 -0.99 10.5 -2 11 C-1.12 3.38 -1.12 3.38 0 0 Z " fill="#A9A9A9" transform="translate(334,70)"/>
<path d="M0 0 C0.99 0 1.98 0 3 0 C3 0.66 3 1.32 3 2 C1.67 3.33 0.33 4.67 -1 6 C-1.33 6.99 -1.66 7.98 -2 9 C-2.66 9 -3.32 9 -4 9 C-3.48 5.22 -2.67 2.78 0 0 Z " fill="#A5A5A3" transform="translate(345,52)"/>
<path d="M0 0 C0.33 1.32 0.66 2.64 1 4 C1.66 4 2.32 4 3 4 C1.52 8.68 1.52 8.68 -1.12 10.31 C-2.05 10.65 -2.05 10.65 -3 11 C-2.69 10.48 -2.38 9.97 -2.06 9.44 C-0.71 6.33 -0.39 3.35 0 0 Z " fill="#E38F40" transform="translate(310,466)"/>
<path d="M0 0 C0.66 0 1.32 0 2 0 C2.33 0.99 2.66 1.98 3 3 C2.04 3.43 2.04 3.43 1.06 3.88 C-1.15 4.83 -1.15 4.83 -2 7 C-2.99 6.67 -3.98 6.34 -5 6 C-5 5.34 -5 4.68 -5 4 C-4.01 4 -3.02 4 -2 4 C-1.34 2.68 -0.68 1.36 0 0 Z " fill="#D16827" transform="translate(349,459)"/>
<path d="M0 0 C0.33 0.66 0.66 1.32 1 2 C-0.98 4.97 -2.96 7.94 -5 11 C-5.66 10.34 -6.32 9.68 -7 9 C-4.69 6.03 -2.38 3.06 0 0 Z " fill="#676767" transform="translate(356,275)"/>
<path d="M0 0 C0 0.66 0 1.32 0 2 C-0.99 2 -1.98 2 -3 2 C-3 2.66 -3 3.32 -3 4 C-4.65 4.33 -6.3 4.66 -8 5 C-8 4.34 -8 3.68 -8 3 C-7.34 3 -6.68 3 -6 3 C-6 2.34 -6 1.68 -6 1 C-4 0 -4 0 0 0 Z " fill="#E9882F" transform="translate(282,476)"/>
<path d="M0 0 C0.66 0.33 1.32 0.66 2 1 C0.69 2.5 0.69 2.5 -1 4 C-1.99 4 -2.98 4 -4 4 C-4 4.99 -4 5.98 -4 7 C-5.32 6.34 -6.64 5.68 -8 5 C-6.71 4.14 -5.42 3.28 -4.12 2.44 C-3.05 1.72 -3.05 1.72 -1.95 1 C-1.3 0.67 -0.66 0.34 0 0 Z " fill="#656565" transform="translate(342,290)"/>
<path d="M0 0 C2.64 0 5.28 0 8 0 C8 0.66 8 1.32 8 2 C5.36 2.66 2.72 3.32 0 4 C0 2.68 0 1.36 0 0 Z " fill="#818181" transform="translate(72,283)"/>
<path d="M0 0 C3.72 0.51 6.73 1.12 10 3 C10 3.66 10 4.32 10 5 C7.69 4.34 5.38 3.68 3 3 C3 2.34 3 1.68 3 1 C2.01 0.67 1.02 0.34 0 0 Z " fill="#A9AAA7" transform="translate(413,34)"/>
<path d="M0 0 C0.33 0.99 0.66 1.98 1 3 C3.31 3 5.62 3 8 3 C8 3.33 8 3.66 8 4 C7.43 4.12 6.87 4.24 6.29 4.37 C5.55 4.53 4.82 4.7 4.06 4.88 C2.97 5.12 2.97 5.12 1.85 5.37 C-0.21 5.83 -0.21 5.83 -1 8 C-0.67 5.36 -0.34 2.72 0 0 Z " fill="#D9CFC1" transform="translate(234,385)"/>
<path d="M0 0 C2.31 0.33 4.62 0.66 7 1 C7.33 1.99 7.66 2.98 8 4 C2.25 3.12 2.25 3.12 0 2 C0 1.34 0 0.68 0 0 Z " fill="#C8C8C7" transform="translate(113,360)"/>
<path d="M0 0 C2 2 2 2 2.12 5.62 C2.08 6.74 2.04 7.85 2 9 C0.5 7.81 0.5 7.81 -1 6 C-1.25 3.38 -1.25 3.38 -1 1 C-0.67 0.67 -0.34 0.34 0 0 Z " fill="#A6A7A3" transform="translate(340,167)"/>
<path d="M0 0 C1.32 0 2.64 0 4 0 C4 0.66 4 1.32 4 2 C5.32 2 6.64 2 8 2 C8 2.99 8 3.98 8 5 C6.02 4.34 4.04 3.68 2 3 C2 2.34 2 1.68 2 1 C1.34 0.67 0.68 0.34 0 0 Z " fill="#EF8A37" transform="translate(237,472)"/>
<path d="M0 0 C2.44 0.81 2.44 0.81 5 2 C5.33 2.99 5.66 3.98 6 5 C5.01 5 4.02 5 3 5 C3 4.34 3 3.68 3 3 C1.68 2.67 0.36 2.34 -1 2 C-0.67 1.34 -0.34 0.68 0 0 Z " fill="#CCCCCA" transform="translate(145,373)"/>
<path d="M0 0 C5.75 -0.12 5.75 -0.12 8 1 C8 1.66 8 2.32 8 3 C5.36 2.67 2.72 2.34 0 2 C0 1.34 0 0.68 0 0 Z " fill="#C4C4C4" transform="translate(96,355)"/>
<path d="M0 0 C2.97 0.33 5.94 0.66 9 1 C8.34 1.66 7.68 2.32 7 3 C3.94 2.75 3.94 2.75 1 2 C0.67 1.34 0.34 0.68 0 0 Z " fill="#5C5C5C" transform="translate(93,326)"/>
<path d="M0 0 C0.66 0.66 1.32 1.32 2 2 C-4.62 6 -4.62 6 -8 6 C-8 5.34 -8 4.68 -8 4 C-5.09 2.74 -3.2 2 0 2 C0 1.34 0 0.68 0 0 Z " fill="#545454" transform="translate(80,283)"/>
<path d="M0 0 C0.66 0 1.32 0 2 0 C1.47 3.82 0.5 6.06 -2 9 C-2.33 8.34 -2.66 7.68 -3 7 C-2.06 4.64 -1.07 2.3 0 0 Z " fill="#7B7B7B" transform="translate(359,267)"/>
<path d="M0 0 C0.33 0.66 0.66 1.32 1 2 C0.34 2 -0.32 2 -1 2 C-1.33 3.32 -1.66 4.64 -2 6 C-3.32 5.34 -4.64 4.68 -6 4 C-5.01 3.67 -4.02 3.34 -3 3 C-3 2.34 -3 1.68 -3 1 C-2.01 0.67 -1.02 0.34 0 0 Z " fill="#797979" transform="translate(166,241)"/>
<path d="M0 0 C0.99 0.33 1.98 0.66 3 1 C3 2.98 3 4.96 3 7 C2.01 7 1.02 7 0 7 C0.33 5.35 0.66 3.7 1 2 C0.34 1.67 -0.32 1.34 -1 1 C-0.67 0.67 -0.34 0.34 0 0 Z " fill="#A7AEAA" transform="translate(427,90)"/>
<path d="M0 0 C3.62 -0.19 3.62 -0.19 7 0 C7 0.66 7 1.32 7 2 C2.55 2.49 2.55 2.49 -2 3 C-1.34 2.01 -0.68 1.02 0 0 Z " fill="#CCCCCC" transform="translate(405,52)"/>
<path d="M0 0 C5.75 -0.12 5.75 -0.12 8 1 C8 1.66 8 2.32 8 3 C5.03 2.67 2.06 2.34 -1 2 C-0.67 1.34 -0.34 0.68 0 0 Z " fill="#A8A8A6" transform="translate(404,31)"/>
<path d="M0 0 C2.64 0 5.28 0 8 0 C5.03 1.65 2.34 2.44 -1 3 C-0.67 2.01 -0.34 1.02 0 0 Z " fill="#BFBEC0" transform="translate(321,385)"/>
<path d="M0 0 C2.01 0.29 4.01 0.62 6 1 C6 1.66 6 2.32 6 3 C4.68 3.33 3.36 3.66 2 4 C2 3.34 2 2.68 2 2 C1.01 1.67 0.02 1.34 -1 1 C-0.67 0.67 -0.34 0.34 0 0 Z " fill="#C8C8C6" transform="translate(106,357)"/>
<path d="M0 0 C0.99 0.33 1.98 0.66 3 1 C3 1.66 3 2.32 3 3 C3.66 3 4.32 3 5 3 C4.34 4.32 3.68 5.64 3 7 C0 2.25 0 2.25 0 0 Z " fill="#A7A7A7" transform="translate(405,170)"/>
<path d="M0 0 C2.31 0 4.62 0 7 0 C7 0.33 7 0.66 7 1 C4.69 1.33 2.38 1.66 0 2 C0 1.34 0 0.68 0 0 Z " fill="#B0B0AF" transform="translate(260,205)"/>
<path d="M0 0 C2.31 0 4.62 0 7 0 C7 0.33 7 0.66 7 1 C4.69 1 2.38 1 0 1 C0 0.67 0 0.34 0 0 Z " fill="#F7FAC3" transform="translate(220,398)"/>
<path d="M0 0 C2.48 0.5 2.48 0.5 5 1 C4.01 1.5 4.01 1.5 3 2 C2.01 1.34 1.02 0.68 0 0 Z " fill="#F7372E" transform="translate(329,467)"/>
<path d="M0 0 C0.99 0 1.98 0 3 0 C3 0.66 3 1.32 3 2 C2.01 2 1.02 2 0 2 C0 1.34 0 0.68 0 0 Z " fill="#787878" transform="translate(43,309)"/>
<path d="M0 0 C1.65 0 3.3 0 5 0 C5 0.33 5 0.66 5 1 C3.35 1 1.7 1 0 1 C0 0.67 0 0.34 0 0 Z " fill="#F29F2E" transform="translate(288,478)"/>
<path d="M0 0 C0.33 0 0.66 0 1 0 C1 1.65 1 3.3 1 5 C0.67 5 0.34 5 0 5 C0 3.35 0 1.7 0 0 Z " fill="#CDCDCD" transform="translate(330,137)"/>
<path d="M0 0 C0.99 0.33 1.98 0.66 3 1 C2.01 1 1.02 1 0 1 C0 0.67 0 0.34 0 0 Z " fill="#B0B0B0" transform="translate(65,284)"/>
<path d="M0 0 C3 1 3 1 3 1 Z " fill="#FAFAFB" transform="translate(269,398)"/>
<path d="M0 0 C3 1 3 1 3 1 Z " fill="#FEFCFC" transform="translate(212,397)"/>
<path d="M0 0 C0.66 0 1.32 0 2 0 C1.67 0.66 1.34 1.32 1 2 C0.67 1.34 0.34 0.68 0 0 Z " fill="#FDFDFD" transform="translate(84,356)"/>
<path d="" fill="#FDFDFB" transform="translate(0,0)"/>
<path d="M0 0 C3 1 3 1 3 1 Z " fill="#BA8B8F" transform="translate(436,101)"/>
<path d="M0 0 C2 1 2 1 2 1 Z " fill="#C4C4C4" transform="translate(181,391)"/>
<path d="M0 0 C2 1 2 1 2 1 Z " fill="#F8FECE" transform="translate(366,371)"/>
<path d="M0 0 C2 1 2 1 2 1 Z " fill="#FFFFFF" transform="translate(105,360)"/>
<path d="M0 0 C2 1 2 1 2 1 Z " fill="#7B7B7B" transform="translate(51,312)"/>
<path d="" fill="#808080" transform="translate(0,0)"/>
<path d="M0 0 C2 1 2 1 2 1 Z " fill="#7B7B7B" transform="translate(82,274)"/>
<path d="" fill="#838383" transform="translate(0,0)"/>
<path d="M0 0 C2 1 2 1 2 1 Z " fill="#ACADAA" transform="translate(417,106)"/>
<path d="M0 0 C2 1 2 1 2 1 Z " fill="#D48F8B" transform="translate(461,96)"/>
<path d="M0 0 C2 1 2 1 2 1 Z " fill="#D9938E" transform="translate(454,60)"/>
<path d="M0 0 C2 1 2 1 2 1 Z " fill="#848484" transform="translate(358,38)"/>
<path d="M0 0 C2 1 2 1 2 1 Z " fill="#828282" transform="translate(369,32)"/>
<path d="" fill="#F8ED4C" transform="translate(0,0)"/>
<path d="" fill="#CF1716" transform="translate(0,0)"/>
<path d="" fill="#B42727" transform="translate(0,0)"/>
<path d="" fill="#E51401" transform="translate(0,0)"/>
<path d="" fill="#C91E0A" transform="translate(0,0)"/>
<path d="" fill="#D19190" transform="translate(0,0)"/>
<path d="" fill="#D18981" transform="translate(0,0)"/>
<path d="" fill="#D89396" transform="translate(0,0)"/>
<path d="" fill="#FEE74A" transform="translate(0,0)"/>
<path d="" fill="#B0231E" transform="translate(0,0)"/>
<path d="" fill="#B62926" transform="translate(0,0)"/>
<path d="" fill="#FFFBF3" transform="translate(0,0)"/>
<path d="" fill="#FBF8F9" transform="translate(0,0)"/>
<path d="" fill="#FBF9F4" transform="translate(0,0)"/>
<path d="" fill="#FEFEFE" transform="translate(0,0)"/>
<path d="" fill="#FFFFFF" transform="translate(0,0)"/>
<path d="" fill="#F7F7F7" transform="translate(0,0)"/>
<path d="" fill="#FAFBF8" transform="translate(0,0)"/>
<path d="" fill="#F8F8F8" transform="translate(0,0)"/>
<path d="" fill="#FCFCFC" transform="translate(0,0)"/>
<path d="" fill="#848484" transform="translate(0,0)"/>
<path d="" fill="#F7F9F9" transform="translate(0,0)"/>
<path d="" fill="#FEFEFE" transform="translate(0,0)"/>
<path d="" fill="#FBFDFD" transform="translate(0,0)"/>
<path d="" fill="#080808" transform="translate(0,0)"/>
<path d="" fill="#FFFFFD" transform="translate(0,0)"/>
<path d="" fill="#050505" transform="translate(0,0)"/>
<path d="" fill="#EEEDEE" transform="translate(0,0)"/>
<path d="" fill="#F6F6F6" transform="translate(0,0)"/>
<path d="" fill="#FCFBFC" transform="translate(0,0)"/>
<path d="" fill="#878787" transform="translate(0,0)"/>
<path d="" fill="#F6F6F6" transform="translate(0,0)"/>
<path d="" fill="#FFFFFD" transform="translate(0,0)"/>
<path d="" fill="#FEFEFC" transform="translate(0,0)"/>
<path d="" fill="#FCFBFC" transform="translate(0,0)"/>
<path d="" fill="#FFE847" transform="translate(0,0)"/>
<path d="" fill="#FFFDFC" transform="translate(0,0)"/>
<path d="" fill="#F8F8F8" transform="translate(0,0)"/>
</svg>
