<?xml version="1.0" encoding="UTF-8"?>
<!-- Generator: visioncortex VTracer 0.6.4 -->
<svg version="1.1" xmlns="http://www.w3.org/2000/svg" width="512" height="512">
<path d="M0 0 C1.03 0.97 2.03 1.97 3 3 C4.42 4.19 5.83 5.37 7.26 6.54 C9.22 8.19 11.14 9.87 13.06 11.56 C18.51 16.63 18.51 16.63 25 20 C25 20.66 25 21.32 25 22 C25.95 22.31 26.9 22.62 27.88 22.94 C31 24 31 24 33 25 C33 25.66 33 26.32 33 27 C33.63 27.2 34.25 27.41 34.9 27.62 C35.72 27.89 36.53 28.16 37.38 28.44 C38.19 28.7 39 28.97 39.84 29.25 C42 30 42 30 44 31 C44 31.66 44 32.32 44 33 C44.91 33.12 45.81 33.25 46.75 33.38 C49.59 33.92 51.53 34.57 54 36 C54 36.66 54 37.32 54 38 C54.58 38.08 55.15 38.16 55.75 38.25 C58.89 39.3 60.09 40.27 62 43 C62.33 46.03 62.23 48.97 62 52 C56.19 54.97 51.31 57.15 44.78 57.85 C43.6 57.98 42.42 58.11 41.21 58.24 C39.98 58.37 38.76 58.49 37.5 58.62 C36.28 58.76 35.05 58.89 33.79 59.03 C23.95 60.09 23.95 60.09 19 60 C19 60.66 19 61.32 19 62 C17.08 62.51 15.17 63 13.25 63.5 C12.18 63.78 11.12 64.06 10.02 64.34 C7 65 7 65 3 65 C3 65.66 3 66.32 3 67 C2.31 67.11 1.62 67.21 0.91 67.32 C-2.25 67.81 -5.41 68.31 -8.56 68.81 C-10.19 69.06 -10.19 69.06 -11.85 69.31 C-20.31 70.56 -20.31 70.56 -28 74 C-30.22 78.96 -30.32 83.9 -30.25 89.25 C-30.25 89.99 -30.24 90.73 -30.24 91.5 C-30.16 96.73 -29.59 101.69 -28.44 106.8 C-28 109 -28 109 -28 113 C-27.34 113 -26.68 113 -26 113 C-25.01 116.63 -24.02 120.26 -23 124 C-22.34 124 -21.68 124 -21 124 C-19.66 126.62 -18.33 129.25 -17 131.88 C-16.62 132.62 -16.24 133.37 -15.84 134.14 C-15.48 134.85 -15.12 135.57 -14.75 136.3 C-14.41 136.96 -14.08 137.62 -13.73 138.3 C-13 140 -13 140 -13 142 C-12.34 142 -11.68 142 -11 142 C-8 147.75 -8 147.75 -8 150 C-7.01 150.33 -6.02 150.66 -5 151 C-3.56 153.32 -2.26 155.6 -1 158 C1.22 162.73 1.22 162.73 5 166 C5.67 168.33 6.33 170.67 7 173 C7.66 173.33 8.32 173.66 9 174 C10.37 175.64 11.7 177.31 13 179 C13.87 180.02 13.87 180.02 14.75 181.06 C16 183 16 183 16 187 C16.74 189.31 17.54 191.6 18.38 193.88 C20.96 201.19 22.2 208.27 23 216 C23.66 216 24.32 216 25 216 C25 225.33 25 234.67 25 244 C24.34 244.33 23.68 244.66 23 245 C22.38 247.47 21.88 249.87 21.44 252.38 C20.09 259.73 20.09 259.73 19 263 C18.34 263 17.68 263 17 263 C16.34 265.97 15.68 268.94 15 272 C14.34 272 13.68 272 13 272 C12.69 273.21 12.69 273.21 12.38 274.44 C9.9 280.86 6.01 286.3 1 291 C-0.18 292.33 -1.34 293.66 -2.5 295 C-7.65 300.91 -7.65 300.91 -10 303 C-10.66 303 -11.32 303 -12 303 C-12 303.66 -12 304.32 -12 305 C-13.99 306.35 -15.99 307.68 -18 309 C-19.9 310.79 -21.67 312.64 -23.44 314.56 C-25.46 316.42 -27.61 317.64 -30 319 C-30.62 319.36 -31.24 319.71 -31.88 320.08 C-33.58 321.06 -35.29 322.03 -37 323 C-37 323.66 -37 324.32 -37 325 C-42.64 326.92 -42.64 326.92 -45.31 327.5 C-45.87 327.67 -46.43 327.83 -47 328 C-47.33 328.66 -47.66 329.32 -48 330 C-50.86 331.9 -53.96 333.41 -57 335 C-58.13 335.6 -59.26 336.2 -60.43 336.81 C-66.49 339.96 -72.22 342.78 -79 344 C-79 344.66 -79 345.32 -79 346 C-80.6 346.51 -82.21 347 -83.81 347.5 C-85.15 347.92 -85.15 347.92 -86.52 348.34 C-89 349 -89 349 -92 349 C-92 349.66 -92 350.32 -92 351 C-93.94 351.5 -95.87 352 -97.81 352.5 C-98.89 352.78 -99.97 353.06 -101.08 353.34 C-104 354 -104 354 -107 354 C-106.98 355.39 -106.98 355.39 -106.96 356.81 C-106.95 358.6 -106.95 358.6 -106.94 360.44 C-106.93 361.63 -106.91 362.83 -106.9 364.06 C-107 367 -107 367 -108 368 C-108.24 370.63 -108.43 373.24 -108.56 375.88 C-108.6 376.64 -108.64 377.41 -108.68 378.2 C-108.8 380.47 -108.9 382.73 -109 385 C-109.06 386.14 -109.11 387.29 -109.17 388.47 C-109.2 389.43 -109.22 390.39 -109.25 391.38 C-109.28 392.21 -109.3 393.04 -109.33 393.9 C-108.91 396.58 -108.15 397.39 -106 399 C-103.69 399.74 -101.36 400.42 -99 401 C-99 401.66 -99 402.32 -99 403 C-97.87 403.1 -96.73 403.21 -95.56 403.31 C-91.72 403.79 -88.35 404.81 -84.72 406.1 C-78.9 408.02 -72.93 409.46 -67 411 C-67 411.66 -67 412.32 -67 413 C-66.35 413.09 -65.7 413.17 -65.02 413.26 C-58.93 414.24 -55.14 415.31 -51 420 C-50.62 422.81 -50.62 422.81 -51 425 C-56.51 427.7 -61.36 428.65 -67.44 429.19 C-68.68 429.31 -68.68 429.31 -69.94 429.44 C-71.96 429.63 -73.98 429.82 -76 430 C-76.33 430.99 -76.66 431.98 -77 433 C-82.44 436.62 -89.42 435.41 -95.55 434.43 C-101.97 433.12 -107.94 431.46 -114 429 C-115.41 428.51 -116.83 428.03 -118.25 427.56 C-118.99 427.31 -119.74 427.07 -120.5 426.81 C-122.35 426.21 -124.2 425.63 -126.06 425.06 C-136.99 421.63 -136.99 421.63 -140 418 C-140.96 414.09 -141.28 411.83 -140 408 C-139.34 408 -138.68 408 -138 408 C-137.67 407.01 -137.34 406.02 -137 405 C-136.01 404.34 -135.02 403.68 -134 403 C-134.91 385.7 -134.91 385.7 -139 369 C-139.66 369 -140.32 369 -141 369 C-143 366 -143 366 -144 364 C-142.68 363.67 -141.36 363.34 -140 363 C-141.24 363.17 -142.48 363.33 -143.75 363.5 C-149.5 364.15 -155.22 364.09 -161 364 C-161.33 365.32 -161.66 366.64 -162 368 C-162.66 368 -163.32 368 -164 368 C-164.33 367.34 -164.66 366.68 -165 366 C-165.29 370.41 -165.57 374.82 -165.85 379.23 C-165.95 380.73 -166.05 382.23 -166.15 383.72 C-166.29 385.89 -166.43 388.05 -166.56 390.22 C-166.65 391.52 -166.73 392.82 -166.82 394.15 C-167.59 401.3 -167.59 401.3 -165.81 407.88 C-163.63 409.23 -161.42 410.15 -159 411 C-159 411.66 -159 412.32 -159 413 C-158.29 413.11 -157.57 413.23 -156.84 413.35 C-153.82 414.04 -151.35 415.1 -148.56 416.44 C-144.76 418.22 -141.03 419.8 -137 421 C-137 421.66 -137 422.32 -137 423 C-136.4 423.12 -135.79 423.24 -135.17 423.37 C-134.37 423.53 -133.57 423.7 -132.75 423.88 C-131.57 424.12 -131.57 424.12 -130.36 424.37 C-126.5 425.4 -123.27 427.37 -119.88 429.44 C-119.19 429.85 -118.51 430.26 -117.8 430.68 C-116 432 -116 432 -114 435 C-113.74 437.69 -113.91 440.29 -114 443 C-117.51 444.6 -120.14 445.22 -124 445 C-124 445.66 -124 446.32 -124 447 C-126.31 447 -128.62 447 -131 447 C-131 446.34 -131 445.68 -131 445 C-133.97 445 -136.94 445 -140 445 C-140 445.66 -140 446.32 -140 447 C-153.69 451.43 -167.31 451.43 -181 447 C-181 446.34 -181 445.68 -181 445 C-181.82 444.79 -182.65 444.59 -183.5 444.38 C-188.42 442.44 -193.34 439.62 -196.23 435.05 C-197 433 -197 433 -197 429 C-197.66 429 -198.32 429 -199 429 C-199.42 424.66 -198.22 421.29 -196.75 417.28 C-192.74 405.15 -195.18 391.12 -196.38 378.66 C-196.84 373.58 -197.24 369.01 -196 364 C-196.85 363.92 -196.85 363.92 -197.72 363.83 C-200.34 363.58 -202.95 363.32 -205.56 363.06 C-206.46 362.98 -207.35 362.89 -208.28 362.8 C-222.01 361.44 -222.01 361.44 -228 359 C-230.61 358.41 -233.19 357.87 -235.81 357.38 C-236.51 357.24 -237.2 357.11 -237.91 356.97 C-239.61 356.64 -241.3 356.32 -243 356 C-243 355.34 -243 354.68 -243 354 C-243.76 353.87 -244.52 353.73 -245.3 353.6 C-246.29 353.42 -247.29 353.24 -248.31 353.06 C-249.3 352.89 -250.28 352.71 -251.3 352.54 C-254 352 -254 352 -257 351 C-257 350.34 -257 349.68 -257 349 C-258.26 348.81 -259.52 348.63 -260.81 348.44 C-261.52 348.33 -262.23 348.23 -262.96 348.12 C-265.2 347.86 -265.2 347.86 -268 349 C-271.19 347.56 -271.19 347.56 -274 346 C-273.67 345.34 -273.34 344.68 -273 344 C-277.76 341.84 -282.54 339.74 -287.38 337.75 C-288.59 337.25 -288.59 337.25 -289.84 336.73 C-292.09 335.84 -292.09 335.84 -295 336 C-295 335.01 -295 334.02 -295 333 C-295.63 332.87 -296.25 332.73 -296.9 332.6 C-297.72 332.42 -298.53 332.24 -299.38 332.06 C-300.59 331.8 -300.59 331.8 -301.84 331.54 C-304 331 -304 331 -306 330 C-306 329.34 -306 328.68 -306 328 C-306.84 327.84 -306.84 327.84 -307.69 327.67 C-311.55 326.87 -315.02 325.99 -318.69 324.5 C-334.96 318.2 -354.58 320.77 -371.53 322.29 C-382.14 323.21 -392.67 324.05 -403 321 C-405 319 -405 319 -405.31 315.19 C-405.22 311.41 -404.43 309 -402 306 C-401.34 306 -400.68 306 -400 306 C-399.77 305.26 -399.55 304.51 -399.31 303.75 C-397.72 300.42 -395.98 299.15 -393 297 C-389.4 294.2 -389.4 294.2 -386.25 290.94 C-382.94 288.09 -379.15 287.17 -375 286 C-375 285.34 -375 284.68 -375 284 C-368.37 281 -368.37 281 -365 281 C-365 280.34 -365 279.68 -365 279 C-365.88 278.9 -366.76 278.8 -367.67 278.7 C-368.83 278.55 -369.99 278.4 -371.19 278.25 C-372.34 278.11 -373.48 277.97 -374.67 277.83 C-378.41 276.9 -380.3 275.73 -383 273 C-383.62 269.56 -383.62 269.56 -383 266 C-380.69 263.06 -380.69 263.06 -378 261 C-377.01 261 -376.02 261 -375 261 C-375 260.34 -375 259.68 -375 259 C-374.31 258.72 -373.62 258.44 -372.9 258.15 C-367.06 255.76 -361.28 253.25 -355.56 250.56 C-354.94 250.27 -354.31 249.97 -353.66 249.67 C-351.15 248.49 -348.65 247.31 -346.15 246.12 C-344.39 245.28 -342.63 244.45 -340.88 243.62 C-339.86 243.14 -338.85 242.66 -337.8 242.16 C-335.18 241.07 -332.8 240.44 -330 240 C-330 239.34 -330 238.68 -330 238 C-328.73 237.49 -327.46 237 -326.19 236.5 C-325.13 236.08 -325.13 236.08 -324.04 235.66 C-322 235 -322 235 -319 235 C-319 233.68 -319 232.36 -319 231 C-318.01 231.33 -317.02 231.66 -316 232 C-313.65 231.4 -311.31 230.74 -309 230 C-309 229.34 -309 228.68 -309 228 C-305.37 227.01 -301.74 226.02 -298 225 C-298 224.34 -298 223.68 -298 223 C-294.7 222.01 -291.4 221.02 -288 220 C-288 219.34 -288 218.68 -288 218 C-286.73 217.49 -285.46 217 -284.19 216.5 C-283.13 216.08 -283.13 216.08 -282.04 215.66 C-280 215 -280 215 -277 215 C-277 214.34 -277 213.68 -277 213 C-270.38 210 -270.38 210 -267 210 C-267 209.34 -267 208.68 -267 208 C-263.7 207.01 -260.4 206.02 -257 205 C-257 204.34 -257 203.68 -257 203 C-255.68 202.34 -254.36 201.68 -253 201 C-253 200.34 -253 199.68 -253 199 C-251.02 199.33 -249.04 199.66 -247 200 C-247 199.34 -247 198.68 -247 198 C-245.73 197.49 -244.46 197 -243.19 196.5 C-242.13 196.08 -242.13 196.08 -241.04 195.66 C-239 195 -239 195 -236 195 C-236 194.34 -236 193.68 -236 193 C-234.56 192.49 -233.13 192 -231.69 191.5 C-230.49 191.08 -230.49 191.08 -229.26 190.66 C-227 190 -227 190 -224 190 C-224 189.34 -224 188.68 -224 188 C-223.15 187.75 -222.31 187.49 -221.44 187.23 C-214.16 185.05 -214.16 185.05 -207 182.5 C-197.39 178.82 -187.75 176.42 -177.63 174.71 C-174.06 174.09 -174.06 174.09 -170.98 172.98 C-167.59 171.86 -164.35 171.39 -160.81 170.94 C-155.83 170.3 -155.83 170.3 -151 169 C-148.82 168.86 -146.64 168.77 -144.45 168.72 C-143.8 168.7 -143.16 168.68 -142.49 168.66 C-140.41 168.6 -138.33 168.55 -136.25 168.5 C-126.95 168.26 -117.69 167.91 -108.41 167.23 C-104.9 166.99 -101.39 166.87 -97.88 166.75 C-92.82 166.37 -92.82 166.37 -88.75 163.62 C-85.81 159.21 -85.88 155.43 -85.94 150.31 C-85.94 149.26 -85.94 149.26 -85.95 148.19 C-85.96 146.46 -85.98 144.73 -86 143 C-86.66 143 -87.32 143 -88 143 C-88.11 142.43 -88.22 141.85 -88.34 141.26 C-88.84 138.63 -89.36 136 -89.88 133.38 C-90.05 132.47 -90.22 131.57 -90.4 130.64 C-91.33 125.95 -92.44 121.53 -94 117 C-94.42 115.01 -94.8 113.01 -95.12 111 C-95.29 110.01 -95.46 109.02 -95.63 108 C-96 104.97 -96.06 102.05 -96 99 C-96.66 99 -97.32 99 -98 99 C-98 98.01 -98 97.02 -98 96 C-98.66 96 -99.32 96 -100 96 C-99.82 95.24 -99.65 94.47 -99.46 93.69 C-98.84 88.73 -99.25 83.98 -99.56 79 C-100.2 67.17 -99.4 55.75 -98 44 C-97.34 44 -96.68 44 -96 44 C-95.95 43.43 -95.9 42.86 -95.85 42.28 C-95.37 37.29 -94.52 32.77 -93 28 C-92.34 28 -91.68 28 -91 28 C-90.82 27.39 -90.64 26.77 -90.45 26.14 C-90.2 25.33 -89.95 24.52 -89.69 23.69 C-89.44 22.89 -89.2 22.09 -88.95 21.26 C-87.93 18.83 -86.93 17.75 -85 16 C-83.89 14.71 -82.79 13.42 -81.69 12.12 C-78.69 8.67 -75.58 5.85 -72 3 C-71.29 2.2 -71.29 2.2 -70.56 1.38 C-67.29 -1.51 -63.32 -3 -59 -3 C-59 -3.66 -59 -4.32 -59 -5 C-40.48 -10.97 -16.77 -10.62 0 0 Z " fill="#606060" transform="translate(427,35)"/>
<path d="M0 0 C2.37 3.04 3.83 5.73 5.12 9.38 C5.46 10.29 5.79 11.21 6.13 12.15 C10.01 24.91 9.48 40.46 3.44 52.38 C-6.82 70.02 -22.25 80.8 -40 90 C-41.3 90.69 -42.6 91.39 -43.9 92.09 C-55.79 98.34 -68.28 102.77 -81 107 C-82.37 107.47 -82.37 107.47 -83.77 107.96 C-92.47 110.82 -101.15 112.43 -110.17 113.81 C-112.6 114.18 -115.03 114.58 -117.46 114.97 C-135.17 117.79 -152.85 118.21 -170.75 118.19 C-171.62 118.19 -172.48 118.19 -173.37 118.19 C-183.75 118.17 -194.09 118.05 -204.44 117.19 C-205.3 117.12 -206.17 117.05 -207.06 116.98 C-213.08 116.37 -219.87 115.46 -224.74 111.63 C-226.8 108.97 -226.18 106.23 -226 103 C-226.68 103.2 -227.35 103.41 -228.05 103.62 C-228.94 103.89 -229.83 104.16 -230.75 104.44 C-231.63 104.7 -232.51 104.97 -233.42 105.25 C-239.21 106.94 -244.35 107.22 -250.38 107.25 C-251.31 107.27 -252.24 107.29 -253.2 107.31 C-258.59 107.34 -262.31 106.98 -267 104 C-267.57 100.11 -267.72 98.09 -265.51 94.75 C-263.75 92.71 -262.04 90.77 -260 89 C-259.34 89 -258.68 89 -258 89 C-258 88.34 -258 87.68 -258 87 C-255.88 85.27 -255.88 85.27 -253.12 83.38 C-252.22 82.74 -251.32 82.11 -250.38 81.46 C-248 80 -248 80 -246 80 C-246 79.34 -246 78.68 -246 78 C-246.78 78.24 -247.55 78.48 -248.35 78.73 C-255.44 80.93 -262.54 83.07 -269.69 85.05 C-271.67 85.62 -273.65 86.23 -275.59 86.92 C-281.98 89.07 -288.19 89.34 -294.88 89.44 C-296.25 89.47 -296.25 89.47 -297.65 89.5 C-301.9 89.49 -304.37 89.37 -308.09 87.19 C-310 85 -310 85 -310.62 81.56 C-309.85 77.16 -308.51 75.69 -305 73 C-304.01 73 -303.02 73 -302 73 C-302 72.34 -302 71.68 -302 71 C-301.31 70.72 -300.62 70.44 -299.9 70.15 C-294.06 67.76 -288.28 65.25 -282.56 62.56 C-281.94 62.27 -281.31 61.97 -280.66 61.67 C-278.15 60.49 -275.65 59.31 -273.15 58.12 C-271.39 57.28 -269.63 56.45 -267.88 55.62 C-266.86 55.14 -265.85 54.66 -264.8 54.16 C-262.18 53.07 -259.8 52.44 -257 52 C-257 51.34 -257 50.68 -257 50 C-255.73 49.49 -254.46 49 -253.19 48.5 C-252.48 48.22 -251.77 47.94 -251.04 47.66 C-249 47 -249 47 -246 47 C-246 45.68 -246 44.36 -246 43 C-244.51 43.5 -244.51 43.5 -243 44 C-240.65 43.4 -238.31 42.74 -236 42 C-236 41.34 -236 40.68 -236 40 C-232.37 39.01 -228.74 38.02 -225 37 C-225 36.34 -225 35.68 -225 35 C-221.7 34.01 -218.4 33.02 -215 32 C-215 31.34 -215 30.68 -215 30 C-213.73 29.49 -212.46 29 -211.19 28.5 C-210.48 28.22 -209.77 27.94 -209.04 27.66 C-207 27 -207 27 -204 27 C-204 26.34 -204 25.68 -204 25 C-197.38 22 -197.38 22 -194 22 C-194 21.34 -194 20.68 -194 20 C-191.54 19.14 -189.09 18.28 -186.62 17.44 C-185.93 17.19 -185.23 16.94 -184.51 16.69 C-182.69 16.07 -180.85 15.53 -179 15 C-178.01 15.5 -178.01 15.5 -177 16 C-177.61 16.31 -178.23 16.63 -178.86 16.95 C-179.67 17.38 -180.48 17.81 -181.31 18.25 C-182.51 18.88 -182.51 18.88 -183.74 19.52 C-186.19 21.13 -187.5 22.48 -189 25 C-189.51 29.58 -189.68 31.83 -187.38 35.81 C-181.64 41.1 -176.84 41.35 -169.28 41.17 C-165.15 40.96 -161.1 40.56 -157 40 C-157.7 40.56 -158.4 41.11 -159.12 41.69 C-160.63 42.9 -162.13 44.12 -163.6 45.38 C-167.8 49 -167.8 49 -170 49 C-169.93 52.4 -169.79 55.03 -167.59 57.73 C-160.75 63.83 -154.11 64.34 -145.25 64.31 C-143.84 64.34 -143.84 64.34 -142.41 64.36 C-136.51 64.37 -131.63 63.56 -126.08 61.55 C-124 61 -124 61 -121 62 C-124.75 65 -124.75 65 -127 65 C-127.33 65.99 -127.66 66.98 -128 68 C-128.66 68 -129.32 68 -130 68 C-130.33 68.99 -130.66 69.98 -131 71 C-132.65 72.69 -134.31 74.35 -136 76 C-138.02 79.03 -138.26 79.61 -138.19 83 C-138.18 83.68 -138.17 84.36 -138.17 85.06 C-138.06 87.22 -138.06 87.22 -137 90 C-134.41 91.12 -134.41 91.12 -131 92 C-130.32 92.25 -129.64 92.49 -128.93 92.74 C-121.8 95.2 -115.19 95.42 -107.69 95.31 C-105.99 95.32 -105.99 95.32 -104.25 95.32 C-93.95 95.26 -83.85 94.16 -74 91 C-73.27 90.8 -72.54 90.59 -71.78 90.38 C-51.67 84.72 -28.03 74.09 -15.34 56.73 C-14.9 56.16 -14.46 55.59 -14 55 C-13.34 55 -12.68 55 -12 55 C-11.66 54.04 -11.66 54.04 -11.31 53.06 C-10.22 50.52 -9.04 48.36 -7.62 46 C-1.8 35.54 -0.39 25.01 -0.25 13.19 C-0.22 11.91 -0.19 10.63 -0.16 9.32 C-0.09 6.21 -0.04 3.11 0 0 Z " fill="#3F4040" transform="translate(354,223)"/>
<path d="M0 0 C2.45 1.37 4.57 2.87 6.52 4.9 C8.45 6.74 10.31 6.86 12.89 7.21 C12.56 8.53 12.23 9.85 11.89 11.21 C11.23 11.21 10.57 11.21 9.89 11.21 C9.4 10.22 9.4 10.22 8.89 9.21 C8.61 13.62 8.32 18.03 8.04 22.44 C7.94 23.94 7.85 25.44 7.75 26.94 C7.61 29.1 7.47 31.26 7.33 33.43 C7.25 34.73 7.16 36.03 7.08 37.37 C6.3 44.51 6.3 44.51 8.08 51.09 C10.27 52.44 12.47 53.36 14.89 54.21 C14.89 54.87 14.89 55.53 14.89 56.21 C15.61 56.33 16.32 56.44 17.05 56.56 C20.07 57.25 22.54 58.31 25.33 59.65 C29.13 61.43 32.86 63.01 36.89 64.21 C36.89 64.87 36.89 65.53 36.89 66.21 C37.8 66.39 37.8 66.39 38.72 66.58 C39.52 66.75 40.32 66.91 41.14 67.09 C41.93 67.25 42.72 67.41 43.54 67.58 C47.39 68.61 50.63 70.58 54.02 72.65 C54.7 73.06 55.39 73.47 56.09 73.89 C57.89 75.21 57.89 75.21 59.89 78.21 C60.15 80.91 59.98 83.5 59.89 86.21 C56.39 87.81 53.75 88.43 49.89 88.21 C49.89 88.87 49.89 89.53 49.89 90.21 C47.58 90.21 45.27 90.21 42.89 90.21 C42.89 89.55 42.89 88.89 42.89 88.21 C39.92 88.21 36.95 88.21 33.89 88.21 C33.89 88.87 33.89 89.53 33.89 90.21 C20.2 94.64 6.59 94.64 -7.11 90.21 C-7.11 89.55 -7.11 88.89 -7.11 88.21 C-7.93 88 -8.76 87.8 -9.61 87.59 C-14.53 85.65 -19.45 82.83 -22.34 78.27 C-23.11 76.21 -23.11 76.21 -23.11 72.21 C-23.77 72.21 -24.43 72.21 -25.11 72.21 C-25.53 67.87 -24.32 64.5 -22.86 60.49 C-18.85 48.36 -21.29 34.33 -22.48 21.87 C-22.94 16.79 -23.35 12.23 -22.11 7.21 C-23.1 6.88 -24.09 6.55 -25.11 6.21 C-24.38 5.96 -23.66 5.72 -22.92 5.46 C-19.85 4.1 -17.69 2.32 -15.11 0.21 C-10.26 -1.4 -4.85 -1.82 0 0 Z " fill="#F77F1B" transform="translate(253.10546875,391.7890625)"/>
<path d="M0 0 C0.03 2.15 0.05 4.29 0.06 6.44 C0.07 7.63 0.09 8.83 0.1 10.06 C0 13 0 13 -1 14 C-1.24 16.63 -1.43 19.24 -1.56 21.88 C-1.6 22.64 -1.64 23.41 -1.68 24.2 C-1.8 26.47 -1.9 28.73 -2 31 C-2.06 32.14 -2.11 33.29 -2.17 34.47 C-2.21 35.91 -2.21 35.91 -2.25 37.38 C-2.29 38.62 -2.29 38.62 -2.33 39.9 C-1.91 42.58 -1.15 43.39 1 45 C3.31 45.74 5.64 46.42 8 47 C8 47.66 8 48.32 8 49 C9.13 49.1 10.27 49.21 11.44 49.31 C15.28 49.79 18.65 50.81 22.28 52.1 C28.1 54.02 34.07 55.46 40 57 C40 57.66 40 58.32 40 59 C40.65 59.09 41.3 59.17 41.98 59.26 C48.07 60.24 51.86 61.31 56 66 C56.38 68.81 56.38 68.81 56 71 C50.49 73.7 45.64 74.65 39.56 75.19 C38.74 75.27 37.91 75.35 37.06 75.44 C35.04 75.63 33.02 75.82 31 76 C30.5 77.49 30.5 77.49 30 79 C24.56 82.62 17.58 81.41 11.45 80.43 C5.03 79.12 -0.94 77.46 -7 75 C-8.41 74.51 -9.83 74.03 -11.25 73.56 C-12.36 73.19 -12.36 73.19 -13.5 72.81 C-15.35 72.21 -17.2 71.63 -19.06 71.06 C-29.99 67.63 -29.99 67.63 -33 64 C-33.96 60.09 -34.28 57.83 -33 54 C-32.34 54 -31.68 54 -31 54 C-30.67 53.01 -30.34 52.02 -30 51 C-29.01 50.34 -28.02 49.68 -27 49 C-27.91 31.7 -27.91 31.7 -32 15 C-32.66 15 -33.32 15 -34 15 C-36 12 -36 12 -37 10 C-35.68 10 -34.36 10 -33 10 C-32.55 9.38 -32.11 8.75 -31.65 8.11 C-29.33 5.14 -27.3 5.03 -23.65 4.3 C-22.41 4.04 -21.16 3.78 -19.88 3.52 C-18.57 3.26 -17.25 3.01 -15.94 2.75 C-14.62 2.48 -13.3 2.21 -11.98 1.94 C-2.45 0 -2.45 0 0 0 Z " fill="#D05B15" transform="translate(320,389)"/>
<path d="M0 0 C0 0.66 0 1.32 0 2 C-1.86 3.47 -1.86 3.47 -4.31 5.06 C-5.51 5.85 -5.51 5.85 -6.74 6.66 C-9 8 -9 8 -12 9 C-12 9.66 -12 10.32 -12 11 C-13.5 12.44 -13.5 12.44 -15.44 14 C-18.15 16.15 -18.15 16.15 -20 19 C-20.04 21.33 -20.04 23.67 -20 26 C-16.12 27.81 -13.09 28.24 -8.82 28.2 C-7.67 28.19 -6.51 28.18 -5.32 28.18 C-4.12 28.16 -2.92 28.14 -1.69 28.12 C-0.47 28.12 0.75 28.11 2 28.1 C5 28.07 8 28.04 11 28 C7.77 30.15 4.47 31.53 0.88 32.94 C0.2 33.21 -0.48 33.47 -1.18 33.75 C-11.28 37.7 -21.47 40.45 -32 43 C-31.67 43.66 -31.34 44.32 -31 45 C-31.99 45 -32.98 45 -34 45 C-34 46.65 -34 48.3 -34 50 C-37.47 51.16 -40.36 51.07 -44 51 C-44 51.66 -44 52.32 -44 53 C-41.36 53.33 -38.72 53.66 -36 54 C-36 54.33 -36 54.66 -36 55 C-40.06 55.34 -44.12 55.67 -48.19 56 C-49.32 56.1 -50.45 56.19 -51.62 56.29 C-73.67 58.05 -73.67 58.05 -84 55 C-86 53 -86 53 -86.31 49.19 C-86.22 45.41 -85.43 43 -83 40 C-82.34 40 -81.68 40 -81 40 C-80.77 39.26 -80.55 38.51 -80.31 37.75 C-78.72 34.42 -76.98 33.15 -74 31 C-70.4 28.2 -70.4 28.2 -67.25 24.94 C-63.94 22.09 -60.15 21.17 -56 20 C-56 19.34 -56 18.68 -56 18 C-49.38 15 -49.38 15 -46 15 C-46 14.34 -46 13.68 -46 13 C-48.97 12.67 -51.94 12.34 -55 12 C-55 11.67 -55 11.34 -55 11 C-53.72 11.1 -53.72 11.1 -52.42 11.21 C-41.61 11.69 -32.71 9.22 -22.51 5.83 C-18.51 4.51 -14.48 3.32 -10.44 2.12 C-9.38 1.8 -9.38 1.8 -8.29 1.47 C-5.42 0.62 -3.02 0 0 0 Z " fill="#979897" transform="translate(108,301)"/>
<path d="M0 0 C2.72 1.24 4.76 3.05 7.06 4.94 C8.05 5.27 9.04 5.6 10.06 5.94 C10.06 6.6 10.06 7.26 10.06 7.94 C11.01 8.25 11.96 8.56 12.94 8.88 C16.06 9.94 16.06 9.94 18.06 10.94 C18.06 11.6 18.06 12.26 18.06 12.94 C18.69 13.14 19.32 13.35 19.96 13.56 C20.78 13.83 21.6 14.1 22.44 14.38 C23.66 14.78 23.66 14.78 24.9 15.18 C27.06 15.94 27.06 15.94 29.06 16.94 C29.06 17.6 29.06 18.26 29.06 18.94 C29.97 19.06 30.88 19.19 31.81 19.31 C34.65 19.86 36.59 20.51 39.06 21.94 C39.06 22.6 39.06 23.26 39.06 23.94 C39.64 24.02 40.22 24.1 40.81 24.19 C43.95 25.23 45.15 26.21 47.06 28.94 C47.4 31.97 47.3 34.9 47.06 37.94 C41.25 40.91 36.37 43.09 29.84 43.79 C28.66 43.92 27.48 44.05 26.27 44.18 C25.05 44.31 23.82 44.43 22.56 44.56 C21.34 44.7 20.12 44.83 18.86 44.97 C9.01 46.02 9.01 46.02 4.06 45.94 C4.06 46.6 4.06 47.26 4.06 47.94 C2.63 48.19 1.19 48.41 -0.25 48.62 C-1.05 48.75 -1.85 48.88 -2.68 49.01 C-4.94 48.94 -4.94 48.94 -6.61 47.77 C-10.9 41.86 -10.3 35.37 -10.31 28.38 C-10.34 27.26 -10.36 26.14 -10.39 24.99 C-10.41 17.21 -9.53 9.95 -5.94 2.94 C-2.62 -0.08 -2.62 -0.08 0 0 Z " fill="#F77E19" transform="translate(441.9375,49.0625)"/>
<path d="M0 0 C0 3 0 3 -2 6 C-2.08 8.33 -2.09 10.67 -2 13 C1.88 14.81 4.91 15.24 9.18 15.2 C10.33 15.19 11.49 15.18 12.68 15.18 C13.88 15.16 15.08 15.14 16.31 15.12 C17.53 15.12 18.75 15.11 20 15.1 C23 15.07 26 15.04 29 15 C25.77 17.15 22.47 18.53 18.88 19.94 C17.86 20.34 17.86 20.34 16.82 20.75 C9.28 23.7 1.78 26.12 -6.06 28.12 C-6.72 28.3 -7.38 28.47 -8.07 28.64 C-17.39 30.96 -26.37 31.16 -35.94 31.12 C-37.8 31.13 -37.8 31.13 -39.71 31.14 C-41.47 31.13 -41.47 31.13 -43.28 31.13 C-44.35 31.13 -45.43 31.13 -46.53 31.13 C-49 31 -49 31 -50 30 C-50.58 26.97 -50.58 24.91 -48.89 22.26 C-42.06 14.67 -31.88 11.3 -22.27 8.64 C-19.45 7.84 -16.75 6.81 -14.02 5.75 C-11.04 4.64 -8.01 3.7 -4.98 2.75 C-2.73 1.98 -2.73 1.98 0 0 Z " fill="#CCCDCC" transform="translate(90,314)"/>
<path d="M0 0 C2.45 2.28 4.28 4.71 6.12 7.5 C6.64 8.27 7.16 9.05 7.7 9.84 C9 12 9 12 10 15 C10.66 15 11.32 15 12 15 C12 15.66 12 16.32 12 17 C12.52 16.84 13.03 16.68 13.57 16.51 C16.72 15.85 19.71 15.83 22.94 15.81 C24.14 15.8 25.35 15.78 26.59 15.77 C29.86 15.99 32.07 16.59 35 18 C35 18.66 35 19.32 35 20 C44.4 17.65 50.96 13.67 58 7 C63 9 63 9 65.36 10.03 C76.08 13.97 89.72 12.1 101 12 C100.67 12.99 100.34 13.98 100 15 C97.56 15.75 95.29 16.29 92.79 16.75 C92.07 16.9 91.34 17.05 90.6 17.2 C88.27 17.67 85.95 18.11 83.62 18.56 C81.31 19.02 78.99 19.47 76.68 19.94 C75.23 20.23 73.79 20.51 72.35 20.78 C68.99 21.45 66.89 22.07 64 24 C60.94 24.53 58.09 24.82 55 25 C54.35 25.04 53.7 25.09 53.03 25.14 C39.86 25.96 39.86 25.96 35.45 23.7 C33.62 22.06 33.62 22.06 32.23 20.41 C30.41 18.32 28.44 18.05 25.77 17.76 C19.54 17.58 16.1 18.39 11 22 C10.34 22.66 9.68 23.32 9 24 C6.4 24.2 6.4 24.2 3.38 24.12 C1.87 24.1 1.87 24.1 0.34 24.07 C-0.43 24.05 -1.21 24.02 -2 24 C-2 23.34 -2 22.68 -2 22 C1.47 21.5 1.47 21.5 5 21 C6.06 18.29 6.07 17.19 5.04 14.41 C4.57 13.49 4.11 12.57 3.62 11.62 C1.74 7.72 0.36 4.38 0 0 Z " fill="#434343" transform="translate(223,374)"/>
<path d="M0 0 C2.56 1.2 4.12 2.86 6 4.94 C4.01 4.87 2.03 4.81 0.04 4.74 C-2.31 4.8 -2.31 4.8 -5 6.94 C-5.37 9.26 -5.71 11.6 -6 13.94 C-6.66 14.6 -7.32 15.26 -8 15.94 C-8.37 18.07 -8.37 18.07 -8.41 20.51 C-8.45 21.4 -8.49 22.3 -8.53 23.22 C-8.56 24.16 -8.59 25.1 -8.62 26.06 C-8.66 27.01 -8.7 27.95 -8.74 28.93 C-8.84 31.26 -8.92 33.6 -9 35.94 C-7.72 35.92 -6.45 35.9 -5.13 35.89 C-0.01 35.89 5.03 36.26 10.12 36.75 C10.98 36.82 11.83 36.89 12.71 36.96 C18.05 37.47 22.19 38.56 27 40.94 C27 41.6 27 42.26 27 42.94 C19.35 44.49 11.79 45.42 4 45.94 C4 46.6 4 47.26 4 47.94 C2.57 48.19 1.13 48.41 -0.31 48.62 C-1.11 48.75 -1.91 48.88 -2.74 49.01 C-5 48.94 -5 48.94 -6.67 47.77 C-10.97 41.86 -10.37 35.37 -10.38 28.38 C-10.4 27.26 -10.42 26.14 -10.45 24.99 C-10.48 17.21 -9.59 9.95 -6 2.94 C-2.69 -0.08 -2.69 -0.08 0 0 Z " fill="#CB550C" transform="translate(442,49.0625)"/>
<path d="M0 0 C0.66 0 1.32 0 2 0 C2.03 1.44 2.05 2.87 2.06 4.31 C2.07 5.11 2.09 5.91 2.1 6.74 C2 9 2 9 1 12 C0.9 14.1 0.87 16.19 0.87 18.29 C0.87 19.56 0.86 20.82 0.86 22.12 C0.87 23.48 0.87 24.83 0.88 26.19 C0.88 26.86 0.88 27.54 0.88 28.24 C0.89 38.19 1.11 48.08 2 58 C1.01 58.5 1.01 58.5 0 59 C0 58.34 0 57.68 0 57 C-0.66 57 -1.32 57 -2 57 C-2 56.01 -2 55.02 -2 54 C-2.66 54 -3.32 54 -4 54 C-3.82 53.24 -3.65 52.47 -3.46 51.69 C-2.84 46.73 -3.25 41.98 -3.56 37 C-4.2 25.17 -3.4 13.75 -2 2 C-1.34 2 -0.68 2 0 2 C0 1.34 0 0.68 0 0 Z " fill="#5C5C5C" transform="translate(331,77)"/>
<path d="M0 0 C0.66 0.33 1.32 0.66 2 1 C3.46 5.62 2.83 8.84 1.02 13.17 C-0.49 15.87 -2.44 17.33 -5 19 C-5.99 19.66 -6.98 20.32 -8 21 C-9.92 21.28 -9.92 21.28 -12.1 21.32 C-13.34 21.35 -13.34 21.35 -14.59 21.38 C-15.47 21.39 -16.35 21.4 -17.26 21.41 C-18.17 21.43 -19.07 21.45 -20.01 21.47 C-22.9 21.53 -25.79 21.58 -28.69 21.62 C-30.65 21.66 -32.61 21.7 -34.57 21.74 C-39.38 21.84 -44.19 21.92 -49 22 C-48.67 21.01 -48.34 20.02 -48 19 C-47.22 18.94 -46.44 18.89 -45.64 18.83 C-42.03 18.58 -38.42 18.32 -34.81 18.06 C-32.97 17.93 -32.97 17.93 -31.1 17.8 C-28.63 17.62 -26.16 17.44 -23.69 17.26 C-21.22 17.09 -18.75 16.92 -16.29 16.78 C-14.55 16.66 -14.55 16.66 -12.77 16.55 C-11.22 16.46 -11.22 16.46 -9.63 16.36 C-6.77 16.14 -6.77 16.14 -3.81 14.12 C-1.21 9.64 -0.6 5.11 0 0 Z " fill="#5D5B5B" transform="translate(342,185)"/>
<path d="M0 0 C2.56 1.2 4.12 2.86 6 4.94 C4.01 4.87 2.03 4.81 0.04 4.74 C-2.31 4.8 -2.31 4.8 -5 6.94 C-5.37 9.26 -5.71 11.6 -6 13.94 C-6.66 14.6 -7.32 15.26 -8 15.94 C-8.45 19.1 -8.32 22.31 -8.31 25.5 C-8.33 26.37 -8.34 27.24 -8.36 28.13 C-8.37 34.25 -7.28 39.27 -5 44.94 C-3.42 44.82 -1.83 44.7 -0.25 44.56 C1.07 44.46 1.07 44.46 2.42 44.35 C4.96 44.1 4.96 44.1 6.81 42.91 C10.19 41.41 13.63 41.73 17.25 41.81 C18 41.82 18.74 41.83 19.51 41.84 C21.34 41.86 23.17 41.9 25 41.94 C24.5 42.93 24.5 42.93 24 43.94 C21.56 44.42 19.21 44.78 16.75 45.06 C16.08 45.15 15.41 45.24 14.72 45.32 C11.13 45.77 7.62 46.04 4 45.94 C4 46.6 4 47.26 4 47.94 C2.57 48.19 1.13 48.41 -0.31 48.62 C-1.11 48.75 -1.91 48.88 -2.74 49.01 C-5 48.94 -5 48.94 -6.67 47.77 C-10.97 41.86 -10.37 35.37 -10.38 28.38 C-10.4 27.26 -10.42 26.14 -10.45 24.99 C-10.48 17.21 -9.59 9.95 -6 2.94 C-2.69 -0.08 -2.69 -0.08 0 0 Z " fill="#DB7027" transform="translate(442,49.0625)"/>
<path d="M0 0 C2.38 0.94 2.38 0.94 4 3 C4.51 6.06 4.61 8.95 4 12 C2.69 13.75 2.69 13.75 1 15 C-5.03 15.75 -5.03 15.75 -7.94 13.5 C-9.53 9.75 -9.39 7.08 -9 3 C-6.89 -0.75 -4.01 -0.49 0 0 Z " fill="#1F2121" transform="translate(413,51)"/>
<path d="M0 0 C0 0.66 0 1.32 0 2 C-2.31 2.33 -4.62 2.66 -7 3 C-7 3.66 -7 4.32 -7 5 C-7.83 5.19 -8.66 5.39 -9.52 5.59 C-10.61 5.85 -11.69 6.11 -12.81 6.38 C-13.89 6.63 -14.97 6.89 -16.08 7.15 C-19.16 7.89 -19.16 7.89 -22 10 C-23.99 10.65 -25.99 11.24 -28 11.81 C-33.55 13.45 -38.6 15.53 -43.76 18.14 C-46 19 -46 19 -49 18 C-48.34 18 -47.68 18 -47 18 C-46.67 17.01 -46.34 16.02 -46 15 C-45.01 15 -44.02 15 -43 15 C-43 14.34 -43 13.68 -43 13 C-41.56 12.49 -40.13 12 -38.69 11.5 C-37.89 11.22 -37.09 10.94 -36.26 10.66 C-34 10 -34 10 -31 10 C-31 9.34 -31 8.68 -31 8 C-30.15 7.75 -29.31 7.49 -28.44 7.23 C-20.88 4.95 -20.88 4.95 -13.44 2.31 C-8.69 0.5 -5.1 -0.12 0 0 Z " fill="#4F4F4F" transform="translate(234,215)"/>
<path d="M0 0 C1.98 0.99 1.98 0.99 4 2 C4 2.66 4 3.32 4 4 C4.66 4 5.32 4 6 4 C9 9.75 9 9.75 9 12 C9.99 12.33 10.98 12.66 12 13 C13.44 15.32 14.74 17.6 16 20 C18.22 24.73 18.22 24.73 22 28 C22.67 30.33 23.33 32.67 24 35 C24.66 35.33 25.32 35.66 26 36 C28 39 28 39 28 42 C26.51 41.5 26.51 41.5 25 41 C25 40.34 25 39.68 25 39 C24.34 39 23.68 39 23 39 C22.56 38.12 22.56 38.12 22.11 37.23 C18.23 29.8 13.71 22.92 8.96 16.02 C8.45 15.27 7.94 14.52 7.41 13.75 C6.95 13.07 6.48 12.4 6.01 11.7 C5 10 5 10 5 8 C4.34 8 3.68 8 3 8 C0 2.25 0 2.25 0 0 Z " fill="#4C4C4B" transform="translate(410,173)"/>
<path d="M0 0 C0.5 1.98 0.5 1.98 1 4 C-0.36 4.87 -0.36 4.87 -1.75 5.75 C-5.1 8.07 -7.69 10.58 -10.44 13.56 C-12.46 15.42 -14.61 16.64 -17 18 C-17.62 18.36 -18.24 18.71 -18.88 19.08 C-20.58 20.06 -22.29 21.03 -24 22 C-24 22.66 -24 23.32 -24 24 C-29.64 25.92 -29.64 25.92 -32.31 26.5 C-33.15 26.75 -33.15 26.75 -34 27 C-34.33 27.66 -34.66 28.32 -35 29 C-35.66 28.67 -36.32 28.34 -37 28 C-36 25 -36 25 -33.88 23.68 C-32.97 23.23 -32.06 22.78 -31.12 22.31 C-19.79 16.36 -10 7.94 0 0 Z " fill="#575655" transform="translate(414,336)"/>
<path d="M0 0 C0.99 0.33 1.98 0.66 3 1 C2.73 1.65 2.47 2.3 2.2 2.98 C1.67 4.29 1.67 4.29 1.12 5.62 C0.78 6.48 0.43 7.34 0.07 8.23 C-2.84 15.77 -3.33 21.95 -3.31 30 C-3.33 31.16 -3.34 32.33 -3.36 33.52 C-3.36 39.46 -3.33 43.88 0 49 C0.33 49.99 0.66 50.98 1 52 C-2.47 53.16 -5.36 53.07 -9 53 C-9 52.34 -9 51.68 -9 51 C-7.02 50.5 -7.02 50.5 -5 50 C-5.07 49.34 -5.14 48.69 -5.22 48.01 C-5.85 41.56 -6.11 35.16 -6.12 28.69 C-6.13 27.94 -6.13 27.18 -6.14 26.41 C-6.13 21.84 -5.75 17.51 -5 13 C-4.34 13 -3.68 13 -3 13 C-2.95 12.23 -2.9 11.46 -2.85 10.66 C-2.74 9.16 -2.74 9.16 -2.62 7.62 C-2.56 6.63 -2.49 5.63 -2.41 4.6 C-2 2 -2 2 0 0 Z " fill="#695A4C" transform="translate(436,47)"/>
<path d="M0 0 C0 4.29 0 8.58 0 13 C-0.66 13.33 -1.32 13.66 -2 14 C-2.33 10.7 -2.66 7.4 -3 4 C-8.87 4.76 -14.64 5.88 -20.44 7.06 C-21.36 7.25 -22.28 7.44 -23.23 7.63 C-25.49 8.08 -27.74 8.54 -30 9 C-30 10.98 -30 12.96 -30 15 C-31.32 15 -32.64 15 -34 15 C-36 12 -36 12 -37 10 C-35.68 10 -34.36 10 -33 10 C-32.55 9.38 -32.11 8.75 -31.65 8.11 C-29.33 5.14 -27.3 5.03 -23.65 4.3 C-22.41 4.04 -21.16 3.78 -19.88 3.52 C-18.57 3.26 -17.25 3.01 -15.94 2.75 C-14.62 2.48 -13.3 2.21 -11.98 1.94 C-2.45 0 -2.45 0 0 0 Z " fill="#BE6935" transform="translate(320,389)"/>
<path d="M0 0 C0.66 0.33 1.32 0.66 2 1 C1.53 1.58 1.05 2.15 0.56 2.75 C-0.97 4.95 -1.44 6.43 -2 9 C11.01 8.5 24.01 7.98 37 7 C37 7.66 37 8.32 37 9 C27.85 10.68 19.05 11.28 9.75 11.19 C8.53 11.19 7.31 11.19 6.05 11.19 C-2.86 11.14 -2.86 11.14 -4 10 C-4.31 7.19 -4.31 7.19 -4 4 C-2 1.62 -2 1.62 0 0 Z " fill="#D6D7D6" transform="translate(44,334)"/>
<path d="M0 0 C0.7 1.79 0.7 1.79 1 4 C-0.33 5.75 -0.33 5.75 -2.25 7.44 C-5.13 10.1 -7.03 12.59 -9 16 C-9.66 16 -10.32 16 -11 16 C-11.08 16.68 -11.17 17.36 -11.25 18.06 C-12.03 21.13 -13.38 23.39 -15.01 26.09 C-16.65 29.26 -17.27 32.52 -18 36 C-18.66 36 -19.32 36 -20 36 C-19.86 34.4 -19.71 32.79 -19.56 31.19 C-19.48 30.29 -19.4 29.4 -19.32 28.48 C-19 26 -19 26 -18 23 C-17.34 23 -16.68 23 -16 23 C-15.82 22.39 -15.64 21.77 -15.45 21.14 C-15.2 20.33 -14.95 19.52 -14.69 18.69 C-14.44 17.89 -14.2 17.09 -13.95 16.26 C-12.93 13.83 -11.94 12.75 -10 11 C-8.82 9.67 -7.66 8.34 -6.5 7 C-4.41 4.58 -2.29 2.24 0 0 Z " fill="#4F4F4F" transform="translate(352,40)"/>
<path d="M0 0 C-0.18 1.89 -0.18 1.89 -1 4 C-3.29 5.05 -3.29 5.05 -6.06 5.75 C-7.44 6.11 -7.44 6.11 -8.85 6.48 C-9.56 6.65 -10.27 6.82 -11 7 C-11 7.66 -11 8.32 -11 9 C-12.6 9.51 -14.21 10 -15.81 10.5 C-16.71 10.78 -17.6 11.06 -18.52 11.34 C-21 12 -21 12 -24 12 C-24 12.66 -24 13.32 -24 14 C-30.05 14.98 -30.05 14.98 -32 15 C-32.66 14.34 -33.32 13.68 -34 13 C-33.4 12.79 -32.81 12.58 -32.19 12.37 C-26.08 10.2 -20.06 7.84 -14.06 5.38 C-13.33 5.07 -12.6 4.77 -11.84 4.46 C-9.05 3.31 -6.31 2.16 -3.62 0.79 C-2 0 -2 0 0 0 Z " fill="#52524F" transform="translate(359,372)"/>
<path d="M0 0 C0.66 0 1.32 0 2 0 C2.03 1.44 2.05 2.87 2.06 4.31 C2.07 5.11 2.09 5.91 2.1 6.74 C2 9 2 9 1 12 C0.85 13.77 0.75 15.55 0.68 17.32 C0.64 18.35 0.6 19.38 0.56 20.44 C0.52 21.51 0.48 22.58 0.44 23.69 C0.39 24.77 0.35 25.85 0.31 26.97 C0.2 29.65 0.1 32.32 0 35 C-0.33 35 -0.66 35 -1 35 C-3.51 24.03 -3.78 13.11 -2 2 C-1.34 2 -0.68 2 0 2 C0 1.34 0 0.68 0 0 Z " fill="#4A4A4A" transform="translate(331,77)"/>
<path d="M0 0 C0 0.66 0 1.32 0 2 C-1.65 2.33 -3.3 2.66 -5 3 C-5.33 3.99 -5.66 4.98 -6 6 C-7.73 7.09 -7.73 7.09 -9.96 8.08 C-10.76 8.43 -11.56 8.79 -12.39 9.16 C-13.23 9.52 -14.07 9.88 -14.94 10.25 C-15.77 10.63 -16.61 11 -17.47 11.39 C-22.1 13.42 -22.1 13.42 -24 14 C-24.66 13.67 -25.32 13.34 -26 13 C-26 12.34 -26 11.68 -26 11 C-24.35 10.67 -22.7 10.34 -21 10 C-21 8.68 -21 7.36 -21 6 C-20.01 6.33 -19.02 6.66 -18 7 C-15.65 6.4 -13.31 5.74 -11 5 C-11 4.34 -11 3.68 -11 3 C-9.54 2.5 -8.08 2 -6.62 1.5 C-5.81 1.22 -5 0.94 -4.16 0.66 C-2 0 -2 0 0 0 Z " fill="#4D4F4E" transform="translate(129,260)"/>
<path d="M0 0 C2.45 2.28 4.28 4.71 6.12 7.5 C6.64 8.27 7.16 9.05 7.7 9.84 C9 12 9 12 10 15 C10.66 15 11.32 15 12 15 C12 15.66 12 16.32 12 17 C12.66 17.33 13.32 17.66 14 18 C11.75 20.06 11.75 20.06 9 22 C6.69 21.75 6.69 21.75 5 21 C5.21 20.45 5.43 19.9 5.65 19.34 C6.13 16.12 5.08 14.5 3.62 11.62 C1.74 7.72 0.36 4.38 0 0 Z " fill="#484A4B" transform="translate(223,374)"/>
<path d="M0 0 C0.66 0 1.32 0 2 0 C0.86 5.32 -1.13 8.23 -5 12 C-6.79 14.02 -8.56 16.05 -10.32 18.1 C-13.38 21.56 -13.38 21.56 -15 23 C-15.66 23 -16.32 23 -17 23 C-16.39 17.73 -12.18 14.15 -8.56 10.62 C-5.8 7.8 -3.59 4.8 -1.33 1.57 C-0.89 1.05 -0.45 0.54 0 0 Z " fill="#565656" transform="translate(433,314)"/>
<path d="M0 0 C0.66 0 1.32 0 2 0 C2.33 1.98 2.66 3.96 3 6 C3.66 6 4.32 6 5 6 C5.99 9.63 6.98 13.26 8 17 C8.66 17 9.32 17 10 17 C12.09 21.43 12.09 21.43 11.62 24.31 C11.32 25.15 11.32 25.15 11 26 C7.44 21.97 5.35 17.88 3.25 13 C2.93 12.3 2.62 11.6 2.29 10.88 C0.65 7.12 -0.43 4.19 0 0 Z " fill="#515151" transform="translate(396,142)"/>
<path d="M0 0 C0.66 0 1.32 0 2 0 C3.29 2.57 3.21 4.57 3.32 7.45 C3.36 8.52 3.4 9.6 3.44 10.71 C3.48 11.83 3.52 12.96 3.56 14.12 C3.61 15.26 3.65 16.4 3.69 17.57 C3.8 20.38 3.9 23.19 4 26 C3.34 26.33 2.68 26.66 2 27 C-0.41 21.37 -0.23 16.13 -0.12 10.12 C-0.12 9.15 -0.11 8.18 -0.1 7.17 C-0.07 4.78 -0.04 2.39 0 0 Z " fill="#494949" transform="translate(393,114)"/>
<path d="M0 0 C2.56 1.2 4.12 2.86 6 4.94 C4.01 4.87 2.03 4.81 0.04 4.74 C-2.31 4.8 -2.31 4.8 -5 6.94 C-5.37 9.26 -5.71 11.6 -6 13.94 C-6.66 14.6 -7.32 15.26 -8 15.94 C-8.37 18.07 -8.37 18.07 -8.41 20.51 C-8.45 21.4 -8.49 22.3 -8.53 23.22 C-8.56 24.16 -8.59 25.1 -8.62 26.06 C-8.66 27.01 -8.7 27.95 -8.74 28.93 C-8.84 31.26 -8.92 33.6 -9 35.94 C-9.33 35.94 -9.66 35.94 -10 35.94 C-10.9 11.37 -10.9 11.37 -6 2.94 C-2.63 -0.08 -2.63 -0.08 0 0 Z " fill="#D3863A" transform="translate(442,49.0625)"/>
<path d="M0 0 C6.48 0.62 12.71 1.67 19.06 3.06 C19.93 3.25 20.79 3.44 21.69 3.63 C23.79 4.08 25.9 4.54 28 5 C26 7 26 7 22.92 7.05 C21.69 6.95 20.46 6.85 19.19 6.75 C17.35 6.62 17.35 6.62 15.48 6.48 C12.28 6.04 9.93 5.31 7 4 C4.67 3.31 2.34 2.64 0 2 C0 1.34 0 0.68 0 0 Z " fill="#575453" transform="translate(192,390)"/>
<path d="M0 0 C0.77 0.1 1.54 0.2 2.34 0.31 C2.91 0.39 3.48 0.48 4.06 0.56 C-2.52 4.09 -8.73 3.75 -16.06 3.75 C-17.17 3.76 -18.28 3.77 -19.43 3.79 C-21.01 3.79 -21.01 3.79 -22.63 3.79 C-24.09 3.8 -24.09 3.8 -25.57 3.81 C-27.94 3.56 -27.94 3.56 -29.94 1.56 C-28.11 1.47 -28.11 1.47 -26.25 1.38 C-24.62 1.29 -23 1.21 -21.38 1.12 C-20.18 1.07 -20.18 1.07 -18.95 1.01 C-15.3 0.81 -11.77 0.54 -8.16 0 C-5.23 -0.4 -2.91 -0.4 0 0 Z " fill="#858684" transform="translate(72.9375,344.4375)"/>
<path d="M0 0 C0.66 0 1.32 0 2 0 C2 0.66 2 1.32 2 2 C2.66 2 3.32 2 4 2 C4.2 4.58 4.38 7.17 4.56 9.75 C4.62 10.48 4.67 11.21 4.73 11.96 C4.98 15.55 5 18.55 4 22 C3.01 22 2.02 22 1 22 C0.67 14.74 0.34 7.48 0 0 Z " fill="#515151" transform="translate(447,251)"/>
<path d="M0 0 C0.66 0.66 1.32 1.32 2 2 C1.62 5.12 1.62 5.12 1 8 C0.34 8 -0.32 8 -1 8 C-1.66 10.97 -2.32 13.94 -3 17 C-3.66 17 -4.32 17 -5 17 C-5.4 18.21 -5.4 18.21 -5.81 19.44 C-6.2 20.28 -6.6 21.13 -7 22 C-7.99 22.33 -8.98 22.66 -10 23 C-8.74 18.8 -7.08 15.05 -5.09 11.17 C-3.25 7.51 -1.63 3.75 0 0 Z " fill="#4D4D4D" transform="translate(445,290)"/>
<path d="M0 0 C0 0.66 0 1.32 0 2 C-9.04 4.31 -18.07 6.5 -27.21 8.39 C-30.06 8.96 -30.06 8.96 -33 10 C-35.19 9.06 -35.19 9.06 -37 8 C-27.41 5.23 -17.89 4 -8 3 C-8 2.34 -8 1.68 -8 1 C-5.24 0.4 -2.84 0 0 0 Z " fill="#423126" transform="translate(320,387)"/>
<path d="M0 0 C9.9 0 19.8 0 30 0 C27.53 1.65 25.24 2.94 22.56 4.19 C21.8 4.55 21.04 4.92 20.25 5.29 C17.71 6.09 16.48 5.89 14 5 C14.66 4.67 15.32 4.34 16 4 C14.93 3.88 13.86 3.76 12.75 3.63 C11.36 3.46 9.96 3.29 8.56 3.12 C7.5 3.01 7.5 3.01 6.42 2.89 C4.6 2.66 2.8 2.34 1 2 C0.67 1.34 0.34 0.68 0 0 Z " fill="#DDDEDD" transform="translate(89,329)"/>
<path d="M0 0 C2.56 1.42 4.49 2.51 5.82 5.18 C5.2 4.97 4.57 4.77 3.92 4.55 C-1.48 2.86 -6.54 1.7 -12.18 1.18 C-12.18 1.84 -12.18 2.5 -12.18 3.18 C-13.15 3.46 -14.11 3.75 -15.11 4.05 C-18.28 4.82 -18.28 4.82 -19.18 7.18 C-21.16 7.18 -23.14 7.18 -25.18 7.18 C-24.64 6.95 -24.1 6.72 -23.55 6.49 C-20.94 5.14 -20.94 5.14 -18.11 2.61 C-13.05 -1.58 -6.2 -2.35 0 0 Z " fill="#CA813A" transform="translate(253.17578125,391.82421875)"/>
<path d="M0 0 C0.99 0.33 1.98 0.66 3 1 C2.75 1.58 2.49 2.17 2.23 2.77 C-2.67 14.44 -4.5 25.45 -5 38 C-5.33 38 -5.66 38 -6 38 C-6.03 35.15 -6.05 32.29 -6.06 29.44 C-6.07 28.64 -6.08 27.84 -6.09 27.01 C-6.11 22.23 -5.8 17.72 -5 13 C-4.34 13 -3.68 13 -3 13 C-2.95 12.23 -2.9 11.46 -2.85 10.66 C-2.74 9.16 -2.74 9.16 -2.62 7.62 C-2.52 6.13 -2.52 6.13 -2.41 4.6 C-2 2 -2 2 0 0 Z " fill="#5D5349" transform="translate(436,47)"/>
<path d="M0 0 C0 0.66 0 1.32 0 2 C-0.66 2 -1.32 2 -2 2 C-2 2.66 -2 3.32 -2 4 C-6.57 7.78 -12.32 8.15 -18 9 C-18 9.99 -18 10.98 -18 12 C-19.65 12 -21.3 12 -23 12 C-23 11.34 -23 10.68 -23 10 C-18.08 7.49 -13.12 5.09 -8.12 2.75 C-7.01 2.23 -5.9 1.71 -4.76 1.17 C-2 0 -2 0 0 0 Z " fill="#505251" transform="translate(94,276)"/>
<path d="M0 0 C0 3 0 3 -2 6 C-2.45 8.05 -2.45 8.05 -2.62 10.19 C-2.75 11.45 -2.87 12.7 -3 14 C-4.5 12.75 -4.5 12.75 -6 11 C-6 9.68 -6 8.36 -6 7 C-10.45 7.5 -10.45 7.5 -15 8 C-12.11 5.11 -11.19 4.51 -7.5 3.44 C-4.47 2.54 -2.69 1.79 0 0 Z " fill="#D8DBD9" transform="translate(90,314)"/>
<path d="M0 0 C2.31 0.66 4.62 1.32 7 2 C6.67 3.32 6.34 4.64 6 6 C5.34 6 4.68 6 4 6 C3.67 5.34 3.34 4.68 3 4 C2.67 9.61 2.34 15.22 2 21 C-0.07 17.9 -0.24 17.27 -0.2 13.77 C-0.19 12.97 -0.18 12.16 -0.18 11.34 C-0.16 10.5 -0.14 9.67 -0.12 8.81 C-0.12 7.97 -0.11 7.12 -0.1 6.25 C-0.07 4.17 -0.04 2.08 0 0 Z " fill="#CC8649" transform="translate(259,397)"/>
<path d="M0 0 C0.66 0 1.32 0 2 0 C2.33 5.28 2.66 10.56 3 16 C2.34 16.33 1.68 16.66 1 17 C1 16.34 1 15.68 1 15 C0.34 15 -0.32 15 -1 15 C-1 14.01 -1 13.02 -1 12 C-1.66 12 -2.32 12 -3 12 C-2.01 8.04 -1.02 4.08 0 0 Z " fill="#4D4D4D" transform="translate(330,119)"/>
<path d="M0 0 C6.52 -0.35 11.18 -0.04 17 3 C17 3.66 17 4.32 17 5 C11.39 4.67 5.78 4.34 0 4 C0 2.67 0 1.33 0 0 Z " fill="#DC5D0D" transform="translate(452,87)"/>
<path d="M0 0 C1.65 0.33 3.3 0.66 5 1 C5 1.66 5 2.32 5 3 C4.35 3.24 3.7 3.48 3.02 3.73 C-2.11 5.7 -6.57 7.74 -11 11 C-11.66 10.67 -12.32 10.34 -13 10 C-11.3 6.3 -10.19 5.1 -6.5 3.19 C-3 2 -3 2 0 2 C0 1.34 0 0.68 0 0 Z " fill="#4A4A4A" transform="translate(368,30)"/>
<path d="M0 0 C-2.35 0.51 -4.71 1.01 -7.06 1.5 C-7.72 1.64 -8.38 1.79 -9.05 1.93 C-13.43 2.84 -17.5 3.14 -22 3 C-21.67 2.34 -21.34 1.68 -21 1 C-19.68 1 -18.36 1 -17 1 C-17 0.34 -17 -0.32 -17 -1 C-5.08 -3.38 -5.08 -3.38 0 0 Z " fill="#424242" transform="translate(278,208)"/>
<path d="M0 0 C5.42 1.36 10.08 3.37 15 6 C15 6.66 15 7.32 15 8 C10.13 7.4 5.68 6.4 1 5 C0.67 5 0.34 5 0 5 C0 3.35 0 1.7 0 0 Z " fill="#575755" transform="translate(132,366)"/>
<path d="M0 0 C6.17 1.24 12.07 2.9 18 5 C18 5.66 18 6.32 18 7 C16.35 7.33 14.7 7.66 13 8 C13 7.34 13 6.68 13 6 C12.37 5.87 11.75 5.73 11.1 5.6 C10.28 5.42 9.47 5.24 8.62 5.06 C7.81 4.89 7 4.71 6.16 4.54 C4 4 4 4 2 3 C2 2.34 2 1.68 2 1 C1.34 0.67 0.68 0.34 0 0 Z " fill="#4C4A49" transform="translate(157,378)"/>
<path d="M0 0 C5.8 -0.36 9.64 0.74 15 3 C15 3.99 15 4.98 15 6 C9.74 5.33 4.97 3.76 0 2 C0 1.34 0 0.68 0 0 Z " fill="#595959" transform="translate(403,28)"/>
<path d="M0 0 C6.97 1.25 14.84 2.84 20 8 C16.7 7.67 13.4 7.34 10 7 C10 6.34 10 5.68 10 5 C9.05 4.86 8.1 4.71 7.12 4.56 C4 4 4 4 2 3 C2 2.34 2 1.68 2 1 C1.34 0.67 0.68 0.34 0 0 Z " fill="#494949" transform="translate(111,358)"/>
<path d="M0 0 C7.39 -0.15 14.64 0.29 22 1 C22 1.33 22 1.66 22 2 C17.39 2.86 12.88 3.15 8.19 3.25 C6.51 3.29 6.51 3.29 4.79 3.33 C3.87 3.22 2.95 3.11 2 3 C1.34 2.01 0.68 1.02 0 0 Z " fill="#2A2B2B" transform="translate(91,327)"/>
<path d="M0 0 C0.66 0.33 1.32 0.66 2 1 C1.98 1.56 1.95 2.11 1.93 2.69 C1.8 8.18 2.47 12.73 4 18 C3.34 18.33 2.68 18.66 2 19 C0.24 15.91 0 14.77 0 11 C-0.66 11 -1.32 11 -2 11 C-2.24 6.91 -1.42 3.82 0 0 Z " fill="#E68935" transform="translate(230,453)"/>
<path d="M0 0 C0.66 0 1.32 0 2 0 C2.39 0.45 2.78 0.91 3.19 1.38 C5.8 3.72 8.64 4.18 12 5 C12 5.66 12 6.32 12 7 C14.64 7.33 17.28 7.66 20 8 C20 8.66 20 9.32 20 10 C16.37 9.34 12.74 8.68 9 8 C9 7.34 9 6.68 9 6 C8.07 5.88 7.14 5.75 6.19 5.62 C3 5 3 5 0 3 C0 2.01 0 1.02 0 0 Z " fill="#CE6F31" transform="translate(316,431)"/>
<path d="M0 0 C2.46 4.74 4.31 8.57 4 14 C3.01 14.5 3.01 14.5 2 15 C2 14.34 2 13.68 2 13 C1.34 13 0.68 13 0 13 C-0.19 11.02 -0.38 9.04 -0.56 7.06 C-0.67 5.96 -0.77 4.86 -0.88 3.72 C-0.92 2.82 -0.96 1.93 -1 1 C-0.67 0.67 -0.34 0.34 0 0 Z " fill="#494949" transform="translate(339,165)"/>
<path d="M0 0 C0.99 0.33 1.98 0.66 3 1 C3 6.61 3 12.22 3 18 C2.34 17.67 1.68 17.34 1 17 C0.67 11.39 0.34 5.78 0 0 Z " fill="#ED8D3B" transform="translate(231,413)"/>
<path d="M0 0 C5.14 0.64 9.99 1.68 15 3 C14.01 4.49 14.01 4.49 13 6 C10.38 6.19 10.38 6.19 8 6 C8 5.34 8 4.68 8 4 C5.69 3.67 3.38 3.34 1 3 C0.67 2.01 0.34 1.02 0 0 Z " fill="#4F4F4D" transform="translate(176,385)"/>
<path d="M0 0 C1.53 0.09 3.05 0.25 4.56 0.44 C5.39 0.54 6.22 0.64 7.07 0.75 C7.7 0.83 8.34 0.91 9 1 C9 1.66 9 2.32 9 3 C5.54 4.07 2.36 4.1 -1.25 4.06 C-2.33 4.05 -3.41 4.04 -4.52 4.04 C-5.34 4.02 -6.16 4.01 -7 4 C-6.67 3.01 -6.34 2.02 -6 1 C-4.79 1.03 -4.79 1.03 -3.56 1.06 C-1.07 1.3 -1.07 1.3 0 0 Z " fill="#595959" transform="translate(82,351)"/>
<path d="M0 0 C0.66 0.33 1.32 0.66 2 1 C3.49 5.68 2.69 8.76 0.98 13.17 C-0.09 15.17 -1.33 16.48 -3 18 C-3.66 17.67 -4.32 17.34 -5 17 C-4.53 16.48 -4.06 15.96 -3.57 15.42 C-1.59 12.36 -1.28 9.85 -0.81 6.25 C-0.65 5.08 -0.5 3.91 -0.33 2.7 C-0.22 1.81 -0.11 0.92 0 0 Z " fill="#4D4D4D" transform="translate(342,185)"/>
<path d="M0 0 C2.97 0.33 5.94 0.66 9 1 C9 2.32 9 3.64 9 5 C6.9 4.89 4.79 4.76 2.69 4.62 C1.52 4.56 0.34 4.49 -0.86 4.41 C-4 4 -4 4 -7 2 C-4.69 2 -2.38 2 0 2 C0 1.34 0 0.68 0 0 Z " fill="#6A6A6A" transform="translate(94,352)"/>
<path d="M0 0 C0.33 0.66 0.66 1.32 1 2 C-2.21 3.91 -4.54 4.22 -8.25 4.12 C-9.14 4.11 -10.03 4.09 -10.95 4.07 C-11.97 4.04 -11.97 4.04 -13 4 C-13 3.34 -13 2.68 -13 2 C-8.46 0.55 -4.82 -0.24 0 0 Z " fill="#4D4D4D" transform="translate(248,211)"/>
<path d="M0 0 C0.66 0 1.32 0 2 0 C2.33 1.98 2.66 3.96 3 6 C3.66 6 4.32 6 5 6 C5.62 8.88 5.62 8.88 6 12 C5.34 12.66 4.68 13.32 4 14 C-0.59 4.59 -0.59 4.59 0 0 Z " fill="#484848" transform="translate(396,142)"/>
<path d="M0 0 C0.66 0 1.32 0 2 0 C2.99 2.97 3.98 5.94 5 9 C6.65 9.33 8.3 9.66 10 10 C9.67 10.99 9.34 11.98 9 13 C6.69 12.81 6.69 12.81 4 12 C0.95 8.3 0.46 4.69 0 0 Z " fill="#A35D2B" transform="translate(432,85)"/>
<path d="M0 0 C-1.86 3.6 -3.99 4.53 -7.69 5.75 C-9.12 6.18 -10.56 6.6 -12 7 C-9.23 1.11 -6.6 -0.45 0 0 Z " fill="#5A5553" transform="translate(408,103)"/>
<path d="M0 0 C5.61 0 11.22 0 17 0 C13.4 2.4 10.49 2.44 6.31 2.62 C5.61 2.66 4.91 2.7 4.19 2.74 C2.46 2.84 0.73 2.92 -1 3 C-0.67 2.01 -0.34 1.02 0 0 Z " fill="#4B4545" transform="translate(294,204)"/>
<path d="M0 0 C0.66 0 1.32 0 2 0 C2 0.66 2 1.32 2 2 C2.66 2 3.32 2 4 2 C4 3.98 4 5.96 4 8 C3.67 8 3.34 8 3 8 C2.67 12.62 2.34 17.24 2 22 C1.67 22 1.34 22 1 22 C0.67 14.74 0.34 7.48 0 0 Z " fill="#484848" transform="translate(447,251)"/>
<path d="M0 0 C1.98 0.99 1.98 0.99 4 2 C4 2.66 4 3.32 4 4 C4.66 4 5.32 4 6 4 C7.46 6.65 8 7.89 8 11 C7.01 10.67 6.02 10.34 5 10 C5 9.34 5 8.68 5 8 C4.34 8 3.68 8 3 8 C0 2.25 0 2.25 0 0 Z " fill="#464646" transform="translate(410,173)"/>
<path d="M0 0 C2.97 0.5 2.97 0.5 6 1 C6 1.66 6 2.32 6 3 C-0.93 4.49 -0.93 4.49 -8 6 C-8 5.34 -8 4.68 -8 4 C-4.54 3.5 -4.54 3.5 -1 3 C-0.67 2.01 -0.34 1.02 0 0 Z " fill="#ED8C2F" transform="translate(281,479)"/>
<path d="M0 0 C9.99 2.82 9.99 2.82 13 7 C13 7.99 13 8.98 13 10 C12.34 10 11.68 10 11 10 C9.33 8.33 7.67 6.67 6 5 C4.91 4.22 3.81 3.47 2.69 2.75 C1.8 2.17 0.91 1.59 0 1 C0 0.67 0 0.34 0 0 Z " fill="#4D4B47" transform="translate(421,35)"/>
<path d="M0 0 C1.22 -0.01 2.45 -0.03 3.71 -0.04 C7.01 0.18 9.23 0.76 12.19 2.19 C12.19 3.18 12.19 4.17 12.19 5.19 C11.59 4.88 10.99 4.57 10.38 4.25 C6.85 2.54 4.12 2.05 0.25 2.06 C-0.6 2.06 -1.46 2.06 -2.34 2.05 C-4.64 2.18 -6.61 2.54 -8.81 3.19 C-8.81 2.53 -8.81 1.87 -8.81 1.19 C-5.89 -0.28 -3.26 0.02 0 0 Z " fill="#544431" transform="translate(245.8125,389.8125)"/>
<path d="M0 0 C-5.31 2.66 -9.04 3.61 -15 3 C-15.66 2.01 -16.32 1.02 -17 0 C-14.92 -0.2 -12.83 -0.38 -10.75 -0.56 C-9.59 -0.67 -8.43 -0.77 -7.23 -0.88 C-4.48 -0.98 -2.58 -0.86 0 0 Z " fill="#393A39" transform="translate(121,327)"/>
<path d="M0 0 C0.66 0 1.32 0 2 0 C3.76 4.5 4.19 8.18 4 13 C3.01 13.5 3.01 13.5 2 14 C1.66 12.42 1.33 10.83 1 9.25 C0.81 8.37 0.63 7.49 0.44 6.58 C0 4 0 4 0 0 Z " fill="#444444" transform="translate(444,231)"/>
<path d="M0 0 C2.64 0.33 5.28 0.66 8 1 C8 1.66 8 2.32 8 3 C4.04 3.99 0.08 4.98 -4 6 C-4 5.34 -4 4.68 -4 4 C-2.68 3.34 -1.36 2.68 0 2 C0 1.34 0 0.68 0 0 Z " fill="#545454" transform="translate(174,234)"/>
<path d="M0 0 C-0.33 0.66 -0.66 1.32 -1 2 C-6.95 3.29 -12.93 3.1 -19 3 C-19 2.67 -19 2.34 -19 2 C-12.53 0.49 -6.64 -0.21 0 0 Z " fill="#B56430" transform="translate(318,391)"/>
<path d="M0 0 C0.81 0.1 1.62 0.2 2.45 0.31 C3.06 0.39 3.68 0.48 4.31 0.56 C-0.9 3.21 -3.83 3.76 -9.69 2.56 C-6.55 -0.58 -4.18 -0.55 0 0 Z " fill="#757674" transform="translate(72.6875,344.4375)"/>
<path d="M0 0 C1.42 -0.05 2.83 -0.09 4.25 -0.12 C5.04 -0.15 5.83 -0.17 6.64 -0.2 C9.21 0.02 10.79 0.71 13 2 C9.03 3.98 4.14 3.33 0 2 C0 1.34 0 0.68 0 0 Z " fill="#4E3A37" transform="translate(207,394)"/>
<path d="M0 0 C0.33 1.32 0.66 2.64 1 4 C-0.26 4.87 -1.54 5.72 -2.81 6.56 C-3.87 7.28 -3.87 7.28 -4.96 8 C-7 9 -7 9 -10 8 C-6.7 5.36 -3.4 2.72 0 0 Z " fill="#4D4E4D" transform="translate(414,336)"/>
<path d="M0 0 C2.7 2.52 4.4 4.69 6 8 C6.66 8.33 7.32 8.66 8 9 C8 9.66 8 10.32 8 11 C7.34 11 6.68 11 6 11 C5.67 11.66 5.34 12.32 5 13 C0.59 4.74 0.59 4.74 0 0 Z " fill="#565656" transform="translate(424,192)"/>
<path d="M0 0 C0.71 1.77 0.71 1.77 1 4 C-0.43 5.92 -0.43 5.92 -2.44 7.75 C-3.1 8.36 -3.75 8.98 -4.43 9.61 C-4.95 10.07 -5.47 10.53 -6 11 C-6.66 10.01 -7.32 9.02 -8 8 C-7.51 7.59 -7.01 7.18 -6.5 6.76 C-5.86 6.22 -5.22 5.68 -4.56 5.12 C-3.92 4.59 -3.29 4.06 -2.63 3.51 C-0.89 2.08 -0.89 2.08 0 0 Z " fill="#3D3D3D" transform="translate(352,40)"/>
<path d="M0 0 C0 0.66 0 1.32 0 2 C-4.41 3.1 -8.48 3.08 -13 3 C-12.67 2.34 -12.34 1.68 -12 1 C-8.02 -0.17 -4.13 -0.08 0 0 Z " fill="#D4D4D3" transform="translate(81,341)"/>
<path d="M0 0 C0.58 0.22 1.17 0.43 1.77 0.65 C1.11 0.65 0.45 0.65 -0.23 0.65 C-0.56 1.64 -0.89 2.63 -1.23 3.65 C-3.05 4.9 -3.05 4.9 -5.23 5.65 C-7.37 5.2 -7.37 5.2 -9.23 4.65 C-8.16 3.78 -7.08 2.93 -5.98 2.09 C-5.38 1.61 -4.78 1.14 -4.16 0.65 C-2.23 -0.35 -2.23 -0.35 0 0 Z " fill="#4C4D4B" transform="translate(374.234375,364.34765625)"/>
<path d="M0 0 C0.99 0.66 1.98 1.32 3 2 C2.48 2.72 1.97 3.44 1.44 4.19 C-0.21 7.42 -0.06 8.62 1 12 C0.01 11.67 -0.98 11.34 -2 11 C-2.29 3.57 -2.29 3.57 0 0 Z " fill="#313132" transform="translate(48,297)"/>
<path d="M0 0 C-0.81 2.94 -0.81 2.94 -2 6 C-2.99 6.33 -3.98 6.66 -5 7 C-5 6.34 -5 5.68 -5 5 C-5.66 5 -6.32 5 -7 5 C-7 4.34 -7 3.68 -7 3 C-6.01 3 -5.02 3 -4 3 C-4 2.34 -4 1.68 -4 1 C-2 0 -2 0 0 0 Z " fill="#505252" transform="translate(56,293)"/>
<path d="M0 0 C0 0.66 0 1.32 0 2 C-1.7 2.43 -1.7 2.43 -3.44 2.88 C-4.61 3.25 -5.79 3.62 -7 4 C-7.33 4.66 -7.66 5.32 -8 6 C-8.66 5.67 -9.32 5.34 -10 5 C-9 2 -9 2 -7.25 0.81 C-4.7 -0.11 -2.69 -0.15 0 0 Z " fill="#555555" transform="translate(387,359)"/>
<path d="M0 0 C0.66 0 1.32 0 2 0 C1.37 2.92 0.58 5.45 -1 8 C-1.99 8.33 -2.98 8.66 -4 9 C-4 4.97 -2.39 3.16 0 0 Z " fill="#4E4E4E" transform="translate(433,314)"/>
<path d="M0 0 C-1.62 0.86 -3.25 1.72 -4.88 2.56 C-6.23 3.28 -6.23 3.28 -7.62 4 C-8.4 4.33 -9.19 4.66 -10 5 C-10.66 4.67 -11.32 4.34 -12 4 C-12 3.34 -12 2.68 -12 2 C-10.38 1.47 -8.75 0.95 -7.12 0.44 C-6.22 0.15 -5.32 -0.14 -4.38 -0.44 C-2 -1 -2 -1 0 0 Z " fill="#494949" transform="translate(177,239)"/>
<path d="M0 0 C4.95 0.99 4.95 0.99 10 2 C10 2.66 10 3.32 10 4 C10.99 4.33 11.98 4.66 13 5 C11.02 5 9.04 5 7 5 C7 4.34 7 3.68 7 3 C4.69 2.67 2.38 2.34 0 2 C0 1.34 0 0.68 0 0 Z " fill="#CD6C2E" transform="translate(350,444)"/>
<path d="M0 0 C-0.33 1.32 -0.66 2.64 -1 4 C-3.88 4.62 -3.88 4.62 -7 5 C-7.66 4.34 -8.32 3.68 -9 3 C-2.25 0 -2.25 0 0 0 Z " fill="#484847" transform="translate(334,382)"/>
<path d="M0 0 C-7.29 3.43 -7.29 3.43 -12 3 C-11 1 -11 1 -7.69 -0.19 C-4.42 -0.91 -3.01 -1.2 0 0 Z " fill="#2E2F2F" transform="translate(102,302)"/>
<path d="M0 0 C0.99 0 1.98 0 3 0 C3.66 1.65 4.32 3.3 5 5 C3.02 5.99 3.02 5.99 1 7 C1 6.01 1 5.02 1 4 C0.34 4 -0.32 4 -1 4 C-0.67 2.68 -0.34 1.36 0 0 Z " fill="#696969" transform="translate(448,273)"/>
<path d="M0 0 C0 0.66 0 1.32 0 2 C-0.66 2 -1.32 2 -2 2 C-2.33 2.99 -2.66 3.98 -3 5 C-5.31 5 -7.62 5 -10 5 C-10 4.34 -10 3.68 -10 3 C-8.71 2.5 -7.42 2 -6.12 1.5 C-5.05 1.08 -5.05 1.08 -3.95 0.66 C-2 0 -2 0 0 0 Z " fill="#4E5050" transform="translate(139,255)"/>
<path d="M0 0 C0.33 0 0.66 0 1 0 C1.33 2.97 1.66 5.94 2 9 C2.66 9 3.32 9 4 9 C4 9.66 4 10.32 4 11 C3.01 11 2.02 11 1 11 C1 10.34 1 9.68 1 9 C0.34 9 -0.32 9 -1 9 C-1.12 2.25 -1.12 2.25 0 0 Z " fill="#575757" transform="translate(448,242)"/>
<path d="M0 0 C4.75 0.88 4.75 0.88 7 2 C7 2.66 7 3.32 7 4 C8.32 4.33 9.64 4.66 11 5 C11 5.66 11 6.32 11 7 C9.02 6.34 7.04 5.68 5 5 C5 4.34 5 3.68 5 3 C3.35 2.67 1.7 2.34 0 2 C0 1.34 0 0.68 0 0 Z " fill="#EC8733" transform="translate(474,69)"/>
<path d="M0 0 C0.95 0.04 1.9 0.08 2.88 0.12 C0.88 1.46 -1.12 2.79 -3.12 4.12 C-3.38 7.71 -3.38 7.71 -3.12 11.12 C-3.79 10.8 -4.44 10.47 -5.12 10.12 C-5.32 4.07 -5.32 4.07 -5.12 2.12 C-3.12 0.12 -3.12 0.12 0 0 Z " fill="#151515" transform="translate(409.125,51.875)"/>
<path d="M0 0 C0.66 0.33 1.32 0.66 2 1 C-0.64 3.64 -3.28 6.28 -6 9 C-6.33 8.01 -6.66 7.02 -7 6 C-4.69 4.02 -2.38 2.04 0 0 Z " fill="#323333" transform="translate(96,311)"/>
<path d="M0 0 C2.09 3.4 2.18 6.05 2 10 C1.34 10 0.68 10 0 10 C-1.49 7.02 -1.12 4.28 -1 1 C-0.67 0.67 -0.34 0.34 0 0 Z " fill="#484848" transform="translate(334,144)"/>
<path d="M0 0 C0.66 0.66 1.32 1.32 2 2 C-1.63 2.33 -5.26 2.66 -9 3 C-9 2.34 -9 1.68 -9 1 C-5.99 -0.51 -3.32 -0.18 0 0 Z " fill="#464646" transform="translate(383,28)"/>
<path d="M0 0 C0.33 0 0.66 0 1 0 C0.67 3.63 0.34 7.26 0 11 C-0.99 10.67 -1.98 10.34 -3 10 C-3 9.01 -3 8.02 -3 7 C-2.34 7 -1.68 7 -1 7 C-1.02 6.03 -1.04 5.06 -1.06 4.06 C-1 1 -1 1 0 0 Z " fill="#EF842C" transform="translate(259,428)"/>
<path d="M0 0 C4.22 -0.2 7.17 0.2 11 2 C11 2.33 11 2.66 11 3 C7.7 3 4.4 3 1 3 C0.67 2.01 0.34 1.02 0 0 Z " fill="#5C5C60" transform="translate(267,396)"/>
<path d="M0 0 C-0.33 0.33 -0.66 0.66 -1 1 C-0.34 1.66 0.32 2.32 1 3 C-2.3 2.67 -5.6 2.34 -9 2 C-9 1.34 -9 0.68 -9 0 C-2.25 -1.12 -2.25 -1.12 0 0 Z " fill="#7A7A78" transform="translate(73,352)"/>
<path d="M0 0 C0.33 0.66 0.66 1.32 1 2 C-0.29 2.7 -1.58 3.38 -2.88 4.06 C-3.95 4.64 -3.95 4.64 -5.05 5.22 C-6.02 5.61 -6.02 5.61 -7 6 C-7.66 5.67 -8.32 5.34 -9 5 C-3.86 0.57 -3.86 0.57 0 0 Z " fill="#575754" transform="translate(407,344)"/>
<path d="M0 0 C2.97 0.33 5.94 0.66 9 1 C9 1.66 9 2.32 9 3 C5.7 2.67 2.4 2.34 -1 2 C-0.67 1.34 -0.34 0.68 0 0 Z " fill="#EA9342" transform="translate(254,482)"/>
<path d="M0 0 C0.33 0.66 0.66 1.32 1 2 C1.99 3.49 1.99 3.49 3 5 C-2.54 4.38 -2.54 4.38 -4.88 2.44 C-5.25 1.96 -5.62 1.49 -6 1 C-3 0 -3 0 0 0 Z " fill="#727272" transform="translate(159,379)"/>
<path d="M0 0 C-2.31 2.31 -3.48 2.5 -6.62 3.12 C-7.44 3.29 -8.26 3.46 -9.1 3.63 C-10.04 3.81 -10.04 3.81 -11 4 C-10.34 3.67 -9.68 3.34 -9 3 C-9 2.34 -9 1.68 -9 1 C-6.04 -0.48 -3.26 -0.06 0 0 Z " fill="#444444" transform="translate(207,225)"/>
<path d="M0 0 C4 4.75 4 4.75 4 7 C2.02 7.33 0.04 7.66 -2 8 C-1.67 7.42 -1.34 6.84 -1 6.25 C0.27 3.8 0.27 3.8 0 0 Z " fill="#746459" transform="translate(433,92)"/>
<path d="M0 0 C0 0.33 0 0.66 0 1 C-1.65 1 -3.3 1 -5 1 C-5 1.66 -5 2.32 -5 3 C-6.32 3 -7.64 3 -9 3 C-9.33 2.01 -9.66 1.02 -10 0 C-6.34 -0.75 -3.58 -1.24 0 0 Z " fill="#CF733A" transform="translate(451,94)"/>
<path d="M0 0 C0.62 1.88 0.62 1.88 1 4 C-1.36 6.36 -2.78 6.49 -6 7 C-5.67 6.01 -5.34 5.02 -5 4 C-2.44 2.81 -2.44 2.81 0 2 C0 1.34 0 0.68 0 0 Z " fill="#DB702D" transform="translate(295,436)"/>
<path d="M0 0 C2.64 0.33 5.28 0.66 8 1 C8 1.66 8 2.32 8 3 C5.69 3 3.38 3 1 3 C0.67 2.01 0.34 1.02 0 0 Z " fill="#4D4D4C" transform="translate(192,390)"/>
<path d="M0 0 C1.65 0 3.3 0 5 0 C5.66 1.32 6.32 2.64 7 4 C4.03 3.5 4.03 3.5 1 3 C0.67 2.01 0.34 1.02 0 0 Z " fill="#4E4E4E" transform="translate(148,374)"/>
<path d="M0 0 C2.45 0.4 4.64 1.21 7 2 C7 2.66 7 3.32 7 4 C5.68 4.33 4.36 4.66 3 5 C3 4.34 3 3.68 3 3 C1.35 2.67 -0.3 2.34 -2 2 C-1.34 1.34 -0.68 0.68 0 0 Z " fill="#8D8F8E" transform="translate(90,305)"/>
<path d="M0 0 C1.89 0.06 1.89 0.06 3.81 0.12 C3.81 0.45 3.81 0.78 3.81 1.12 C2.23 1.22 2.23 1.22 0.62 1.31 C-3.82 2.26 -5.3 3.72 -8.19 7.12 C-7.88 4.75 -7.88 4.75 -7.19 2.12 C-4.1 0.07 -3.48 -0.11 0 0 Z " fill="#6D6D6D" transform="translate(410.1875,49.875)"/>
<path d="M0 0 C4.75 0.88 4.75 0.88 7 2 C6.67 2.99 6.34 3.98 6 5 C5.01 5 4.02 5 3 5 C1 2 1 2 0 0 Z " fill="#B37548" transform="translate(283,399)"/>
<path d="M0 0 C2.31 0.66 4.62 1.32 7 2 C7 2.66 7 3.32 7 4 C5.82 3.97 5.82 3.97 4.62 3.94 C2.02 3.81 2.02 3.81 0 5 C0 3.35 0 1.7 0 0 Z " fill="#494947" transform="translate(132,366)"/>
<path d="M0 0 C4.45 1.98 4.45 1.98 9 4 C5.31 5.23 2.79 4.64 -1 4 C-0.67 2.68 -0.34 1.36 0 0 Z " fill="#515151" transform="translate(122,361)"/>
<path d="M0 0 C0.66 0 1.32 0 2 0 C2 1.32 2 2.64 2 4 C-0.97 3.67 -3.94 3.34 -7 3 C-7 2.67 -7 2.34 -7 2 C-4.69 2 -2.38 2 0 2 C0 1.34 0 0.68 0 0 Z " fill="#7D7D7D" transform="translate(94,352)"/>
<path d="M0 0 C0.33 0.66 0.66 1.32 1 2 C-1.17 4.5 -2.73 5.44 -6 6 C-6.33 5.01 -6.66 4.02 -7 3 C-4.69 2.01 -2.38 1.02 0 0 Z " fill="#575757" transform="translate(220,217)"/>
<path d="M0 0 C0.66 0.33 1.32 0.66 2 1 C2 2.65 2 4.3 2 6 C1.01 6 0.02 6 -1 6 C-1.33 4.68 -1.66 3.36 -2 2 C-1.34 2 -0.68 2 0 2 C0 1.34 0 0.68 0 0 Z " fill="#565656" transform="translate(336,152)"/>
<path d="M0 0 C2.64 0 5.28 0 8 0 C8 1.32 8 2.64 8 4 C7.01 4 6.02 4 5 4 C5 3.34 5 2.68 5 2 C3.35 1.67 1.7 1.34 0 1 C0 0.67 0 0.34 0 0 Z " fill="#EE7117" transform="translate(464,88)"/>
<path d="M0 0 C0.12 3.38 0.12 3.38 0 7 C-0.66 7.66 -1.32 8.32 -2 9 C-2.33 6.36 -2.66 3.72 -3 1 C-1 0 -1 0 0 0 Z " fill="#3D3D3D" transform="translate(332,82)"/>
<path d="M0 0 C2.69 1.94 2.69 1.94 5 4 C2.98 3.97 0.96 3.93 -1.05 3.9 C-3.08 3.87 -3.08 3.87 -5 5 C-4.19 3.06 -4.19 3.06 -3 1 C-2.01 0.67 -1.02 0.34 0 0 Z " fill="#E78627" transform="translate(443,50)"/>
<path d="M0 0 C2.31 0 4.62 0 7 0 C7.33 0.99 7.66 1.98 8 3 C5.36 2.67 2.72 2.34 0 2 C0 1.34 0 0.68 0 0 Z " fill="#474747" transform="translate(403,28)"/>
<path d="M0 0 C2.48 0.5 2.48 0.5 5 1 C5 1.66 5 2.32 5 3 C5.99 3 6.98 3 8 3 C8 3.66 8 4.32 8 5 C4.63 4.45 2.92 3.95 0 2 C0 1.34 0 0.68 0 0 Z " fill="#EA7F26" transform="translate(285,455)"/>
<path d="M0 0 C0.66 0.33 1.32 0.66 2 1 C2.59 3.65 2.74 6.29 3 9 C1.68 8.01 0.36 7.02 -1 6 C-0.67 4.02 -0.34 2.04 0 0 Z " fill="#C25212" transform="translate(290,398)"/>
<path d="M0 0 C-5.27 3.22 -5.27 3.22 -7 4 C-7.66 3.67 -8.32 3.34 -9 3 C-5.84 -0.31 -4.5 -1.35 0 0 Z " fill="#D3D3D3" transform="translate(57,329)"/>
<path d="M0 0 C0.66 0 1.32 0 2 0 C2.66 2.97 3.32 5.94 4 9 C0.06 5.68 0.06 5.68 -0.25 2.25 C-0.17 1.51 -0.08 0.77 0 0 Z " fill="#B96129" transform="translate(432,85)"/>
<path d="M0 0 C0.33 0 0.66 0 1 0 C1 2.31 1 4.62 1 7 C0.34 7 -0.32 7 -1 7 C-1.33 7.66 -1.66 8.32 -2 9 C-1.12 1.12 -1.12 1.12 0 0 Z " fill="#C45B19" transform="translate(296,429)"/>
<path d="M0 0 C1.21 0.03 1.21 0.03 2.44 0.06 C2.44 0.72 2.44 1.38 2.44 2.06 C-0.86 2.39 -4.16 2.72 -7.56 3.06 C-6.24 2.4 -4.92 1.74 -3.56 1.06 C-2.56 0.06 -2.56 0.06 0 0 Z " fill="#E0E0E0" transform="translate(89.5625,337.9375)"/>
<path d="M0 0 C0.66 0.33 1.32 0.66 2 1 C2 2.98 2 4.96 2 7 C1.01 6.67 0.02 6.34 -1 6 C-1.04 4.33 -1.04 2.67 -1 1 C-0.67 0.67 -0.34 0.34 0 0 Z " fill="#5A5A5A" transform="translate(342,179)"/>
<path d="M0 0 C0.33 1.32 0.66 2.64 1 4 C-0.32 3.01 -1.64 2.02 -3 1 C-2.01 0.67 -1.02 0.34 0 0 Z " fill="#947E6A" transform="translate(227,399)"/>
<path d="M0 0 C1.32 0.33 2.64 0.66 4 1 C2.68 1.33 1.36 1.66 0 2 C0 1.34 0 0.68 0 0 Z " fill="#886B6A" transform="translate(274,400)"/>
<path d="M0 0 C1.32 0.33 2.64 0.66 4 1 C2.68 1.33 1.36 1.66 0 2 C0 1.34 0 0.68 0 0 Z " fill="#636363" transform="translate(223,214)"/>
<path d="M0 0 C0.99 0.5 0.99 0.5 2 1 C1.67 1.99 1.34 2.98 1 4 C0.67 2.68 0.34 1.36 0 0 Z " fill="#313131" transform="translate(324,98)"/>
<path d="M0 0 C0.66 0 1.32 0 2 0 C2 0.66 2 1.32 2 2 C1.34 2 0.68 2 0 2 C0 1.34 0 0.68 0 0 Z " fill="#876C4E" transform="translate(282,402)"/>
<path d="M0 0 C4 1 4 1 4 1 Z " fill="#A9423F" transform="translate(219,399)"/>
<path d="M0 0 C4 1 4 1 4 1 Z " fill="#525251" transform="translate(341,383)"/>
<path d="M0 0 C0.99 0.5 0.99 0.5 2 1 C1.67 1.66 1.34 2.32 1 3 C0.67 2.01 0.34 1.02 0 0 Z " fill="#1D1D1D" transform="translate(448,235)"/>
<path d="M0 0 C0.66 0 1.32 0 2 0 C2 0.66 2 1.32 2 2 C1.34 2 0.68 2 0 2 C0 1.34 0 0.68 0 0 Z " fill="#020206" transform="translate(398,113)"/>
<path d="M0 0 C3 1 3 1 3 1 Z " fill="#7E8182" transform="translate(49,313)"/>
<path d="M0 0 C3 1 3 1 3 1 Z " fill="#656766" transform="translate(113,264)"/>
<path d="M0 0 C0.99 0.5 0.99 0.5 2 1 C1.01 1.5 1.01 1.5 0 2 C0 1.34 0 0.68 0 0 Z " fill="#7E7E7E" transform="translate(164,239)"/>
<path d="" fill="#020202" transform="translate(0,0)"/>
<path d="" fill="#5F634F" transform="translate(0,0)"/>
<path d="M0 0 C2 1 2 1 2 1 Z " fill="#E58727" transform="translate(305,481)"/>
<path d="M0 0 C2 1 2 1 2 1 Z " fill="#C5210E" transform="translate(336,471)"/>
<path d="M0 0 C2 1 2 1 2 1 Z " fill="#000000" transform="translate(174,390)"/>
<path d="M0 0 C2 1 2 1 2 1 Z " fill="#7E7E7C" transform="translate(330,388)"/>
<path d="M0 0 C2 1 2 1 2 1 Z " fill="#575855" transform="translate(175,388)"/>
<path d="" fill="#353535" transform="translate(0,0)"/>
<path d="M0 0 C2 1 2 1 2 1 Z " fill="#7D7D7D" transform="translate(104,359)"/>
<path d="M0 0 C2 1 2 1 2 1 Z " fill="#7D7D7D" transform="translate(431,323)"/>
<path d="" fill="#FFFFFF" transform="translate(0,0)"/>
<path d="" fill="#000000" transform="translate(0,0)"/>
<path d="M0 0 C2 1 2 1 2 1 Z " fill="#515353" transform="translate(134,254)"/>
<path d="M0 0 C2 1 2 1 2 1 Z " fill="#565656" transform="translate(155,244)"/>
<path d="" fill="#7D7D7D" transform="translate(0,0)"/>
<path d="M0 0 C2 1 2 1 2 1 Z " fill="#505050" transform="translate(194,225)"/>
<path d="M0 0 C2 1 2 1 2 1 Z " fill="#7B7B7B" transform="translate(214,218)"/>
<path d="" fill="#7D7D7D" transform="translate(0,0)"/>
<path d="M0 0 C2 1 2 1 2 1 Z " fill="#7F7F7F" transform="translate(270,204)"/>
<path d="M0 0 C2 1 2 1 2 1 Z " fill="#7F7F7F" transform="translate(431,197)"/>
<path d="" fill="#606060" transform="translate(0,0)"/>
<path d="" fill="#7F7F7F" transform="translate(0,0)"/>
<path d="M0 0 C2 1 2 1 2 1 Z " fill="#8D605F" transform="translate(432,101)"/>
<path d="M0 0 C2 1 2 1 2 1 Z " fill="#B81C1B" transform="translate(435,100)"/>
<path d="" fill="#F2F534" transform="translate(0,0)"/>
<path d="" fill="#FFEB2B" transform="translate(0,0)"/>
<path d="" fill="#FFEB41" transform="translate(0,0)"/>
<path d="" fill="#C51A0B" transform="translate(0,0)"/>
<path d="" fill="#AE1F1E" transform="translate(0,0)"/>
<path d="" fill="#F5EF5C" transform="translate(0,0)"/>
<path d="" fill="#B22820" transform="translate(0,0)"/>
<path d="" fill="#B12422" transform="translate(0,0)"/>
<path d="" fill="#DF8325" transform="translate(0,0)"/>
<path d="" fill="#FFE741" transform="translate(0,0)"/>
<path d="" fill="#D21611" transform="translate(0,0)"/>
<path d="" fill="#B22523" transform="translate(0,0)"/>
<path d="" fill="#000000" transform="translate(0,0)"/>
<path d="" fill="#7C7D7A" transform="translate(0,0)"/>
<path d="" fill="#060606" transform="translate(0,0)"/>
<path d="" fill="#180000" transform="translate(0,0)"/>
<path d="" fill="#030303" transform="translate(0,0)"/>
<path d="" fill="#FBFAFB" transform="translate(0,0)"/>
<path d="" fill="#FFFFFF" transform="translate(0,0)"/>
<path d="" fill="#000000" transform="translate(0,0)"/>
<path d="" fill="#030303" transform="translate(0,0)"/>
<path d="" fill="#050505" transform="translate(0,0)"/>
<path d="" fill="#000100" transform="translate(0,0)"/>
<path d="" fill="#020202" transform="translate(0,0)"/>
<path d="" fill="#020202" transform="translate(0,0)"/>
<path d="" fill="#070707" transform="translate(0,0)"/>
<path d="" fill="#030303" transform="translate(0,0)"/>
<path d="" fill="#020202" transform="translate(0,0)"/>
<path d="" fill="#010101" transform="translate(0,0)"/>
<path d="" fill="#000000" transform="translate(0,0)"/>
<path d="" fill="#000000" transform="translate(0,0)"/>
<path d="" fill="#7D7D7D" transform="translate(0,0)"/>
<path d="" fill="#050505" transform="translate(0,0)"/>
<path d="" fill="#010101" transform="translate(0,0)"/>
<path d="" fill="#050505" transform="translate(0,0)"/>
<path d="" fill="#020202" transform="translate(0,0)"/>
<path d="" fill="#000000" transform="translate(0,0)"/>
<path d="" fill="#020202" transform="translate(0,0)"/>
<path d="" fill="#010004" transform="translate(0,0)"/>
<path d="" fill="#030001" transform="translate(0,0)"/>
<path d="" fill="#080203" transform="translate(0,0)"/>
<path d="" fill="#020202" transform="translate(0,0)"/>
<path d="" fill="#000000" transform="translate(0,0)"/>
<path d="" fill="#545454" transform="translate(0,0)"/>
<path d="" fill="#0D0D0D" transform="translate(0,0)"/>
<path d="" fill="#090909" transform="translate(0,0)"/>
<path d="" fill="#000000" transform="translate(0,0)"/>
<path d="" fill="#7B7B7B" transform="translate(0,0)"/>
</svg>
