<?xml version="1.0" standalone="no"?>
<!DOCTYPE svg PUBLIC "-//W3C//DTD SVG 20010904//EN"
 "http://www.w3.org/TR/2001/REC-SVG-20010904/DTD/svg10.dtd">
<svg version="1.0" xmlns="http://www.w3.org/2000/svg"
 width="512.000000pt" height="512.000000pt" viewBox="0 0 512.000000 512.000000"
 preserveAspectRatio="xMidYMid meet">
<metadata>
Created by potrace 1.16, written by Peter Selinger 2001-2019
</metadata>
<g transform="translate(0.000000,512.000000) scale(0.100000,-0.100000)"
fill="#000000" stroke="none">
<path d="M3690 4870 c-382 -102 -564 -504 -495 -1095 19 -163 40 -271 76 -390
60 -196 70 -313 30 -335 -11 -5 -115 -7 -257 -4 -145 4 -269 2 -314 -4 -220
-31 -375 -71 -580 -149 -77 -29 -340 -160 -460 -228 -137 -78 -272 -148 -490
-256 -467 -230 -650 -325 -650 -338 0 -4 16 -13 35 -20 26 -9 76 -11 193 -6
l157 7 -20 -20 c-11 -12 -89 -60 -173 -106 -240 -135 -392 -244 -392 -282 0
-8 16 -22 35 -30 l34 -14 -24 -36 c-29 -43 -30 -48 -10 -64 11 -9 35 -9 102
-1 48 6 144 16 213 22 69 7 146 14 172 16 42 4 63 -3 215 -75 92 -44 179 -83
193 -87 14 -4 30 -11 35 -15 20 -15 283 -100 385 -124 85 -20 395 -66 445 -66
7 0 22 -30 35 -67 12 -38 32 -81 44 -98 19 -28 21 -42 21 -205 -1 -126 -6
-195 -17 -248 -13 -57 -15 -78 -6 -98 14 -31 260 -224 286 -224 10 0 23 5 28
10 26 26 122 50 204 51 114 1 135 8 133 42 -1 22 5 28 43 43 50 19 56 40 22
71 -55 49 -101 66 -343 133 -44 12 -97 32 -117 43 l-38 21 0 175 c0 169 1 176
23 200 13 15 31 47 41 73 9 25 23 51 29 57 12 9 245 32 258 25 4 -2 10 -20 14
-41 9 -49 50 -129 72 -142 16 -9 18 -31 21 -213 3 -162 6 -206 18 -219 14 -16
176 -99 294 -152 92 -41 106 -41 163 -9 29 16 95 42 147 57 127 36 142 47 138
92 -4 47 -32 67 -139 102 -70 23 -277 77 -369 96 -41 8 -49 18 -60 74 -18 97
-13 186 15 240 14 29 27 76 31 116 4 37 12 68 18 70 109 30 372 148 453 203
16 10 62 40 103 67 305 199 526 448 600 675 23 68 25 91 25 245 -1 143 -4 181
-22 240 -65 221 -140 377 -281 584 -187 277 -241 409 -250 606 -5 126 6 182
46 226 24 26 39 31 117 43 96 15 195 50 257 91 47 32 104 44 196 45 71 0 308
25 345 36 26 8 39 39 28 67 -12 31 -97 92 -181 130 -167 76 -236 108 -250 116
-8 4 -35 36 -60 71 -110 154 -380 236 -590 180z"/>
</g>
</svg>
